SplineFontDB: 3.2
FontName: ToxiUIRegular
FullName: ToxiUI Regular
FamilyName: ToxiUI
Weight: Regular
Copyright: Copyright (c) 2021, ToxiUI
Version: 1.000
ItalicAngle: 0
UnderlinePosition: -100
UnderlineWidth: 50
Ascent: 800
Descent: 200
InvalidEm: 0
sfntRevision: 0x00010000
LayerCount: 2
Layer: 0 1 "Back" 1
Layer: 1 1 "Fore" 0
XUID: [1021 455 494256674 12456]
StyleMap: 0x0040
FSType: 8
OS2Version: 2
OS2_WeightWidthSlopeOnly: 0
OS2_UseTypoMetrics: 0
CreationTime: 1244721621
ModificationTime: 1621406323
PfmFamily: 17
TTFWeight: 400
TTFWidth: 5
LineGap: 275
VLineGap: 0
Panose: 2 11 6 2 2 2 2 2 2 4
OS2TypoAscent: 740
OS2TypoAOffset: 0
OS2TypoDescent: -185
OS2TypoDOffset: 0
OS2TypoLinegap: 275
OS2WinAscent: 1011
OS2WinAOffset: 0
OS2WinDescent: 260
OS2WinDOffset: 0
HheadAscent: 740
HheadAOffset: 0
HheadDescent: -185
HheadDOffset: 0
OS2SubXSize: 650
OS2SubYSize: 600
OS2SubXOff: 0
OS2SubYOff: 75
OS2SupXSize: 650
OS2SupYSize: 600
OS2SupXOff: 0
OS2SupYOff: 350
OS2StrikeYSize: 50
OS2StrikeYPos: 259
OS2CapHeight: 740
OS2XHeight: 554
OS2FamilyClass: 2052
OS2Vendor: 'PARA'
OS2CodePages: 2000009f.00000000
OS2UnicodeRanges: 800002ff.5000204a.00000000.00000000
Lookup: 1 0 0 "'aalt' Access All Alternates in Latin lookup 0" { "'aalt' Access All Alternates in Latin lookup 0 subtable"  } ['aalt' ('latn' <'dflt' > ) ]
Lookup: 3 0 0 "'aalt' Access All Alternates in Latin lookup 1" { "'aalt' Access All Alternates in Latin lookup 1 subtable"  } ['aalt' ('latn' <'dflt' > ) ]
Lookup: 1 0 0 "'case' Case-Sensitive Forms lookup 2" { "'case' Case-Sensitive Forms lookup 2 subtable"  } ['case' ('cyrl' <'dflt' > 'grek' <'dflt' > 'latn' <'dflt' > ) ]
Lookup: 4 0 0 "'dlig' Discretionary Ligatures lookup 3" { "'dlig' Discretionary Ligatures lookup 3 subtable"  } ['dlig' ('cyrl' <'dflt' > 'grek' <'dflt' > 'latn' <'dflt' > ) ]
Lookup: 4 0 0 "'dpng' Diphthongs (Obsolete) lookup 4" { "'dpng' Diphthongs (Obsolete) lookup 4 subtable"  } ['dpng' ('cyrl' <'dflt' > 'grek' <'dflt' > 'latn' <'dflt' > ) ]

StartChar: exclam
Encoding: 33 33 1
Width: 277
GlyphClass: 2
Flags: W
LayerCount: 2
Fore
SplineSet
191 740 m 1,0,-1
 191 182 l 1,1,-1
 87 182 l 1,2,-1
 87 740 l 1,3,-1
 191 740 l 1,0,-1
191 122 m 1,4,-1
 191 0 l 1,5,-1
 87 0 l 1,6,-1
 87 122 l 1,7,-1
 191 122 l 1,4,-1
EndSplineSet
EndChar

StartChar: quotedbl
Encoding: 34 34 2
Width: 325
GlyphClass: 2
Flags: W
LayerCount: 2
Fore
SplineSet
286 444 m 1,0,-1
 215 444 l 1,1,-1
 196 740 l 1,2,-1
 306 740 l 1,3,-1
 286 444 l 1,0,-1
110 444 m 1,4,-1
 39 444 l 1,5,-1
 20 740 l 1,6,-1
 130 740 l 1,7,-1
 110 444 l 1,4,-1
EndSplineSet
EndChar

StartChar: numbersign
Encoding: 35 35 3
Width: 555
GlyphClass: 2
Flags: W
LayerCount: 2
Fore
SplineSet
341 412 m 1,0,-1
 239 412 l 1,1,-1
 222 288 l 1,2,-1
 324 288 l 1,3,-1
 341 412 l 1,0,-1
494 288 m 1,4,-1
 492 204 l 1,5,-1
 401 204 l 1,6,-1
 372 0 l 1,7,-1
 284 0 l 1,8,-1
 312 204 l 1,9,-1
 210 204 l 1,10,-1
 181 0 l 1,11,-1
 93 0 l 1,12,-1
 121 204 l 1,13,-1
 30 204 l 1,14,-1
 32 288 l 1,15,-1
 133 288 l 1,16,-1
 150 412 l 1,17,-1
 60 412 l 1,18,-1
 62 496 l 1,19,-1
 162 496 l 1,20,-1
 190 700 l 1,21,-1
 279 700 l 1,22,-1
 251 496 l 1,23,-1
 353 496 l 1,24,-1
 381 700 l 1,25,-1
 470 700 l 1,26,-1
 442 496 l 1,27,-1
 524 496 l 1,28,-1
 522 412 l 1,29,-1
 430 412 l 1,30,-1
 413 288 l 1,31,-1
 494 288 l 1,4,-1
EndSplineSet
EndChar

StartChar: dollar
Encoding: 36 36 4
Width: 555
GlyphClass: 2
Flags: W
LayerCount: 2
Fore
SplineSet
234 823 m 1,0,-1
 329 823 l 1,1,-1
 329 711 l 1,2,3
 391 703 391 703 433 660 c 0,4,5
 474 616 474 616 477 538 c 1,6,-1
 373 538 l 1,7,8
 370 577 370 577 349 599 c 0,9,10
 328 622 328 622 285 622 c 0,11,12
 266 622 266 622 248 614 c 0,13,14
 233 606 233 606 222 592 c 0,15,16
 210 577 210 577 206 561 c 0,17,18
 201 543 201 543 201 528 c 0,19,20
 201 503 201 503 210 488 c 0,21,22
 217 473 217 473 234 462 c 0,23,24
 249 451 249 451 271 444 c 2,25,26
 271 444 271 444 320 430 c 0,27,28
 357 419 357 419 363 417 c 0,29,30
 391 407 391 407 419 386 c 0,31,32
 447 363 447 363 467 327 c 0,33,34
 487 289 487 289 487 232 c 0,35,36
 487 206 487 206 481 174 c 0,37,38
 473 140 473 140 456 113 c 0,39,40
 437 82 437 82 408 60 c 0,41,42
 375 36 375 36 329 29 c 1,43,-1
 329 -82 l 1,44,-1
 234 -82 l 1,45,-1
 234 29 l 1,46,47
 200 37 200 37 172 53 c 0,48,49
 143 68 143 68 121 93 c 0,50,51
 98 117 98 117 85 151 c 0,52,53
 71 187 71 187 68 230 c 1,54,-1
 172 230 l 1,55,56
 175 198 175 198 187 175 c 0,57,58
 197 153 197 153 214 141 c 0,59,60
 229 127 229 127 248 123 c 0,61,62
 268 118 268 118 283 118 c 0,63,64
 309 118 309 118 328 128 c 0,65,66
 347 137 347 137 359 153 c 0,67,68
 371 168 371 168 377 189 c 0,69,70
 383 209 383 209 383 232 c 0,71,72
 383 264 383 264 370 283 c 0,73,74
 356 302 356 302 337 316 c 0,75,76
 320 328 320 328 295 336 c 0,77,78
 289 338 289 338 275.5 341.5 c 128,-1,79
 262 345 262 345 255 347 c 0,80,81
 240 351 240 351 212 361 c 0,82,83
 187 369 187 369 160 390 c 128,-1,84
 133 411 133 411 116 442 c 0,85,86
 97 474 97 474 97 528 c 0,87,88
 97 550 97 550 103 578 c 128,-1,89
 109 606 109 606 125 632 c 0,90,91
 142 658 142 658 167 680 c 0,92,93
 191 700 191 700 234 711 c 1,94,-1
 234 823 l 1,0,-1
EndSplineSet
EndChar

StartChar: percent
Encoding: 37 37 5
Width: 837
GlyphClass: 2
Flags: W
LayerCount: 2
Fore
SplineSet
660 740 m 1,0,-1
 236 0 l 1,1,-1
 169 0 l 1,2,-1
 593 740 l 1,3,-1
 660 740 l 1,0,-1
142 572 m 128,-1,5
 142 551 142 551 149 536 c 0,6,7
 158 517 158 517 169 507 c 0,8,9
 179 496 179 496 198 487 c 0,10,11
 216 479 216 479 233 479 c 0,12,13
 251 479 251 479 269 487 c 0,14,15
 286 494 286 494 298 507 c 0,16,17
 309 518 309 518 317 536 c 0,18,19
 324 551 324 551 324 572 c 128,-1,20
 324 593 324 593 317 608 c 0,21,22
 309 626 309 626 298 638 c 0,23,24
 282 652 282 652 269 658 c 0,25,26
 254 665 254 665 233 665 c 0,27,28
 213 665 213 665 198 658 c 0,29,30
 182 650 182 650 169 638 c 0,31,32
 157 626 157 626 149 608 c 0,33,4
 142 593 142 593 142 572 c 128,-1,5
52 572 m 0,34,35
 52 609 52 609 67 642 c 0,36,37
 80 674 80 674 106 699 c 0,38,39
 131 724 131 724 163 737 c 0,40,41
 197 751 197 751 233 751 c 128,-1,42
 269 751 269 751 303 737 c 0,43,44
 334 724 334 724 361 699 c 0,45,46
 385 674 385 674 400 642 c 0,47,48
 414 608 414 608 414 572 c 128,-1,49
 414 536 414 536 400 503 c 0,50,51
 385 470 385 470 361 446 c 0,52,53
 335 420 335 420 303 407 c 0,54,55
 269 393 269 393 233 393 c 128,-1,56
 197 393 197 393 163 407 c 0,57,58
 130 420 130 420 106 446 c 0,59,60
 80 470 80 470 67 503 c 0,61,62
 52 534 52 534 52 572 c 0,34,35
422 166 m 0,63,64
 422 203 422 203 437 236 c 0,65,66
 450 268 450 268 476 293 c 0,67,68
 501 318 501 318 533 331 c 0,69,70
 567 345 567 345 603 345 c 128,-1,71
 639 345 639 345 673 331 c 0,72,73
 704 318 704 318 731 293 c 0,74,75
 755 268 755 268 770 236 c 0,76,77
 784 202 784 202 784 166 c 128,-1,78
 784 130 784 130 770 97 c 0,79,80
 755 64 755 64 731 40 c 0,81,82
 705 14 705 14 673 1 c 0,83,84
 639 -13 639 -13 603 -13 c 128,-1,85
 567 -13 567 -13 533 1 c 0,86,87
 500 14 500 14 476 40 c 0,88,89
 450 64 450 64 437 97 c 0,90,91
 422 128 422 128 422 166 c 0,63,64
512 166 m 128,-1,93
 512 145 512 145 519 130 c 0,94,95
 528 111 528 111 539 101 c 0,96,97
 549 90 549 90 568 81 c 0,98,99
 586 73 586 73 603 73 c 0,100,101
 621 73 621 73 639 81 c 0,102,103
 656 89 656 89 668 101 c 0,104,105
 679 112 679 112 687 130 c 0,106,107
 694 145 694 145 694 166 c 128,-1,108
 694 187 694 187 687 202 c 0,109,110
 679 220 679 220 668 232 c 0,111,112
 652 246 652 246 639 252 c 0,113,114
 624 259 624 259 603 259 c 0,115,116
 583 259 583 259 568 252 c 0,117,118
 552 245 552 245 539 232 c 0,119,120
 527 220 527 220 519 202 c 0,121,92
 512 187 512 187 512 166 c 128,-1,93
EndSplineSet
EndChar

StartChar: ampersand
Encoding: 38 38 6
Width: 684
GlyphClass: 2
Flags: W
LayerCount: 2
Fore
SplineSet
403 191 m 1,0,-1
 247 345 l 1,1,2
 232 340 232 340 214 330 c 0,3,4
 194 320 194 320 179 304 c 0,5,6
 164 289 164 289 153 264 c 128,-1,7
 142 239 142 239 142 207 c 0,8,9
 142 186 142 186 150 162 c 0,10,11
 158 139 158 139 172 123 c 0,12,13
 187 106 187 106 209 96 c 0,14,15
 233 85 233 85 260 85 c 0,16,17
 293 85 293 85 318 98 c 0,18,19
 344 112 344 112 360 129 c 0,20,21
 379 150 379 150 388 165 c 128,-1,22
 397 180 397 180 403 191 c 1,0,-1
276 460 m 1,23,24
 317 482 317 482 343 505 c 0,25,26
 368 527 368 527 368 569 c 0,27,28
 368 593 368 593 361 608 c 128,-1,29
 354 623 354 623 342 635 c 0,30,31
 330 646 330 646 317 650 c 0,32,33
 302 655 302 655 291 655 c 0,34,35
 278 655 278 655 263 650 c 0,36,37
 249 644 249 644 238 633 c 0,38,39
 228 622 228 622 220 604 c 0,40,41
 213 589 213 589 213 565 c 0,42,43
 213 554 213 554 216 543 c 0,44,45
 218 531 218 531 225 519 c 0,46,47
 234 503 234 503 245 492 c 0,48,49
 262 473 262 473 276 460 c 1,23,24
648 455 m 1,50,-1
 527 211 l 1,51,-1
 676 59 l 1,52,-1
 604 -14 l 1,53,-1
 475 116 l 1,54,55
 471 110 471 110 449 80 c 0,56,57
 435 61 435 61 406 37 c 0,58,59
 379 16 379 16 343 1 c 128,-1,60
 307 -14 307 -14 260 -14 c 128,-1,61
 213 -14 213 -14 171 3 c 0,62,63
 131 20 131 20 100 50 c 0,64,65
 68 80 68 80 52 120 c 0,66,67
 34 160 34 160 34 207 c 0,68,69
 34 238 34 238 43 270 c 0,70,71
 50 299 50 299 69 329 c 0,72,73
 86 356 86 356 113 379 c 256,74,75
 140 402 140 402 176 418 c 1,76,-1
 149 448 l 2,77,78
 138 460 138 460 126 481 c 0,79,80
 116 497 116 497 111 519 c 0,81,82
 105 539 105 539 105 565 c 0,83,84
 105 606 105 606 120 641 c 0,85,86
 133 674 133 674 160 701 c 0,87,88
 186 727 186 727 219 740 c 0,89,90
 255 754 255 754 292 754 c 0,91,92
 328 754 328 754 362 740 c 0,93,94
 395 727 395 727 421 702 c 0,95,96
 446 677 446 677 461 643 c 0,97,98
 476 608 476 608 476 566 c 0,99,100
 476 546 476 546 471 519 c 0,101,102
 465 496 465 496 451 472 c 0,103,104
 436 448 436 448 412 427 c 128,-1,105
 388 406 388 406 352 388 c 1,106,-1
 450 292 l 1,107,-1
 531 455 l 1,108,-1
 648 455 l 1,50,-1
EndSplineSet
EndChar

StartChar: quotesingle
Encoding: 39 39 7
Width: 218
GlyphClass: 2
Flags: W
LayerCount: 2
Fore
SplineSet
144 444 m 1,0,-1
 74 444 l 1,1,-1
 54 740 l 1,2,-1
 164 740 l 1,3,-1
 144 444 l 1,0,-1
EndSplineSet
EndChar

StartChar: parenleft
Encoding: 40 40 8
Width: 407
GlyphClass: 2
Flags: W
LayerCount: 2
Fore
SplineSet
357 -127 m 1,0,-1
 357 -257 l 1,1,2
 307 -232 307 -232 256 -187 c 0,3,4
 203 -142 203 -142 158 -77 c 128,-1,5
 113 -12 113 -12 84 71 c 0,6,7
 55 155 55 155 55 253 c 0,8,9
 55 331 55 331 78 409 c 0,10,11
 101 488 101 488 140 551 c 0,12,13
 182 619 182 619 234 670 c 0,14,15
 287 721 287 721 351 755 c 1,16,-1
 351 626 l 1,17,18
 322 600 322 600 290 568 c 0,19,20
 259 537 259 537 229 491 c 0,21,22
 199 444 199 444 182 388 c 0,23,24
 163 331 163 331 163 254 c 0,25,26
 163 168 163 168 185 108 c 0,27,28
 206 45 206 45 236 0 c 0,29,30
 265 -45 265 -45 300 -77 c 0,31,32
 326 -102 326 -102 357 -127 c 1,0,-1
EndSplineSet
EndChar

StartChar: parenright
Encoding: 41 41 9
Width: 407
GlyphClass: 2
Flags: W
LayerCount: 2
Fore
SplineSet
50 625 m 1,0,-1
 50 755 l 1,1,2
 101 729 101 729 153 684 c 0,3,4
 208 635 208 635 250 573 c 0,5,6
 296 505 296 505 323 426 c 0,7,8
 352 342 352 342 352 245 c 0,9,10
 352 164 352 164 330 89 c 0,11,12
 308 13 308 13 267 -53 c 0,13,14
 227 -119 227 -119 173 -171 c 0,15,16
 118 -225 118 -225 56 -257 c 1,17,-1
 56 -128 l 1,18,19
 84 -102 84 -102 117 -70 c 0,20,21
 150 -36 150 -36 179 7 c 0,22,23
 205 47 205 47 226 109 c 0,24,25
 244 168 244 168 244 244 c 0,26,27
 244 327 244 327 223 390 c 0,28,29
 202 452 202 452 172 498 c 0,30,31
 142 543 142 543 108 575 c 0,32,33
 58 619 58 619 50 625 c 1,0,-1
EndSplineSet
EndChar

StartChar: asterisk
Encoding: 42 42 10
Width: 573
GlyphClass: 2
Flags: W
LayerCount: 2
Fore
SplineSet
254 596 m 1,0,-1
 253 740 l 1,1,-1
 323 740 l 1,2,-1
 320 596 l 1,3,-1
 456 642 l 1,4,-1
 478 576 l 1,5,-1
 340 533 l 1,6,-1
 427 418 l 1,7,-1
 370 377 l 1,8,-1
 287 495 l 1,9,-1
 204 377 l 1,10,-1
 147 418 l 1,11,-1
 234 533 l 1,12,-1
 96 576 l 1,13,-1
 118 642 l 1,14,-1
 254 596 l 1,0,-1
EndSplineSet
EndChar

StartChar: plus
Encoding: 43 43 11
Width: 600
GlyphClass: 2
Flags: W
LayerCount: 2
Fore
SplineSet
248 305 m 1,0,-1
 248 506 l 1,1,-1
 352 506 l 1,2,-1
 352 305 l 1,3,-1
 552 305 l 1,4,-1
 552 201 l 1,5,-1
 352 201 l 1,6,-1
 352 0 l 1,7,-1
 248 0 l 1,8,-1
 248 201 l 1,9,-1
 48 201 l 1,10,-1
 48 305 l 1,11,-1
 248 305 l 1,0,-1
EndSplineSet
EndChar

StartChar: comma
Encoding: 44 44 12
Width: 208
GlyphClass: 2
Flags: W
LayerCount: 2
Fore
SplineSet
109 0 m 1,0,-1
 50 0 l 1,1,-1
 50 133 l 1,2,-1
 183 133 l 1,3,-1
 183 -8 l 2,4,5
 183 -79 183 -79 143 -110 c 128,-1,6
 103 -141 103 -141 54 -141 c 2,7,-1
 51 -141 l 1,8,-1
 51 -74 l 1,9,10
 56 -73 56 -73 65 -70.5 c 128,-1,11
 74 -68 74 -68 78 -67 c 0,12,13
 88 -64 88 -64 98 -51 c 0,14,15
 109 -37 109 -37 109 -17 c 2,16,-1
 109 0 l 1,0,-1
EndSplineSet
EndChar

StartChar: hyphen
Encoding: 45 45 13
Width: 353
GlyphClass: 2
Flags: W
LayerCount: 2
Fore
SplineSet
328 230 m 1,0,-1
 50 230 l 1,1,-1
 50 348 l 1,2,-1
 328 348 l 1,3,-1
 328 230 l 1,0,-1
EndSplineSet
EndChar

StartChar: period
Encoding: 46 46 14
Width: 208
GlyphClass: 2
Flags: W
LayerCount: 2
Fore
SplineSet
183 0 m 1,0,-1
 50 0 l 1,1,-1
 50 133 l 1,2,-1
 183 133 l 1,3,-1
 183 0 l 1,0,-1
EndSplineSet
EndChar

StartChar: slash
Encoding: 47 47 15
Width: 499
GlyphClass: 2
Flags: W
LayerCount: 2
Fore
SplineSet
155 -100 m 1,0,-1
 41 -100 l 1,1,-1
 329 740 l 1,2,-1
 443 740 l 1,3,-1
 155 -100 l 1,0,-1
EndSplineSet
EndChar

StartChar: zero
Encoding: 48 48 16
Width: 537
GlyphClass: 2
Flags: W
LayerCount: 2
Fore
SplineSet
537 506 m 2,0,-1
 537 233 l 2,1,2
 537 118 537 118 465 52 c 0,3,4
 392 -15 392 -15 289 -15 c 0,5,6
 182 -15 182 -15 101 66 c 0,7,8
 40 127 40 127 40 240 c 2,9,-1
 40 506 l 2,10,11
 40 568 40 568 63 619 c 128,-1,12
 86 670 86 670 122 697 c 0,13,14
 158 725 158 725 203 740 c 0,15,16
 246 755 246 755 293 755 c 0,17,18
 387 755 387 755 462 689 c 128,-1,19
 537 623 537 623 537 506 c 2,0,-1
404 245 m 2,20,-1
 404 505 l 2,21,22
 404 560 404 560 371 594 c 0,23,24
 336 629 336 629 290 629 c 0,25,26
 240 629 240 629 207 595 c 0,27,28
 173 561 173 561 173 500 c 2,29,-1
 173 248 l 2,30,31
 173 174 173 174 209 142 c 0,32,33
 244 111 244 111 289 111 c 0,34,35
 304 111 304 111 324 116 c 0,36,37
 342 121 342 121 361 134 c 128,-1,38
 380 147 380 147 392 176 c 0,39,40
 404 204 404 204 404 245 c 2,20,-1
EndSplineSet
EndChar

StartChar: one
Encoding: 49 49 17
Width: 316
GlyphClass: 2
Flags: W
LayerCount: 2
Fore
SplineSet
286 0 m 1,0,-1
 153 0 l 1,1,-1
 153 614 l 1,2,-1
 60 614 l 1,3,-1
 60 740 l 1,4,-1
 286 740 l 1,5,-1
 286 0 l 1,0,-1
EndSplineSet
EndChar

StartChar: two
Encoding: 50 50 18
Width: 527
GlyphClass: 2
Flags: W
LayerCount: 2
Fore
SplineSet
527 0 m 1,0,-1
 48 0 l 1,1,-1
 48 126 l 1,2,-1
 312 372 l 2,3,4
 394 448 394 448 394 518 c 0,5,6
 394 572 394 572 361 601 c 0,7,8
 329 629 329 629 286 629 c 0,9,10
 220 629 220 629 187 569 c 0,11,12
 173 541 173 541 173 486 c 1,13,-1
 41 486 l 1,14,15
 40 493 40 493 40 510 c 0,16,17
 40 606 40 606 107 680 c 0,18,19
 175 755 175 755 283 755 c 0,20,21
 392 755 392 755 459 682 c 0,22,23
 527 608 527 608 527 512 c 0,24,25
 527 449 527 449 496 391 c 0,26,27
 464 329 464 329 384 260 c 2,28,-1
 234 126 l 1,29,-1
 527 126 l 1,30,-1
 527 0 l 1,0,-1
EndSplineSet
EndChar

StartChar: three
Encoding: 51 51 19
Width: 544
GlyphClass: 2
Flags: W
LayerCount: 2
Fore
SplineSet
264 354 m 2,0,-1
 242 354 l 1,1,-1
 242 480 l 1,2,-1
 265 480 l 2,3,4
 303 480 303 480 331 500 c 0,5,6
 358 520 358 520 358 559 c 0,7,8
 358 597 358 597 339 613 c 128,-1,9
 320 629 320 629 292 629 c 0,10,11
 260 629 260 629 244 607 c 128,-1,12
 228 585 228 585 226 561 c 1,13,-1
 93 561 l 1,14,15
 98 611 98 611 115 647 c 0,16,17
 133 685 133 685 155 704 c 0,18,19
 176 722 176 722 205 736 c 0,20,21
 231 747 231 747 253 752 c 0,22,23
 272 755 272 755 290 755 c 0,24,25
 374 755 374 755 433 695 c 0,26,27
 491 636 491 636 491 555 c 0,28,29
 491 470 491 470 427 424 c 1,30,31
 467 408 467 408 495 378 c 0,32,33
 521 349 521 349 530 316 c 0,34,35
 539 282 539 282 542 267 c 0,36,37
 544 245 544 245 544 233 c 0,38,39
 544 123 544 123 468 54 c 128,-1,40
 392 -15 392 -15 290 -15 c 0,41,42
 228 -15 228 -15 173 13 c 128,-1,43
 118 41 118 41 81 96 c 0,44,45
 45 150 45 150 40 223 c 1,46,-1
 173 223 l 1,47,48
 177 169 177 169 216 140 c 0,49,50
 254 111 254 111 293 111 c 0,51,52
 338 111 338 111 375 145 c 0,53,54
 411 180 411 180 411 231 c 128,-1,55
 411 282 411 282 375 318 c 128,-1,56
 339 354 339 354 264 354 c 2,0,-1
EndSplineSet
EndChar

StartChar: four
Encoding: 52 52 20
Width: 570
GlyphClass: 2
Flags: W
LayerCount: 2
Fore
SplineSet
40 111 m 1,0,-1
 40 220 l 1,1,-1
 380 740 l 1,2,-1
 492 740 l 1,3,-1
 492 237 l 1,4,-1
 570 237 l 1,5,-1
 570 111 l 1,6,-1
 492 111 l 1,7,-1
 492 0 l 1,8,-1
 359 0 l 1,9,-1
 359 111 l 1,10,-1
 40 111 l 1,0,-1
357 515 m 1,11,-1
 183 237 l 1,12,-1
 359 237 l 1,13,-1
 359 515 l 1,14,-1
 357 515 l 1,11,-1
EndSplineSet
EndChar

StartChar: five
Encoding: 53 53 21
Width: 550
GlyphClass: 2
Flags: W
LayerCount: 2
Fore
SplineSet
192 320 m 1,0,-1
 73 353 l 1,1,-1
 143 740 l 1,2,-1
 478 740 l 1,3,-1
 478 614 l 1,4,-1
 243 614 l 1,5,-1
 219 478 l 1,6,7
 265 499 265 499 314 499 c 0,8,9
 415 499 415 499 483 422 c 0,10,11
 550 346 550 346 550 243 c 0,12,13
 550 138 550 138 477 62 c 0,14,15
 403 -15 403 -15 293 -15 c 0,16,17
 193 -15 193 -15 119 55 c 0,18,19
 45 124 45 124 40 220 c 1,20,-1
 173 220 l 1,21,22
 183 163 183 163 218 137 c 128,-1,23
 253 111 253 111 290 111 c 0,24,25
 348 111 348 111 383 152 c 0,26,27
 417 192 417 192 417 243 c 0,28,29
 417 292 417 292 382 333 c 0,30,31
 348 373 348 373 292 373 c 128,-1,32
 236 373 236 373 192 320 c 1,0,-1
EndSplineSet
EndChar

StartChar: six
Encoding: 54 54 22
Width: 553
GlyphClass: 2
Flags: W
LayerCount: 2
Fore
SplineSet
100 425 m 2,0,-1
 306 739 l 1,1,-1
 462 739 l 1,2,-1
 298 489 l 1,3,4
 308 492 308 492 334 492 c 0,5,6
 420 490 420 490 486 424 c 0,7,8
 553 357 553 357 553 251 c 0,9,10
 553 136 553 136 477 61 c 0,11,12
 401 -15 401 -15 297 -15 c 0,13,14
 194 -15 194 -15 117 59 c 128,-1,15
 40 133 40 133 40 250 c 0,16,17
 40 294 40 294 57 342 c 0,18,19
 78 393 78 393 100 425 c 2,0,-1
173 244 m 0,20,21
 173 189 173 189 209 150 c 0,22,23
 244 111 244 111 297 111 c 0,24,25
 353 111 353 111 387 151 c 0,26,27
 420 191 420 191 420 239 c 0,28,29
 420 294 420 294 384 331 c 0,30,31
 346 369 346 369 294 369 c 0,32,33
 239 369 239 369 206 330 c 0,34,35
 173 290 173 290 173 244 c 0,20,21
EndSplineSet
EndChar

StartChar: seven
Encoding: 55 55 23
Width: 476
GlyphClass: 2
Flags: W
LayerCount: 2
Fore
SplineSet
209 0 m 1,0,-1
 61 0 l 1,1,-1
 337 614 l 1,2,-1
 40 614 l 1,3,-1
 40 740 l 1,4,-1
 476 740 l 1,5,-1
 476 614 l 1,6,-1
 209 0 l 1,0,-1
EndSplineSet
EndChar

StartChar: eight
Encoding: 56 56 24
Width: 534
GlyphClass: 2
Flags: W
LayerCount: 2
Fore
SplineSet
150 411 m 1,0,1
 84 477 84 477 84 551 c 0,2,3
 84 631 84 631 140 693 c 128,-1,4
 196 755 196 755 287 755 c 0,5,6
 379 755 379 755 435 693 c 128,-1,7
 491 631 491 631 491 551 c 0,8,9
 491 516 491 516 478 486 c 0,10,11
 465 455 465 455 454 443 c 0,12,13
 447 434 447 434 424 411 c 1,14,15
 534 352 534 352 534 225 c 0,16,17
 534 124 534 124 460 55 c 0,18,19
 387 -15 387 -15 287 -15 c 128,-1,20
 187 -15 187 -15 114 55 c 0,21,22
 40 124 40 124 40 225 c 0,23,24
 40 352 40 352 150 411 c 1,0,1
366 549 m 128,-1,26
 366 581 366 581 343 606 c 0,27,28
 320 629 320 629 287 629 c 0,29,30
 255 629 255 629 232 606 c 0,31,32
 209 581 209 581 209 549 c 128,-1,33
 209 517 209 517 232 494 c 0,34,35
 255 470 255 470 287 470 c 0,36,37
 320 470 320 470 343 494 c 0,38,25
 366 517 366 517 366 549 c 128,-1,26
368 145 m 0,39,40
 401 178 401 178 401 225 c 256,41,42
 401 272 401 272 368 306 c 0,43,44
 334 339 334 339 287 339 c 256,45,46
 240 339 240 339 207 306 c 0,47,48
 173 272 173 272 173 225 c 128,-1,49
 173 178 173 178 207 145 c 0,50,51
 240 111 240 111 287 111 c 128,-1,52
 334 111 334 111 368 145 c 0,39,40
EndSplineSet
EndChar

StartChar: nine
Encoding: 57 57 25
Width: 553
GlyphClass: 2
Flags: W
LayerCount: 2
Fore
SplineSet
493 314 m 2,0,-1
 287 0 l 1,1,-1
 131 0 l 1,2,-1
 295 250 l 1,3,4
 284 247 284 247 259 247 c 0,5,6
 174 249 174 249 108 315 c 0,7,8
 40 383 40 383 40 488 c 0,9,10
 40 603 40 603 116 679 c 0,11,12
 192 754 192 754 296 754 c 256,13,14
 400 754 400 754 477 680 c 0,15,16
 553 607 553 607 553 489 c 0,17,18
 553 445 553 445 536 397 c 0,19,20
 515 346 515 346 493 314 c 2,0,-1
420 495 m 0,21,22
 420 549 420 549 385 589 c 0,23,24
 349 628 349 628 297 628 c 0,25,26
 240 628 240 628 207 588 c 0,27,28
 173 548 173 548 173 500 c 0,29,30
 173 444 173 444 208 407 c 0,31,32
 242 370 242 370 297 370 c 0,33,34
 353 370 353 370 387 410 c 0,35,36
 420 449 420 449 420 495 c 0,21,22
EndSplineSet
EndChar

StartChar: colon
Encoding: 58 58 26
Width: 208
GlyphClass: 2
Flags: W
LayerCount: 2
Fore
SplineSet
183 0 m 1,0,-1
 50 0 l 1,1,-1
 50 133 l 1,2,-1
 183 133 l 1,3,-1
 183 0 l 1,0,-1
183 422 m 1,4,-1
 50 422 l 1,5,-1
 50 555 l 1,6,-1
 183 555 l 1,7,-1
 183 422 l 1,4,-1
EndSplineSet
EndChar

StartChar: semicolon
Encoding: 59 59 27
Width: 208
GlyphClass: 2
Flags: W
LayerCount: 2
Fore
SplineSet
109 0 m 1,0,-1
 50 0 l 1,1,-1
 50 133 l 1,2,-1
 183 133 l 1,3,-1
 183 -8 l 2,4,5
 183 -79 183 -79 143 -110 c 128,-1,6
 103 -141 103 -141 54 -141 c 2,7,-1
 51 -141 l 1,8,-1
 51 -74 l 1,9,10
 56 -73 56 -73 65 -70.5 c 128,-1,11
 74 -68 74 -68 78 -67 c 0,12,13
 88 -64 88 -64 98 -51 c 0,14,15
 109 -37 109 -37 109 -17 c 2,16,-1
 109 0 l 1,0,-1
183 422 m 1,17,-1
 50 422 l 1,18,-1
 50 555 l 1,19,-1
 183 555 l 1,20,-1
 183 422 l 1,17,-1
EndSplineSet
EndChar

StartChar: less
Encoding: 60 60 28
Width: 583
GlyphClass: 2
Flags: W
LayerCount: 2
Fore
SplineSet
206 253 m 1,0,-1
 558 107 l 1,1,-1
 558 -8 l 1,2,-1
 50 206 l 1,3,-1
 50 300 l 1,4,-1
 558 514 l 1,5,-1
 558 399 l 1,6,-1
 206 253 l 1,0,-1
EndSplineSet
EndChar

StartChar: equal
Encoding: 61 61 29
Width: 579
GlyphClass: 2
Flags: W
LayerCount: 2
Fore
SplineSet
50 425 m 1,0,-1
 554 425 l 1,1,-1
 554 305 l 1,2,-1
 50 305 l 1,3,-1
 50 425 l 1,0,-1
50 201 m 1,4,-1
 554 201 l 1,5,-1
 554 81 l 1,6,-1
 50 81 l 1,7,-1
 50 201 l 1,4,-1
EndSplineSet
EndChar

StartChar: greater
Encoding: 62 62 30
Width: 583
GlyphClass: 2
Flags: W
LayerCount: 2
Fore
SplineSet
50 -8 m 1,0,-1
 50 107 l 1,1,-1
 402 253 l 1,2,-1
 50 399 l 1,3,-1
 50 514 l 1,4,-1
 558 300 l 1,5,-1
 558 206 l 1,6,-1
 50 -8 l 1,0,-1
EndSplineSet
EndChar

StartChar: question
Encoding: 63 63 31
Width: 518
GlyphClass: 2
Flags: W
LayerCount: 2
Fore
SplineSet
303 122 m 1,0,-1
 303 0 l 1,1,-1
 199 0 l 1,2,-1
 199 122 l 1,3,-1
 303 122 l 1,0,-1
303 190 m 1,4,-1
 199 190 l 1,5,6
 200 232 200 232 211 267 c 0,7,8
 222 304 222 304 237 328 c 0,9,10
 252 355 252 355 270 376 c 0,11,12
 286 396 286 396 303 412 c 0,13,14
 309 418 309 418 320.5 430.5 c 128,-1,15
 332 443 332 443 337 448 c 0,16,17
 347 458 347 458 359 474 c 0,18,19
 366 486 366 486 371 498 c 0,20,21
 374 510 374 510 374 526 c 0,22,23
 374 552 374 552 365 575 c 0,24,25
 354 599 354 599 339 614 c 128,-1,26
 324 629 324 629 302 640 c 0,27,28
 279 649 279 649 256 649 c 0,29,30
 236 649 236 649 219 643 c 0,31,32
 206 638 206 638 191 629 c 0,33,34
 179 621 179 621 171 612 c 0,35,36
 158 597 158 597 157 595 c 0,37,38
 146 578 146 578 142 564 c 0,39,40
 138 549 138 549 136 529 c 1,41,-1
 32 529 l 1,42,43
 35 593 35 593 59 636 c 0,44,45
 82 680 82 680 116 705 c 0,46,47
 150 731 150 731 187 743 c 0,48,49
 226 754 226 754 257 754 c 0,50,51
 308 754 308 754 347 735 c 0,52,53
 388 716 388 716 416 684 c 0,54,55
 446 650 446 650 462 612 c 0,56,57
 478 573 478 573 478 530 c 0,58,59
 478 492 478 492 471 468 c 0,60,61
 463 441 463 441 450 422 c 0,62,63
 434 399 434 399 421 386 c 0,64,65
 400 365 400 365 389 355 c 0,66,67
 362 331 362 331 346 309 c 0,68,69
 330 286 330 286 322 267 c 0,70,71
 313 248 313 248 310 228 c 0,72,73
 307 213 307 213 303 190 c 1,4,-1
EndSplineSet
EndChar

StartChar: at
Encoding: 64 64 32
Width: 760
GlyphClass: 2
Flags: W
LayerCount: 2
Fore
SplineSet
481 394 m 0,0,1
 481 446 481 446 452 466 c 128,-1,2
 423 486 423 486 382 486 c 0,3,4
 358 486 358 486 337 476 c 128,-1,5
 316 466 316 466 299 446 c 128,-1,6
 282 426 282 426 272 400 c 0,7,8
 262 373 262 373 262 338 c 0,9,10
 262 290 262 290 286 261 c 128,-1,11
 310 232 310 232 349 232 c 0,12,13
 381 232 381 232 406 245 c 0,14,15
 432 257 432 257 448 279 c 128,-1,16
 464 301 464 301 473 331 c 0,17,18
 481 361 481 361 481 394 c 0,0,1
513 548 m 1,19,-1
 587 548 l 1,20,-1
 545 317 l 2,21,22
 540 294 540 294 539 281 c 0,23,24
 537 263 537 263 537 258 c 0,25,26
 540 232 540 232 562 232 c 0,27,28
 613 232 613 232 638 284 c 0,29,30
 665 337 665 337 669 423 c 0,31,32
 669 483 669 483 649 531 c 0,33,34
 628 578 628 578 592 611 c 0,35,36
 554 644 554 644 506 660 c 0,37,38
 455 677 455 677 398 677 c 0,39,40
 327 677 327 677 270 653 c 0,41,42
 212 627 212 627 174 586 c 0,43,44
 135 545 135 545 113 488 c 0,45,46
 91 434 91 434 91 369 c 0,47,48
 91 338 91 338 97 304 c 0,49,50
 103 272 103 272 117 235 c 0,51,52
 128 206 128 206 154 170 c 0,53,54
 177 137 177 137 213 115 c 0,55,56
 249 90 249 90 297 77 c 0,57,58
 347 63 347 63 409 63 c 0,59,60
 454 63 454 63 492 69 c 0,61,62
 526 73 526 73 559 83 c 0,63,64
 585 91 585 91 611 103 c 128,-1,65
 637 115 637 115 647 123 c 1,66,-1
 686 62 l 1,67,68
 613 20 613 20 542 3 c 0,69,70
 477 -13 477 -13 409 -13 c 0,71,72
 303 -13 303 -13 225 22 c 128,-1,73
 147 57 147 57 102 111 c 0,74,75
 54 166 54 166 33 234 c 0,76,77
 11 300 11 300 11 370 c 0,78,79
 14 454 14 454 44 525 c 0,80,81
 74 595 74 595 125 644 c 0,82,83
 176 694 176 694 246 722 c 0,84,85
 314 750 314 750 397 753 c 0,86,87
 474 753 474 753 537 731 c 0,88,89
 601 709 601 709 648 666 c 0,90,91
 696 621 696 621 722 562 c 0,92,93
 749 500 749 500 749 424 c 0,94,95
 749 372 749 372 735 321 c 0,96,97
 721 274 721 274 694 236 c 0,98,99
 670 200 670 200 633 178 c 0,100,101
 599 156 599 156 558 156 c 0,102,103
 548 156 548 156 535 159 c 128,-1,104
 522 162 522 162 509 169 c 0,105,106
 497 174 497 174 486 187 c 0,107,108
 476 197 476 197 473 216 c 1,109,-1
 471 216 l 1,110,111
 456 194 456 194 437 183 c 0,112,113
 417 171 417 171 400 165 c 0,114,115
 382 160 382 160 365 158 c 0,116,117
 343 156 343 156 338 156 c 0,118,119
 304 156 304 156 277 169 c 0,120,121
 248 181 248 181 227 205 c 0,122,123
 206 228 206 228 194 262 c 0,124,125
 182 295 182 295 182 336 c 0,126,127
 182 378 182 378 196 420 c 0,128,129
 209 458 209 458 236 492 c 0,130,131
 262 524 262 524 297 543 c 128,-1,132
 332 562 332 562 377 562 c 0,133,134
 412 562 412 562 435 553 c 0,135,136
 456 545 456 545 471 533 c 0,137,138
 484 522 484 522 492 510 c 0,139,140
 499 496 499 496 501 493 c 2,141,-1
 503 493 l 1,142,-1
 513 548 l 1,19,-1
EndSplineSet
EndChar

StartChar: A
Encoding: 65 65 33
Width: 683
GlyphClass: 2
Flags: W
LayerCount: 2
Fore
SplineSet
671 0 m 1,0,-1
 556 0 l 1,1,-1
 474 218 l 1,2,-1
 208 218 l 1,3,-1
 126 0 l 1,4,-1
 12 0 l 1,5,-1
 293 740 l 1,6,-1
 390 740 l 1,7,-1
 671 0 l 1,0,-1
246 317 m 1,8,-1
 437 317 l 1,9,-1
 343 600 l 1,10,-1
 341 600 l 1,11,-1
 246 317 l 1,8,-1
EndSplineSet
Position2: "'cpsp' Capital Spacing lookup 0 subtable" dx=5 dy=0 dh=10 dv=0
EndChar

StartChar: B
Encoding: 66 66 34
Width: 580
GlyphClass: 2
Flags: W
LayerCount: 2
Fore
SplineSet
75 0 m 1,0,-1
 75 740 l 1,1,-1
 267 740 l 2,2,3
 326 740 326 740 370.5 723 c 128,-1,4
 415 706 415 706 438.5 683 c 128,-1,5
 462 660 462 660 476.5 629 c 128,-1,6
 491 598 491 598 494.5 576.5 c 128,-1,7
 498 555 498 555 498 535 c 0,8,9
 498 497 498 497 484.5 466 c 128,-1,10
 471 435 471 435 461 423.5 c 128,-1,11
 451 412 451 412 432 395 c 1,12,13
 542 331 542 331 542 215 c 0,14,15
 542 189 542 189 536 163 c 128,-1,16
 530 137 530 137 513.5 106.5 c 128,-1,17
 497 76 497 76 470.5 53.5 c 128,-1,18
 444 31 444 31 399 15.5 c 128,-1,19
 354 0 354 0 296 0 c 2,20,-1
 75 0 l 1,0,-1
183 333 m 1,21,-1
 183 99 l 1,22,-1
 300 99 l 2,23,24
 338 99 338 99 366.5 111.5 c 128,-1,25
 395 124 395 124 408.5 143.5 c 128,-1,26
 422 163 422 163 428 181 c 128,-1,27
 434 199 434 199 434 215 c 0,28,29
 434 253 434 253 408 288 c 0,30,31
 393 308 393 308 369 319 c 128,-1,32
 345 330 345 330 328.5 331.5 c 128,-1,33
 312 333 312 333 287 333 c 2,34,-1
 183 333 l 1,21,-1
183 641 m 1,35,-1
 183 432 l 1,36,-1
 271 432 l 2,37,38
 390 432 390 432 390 536 c 0,39,40
 390 641 390 641 265 641 c 2,41,-1
 183 641 l 1,35,-1
EndSplineSet
Position2: "'cpsp' Capital Spacing lookup 0 subtable" dx=5 dy=0 dh=10 dv=0
EndChar

StartChar: C
Encoding: 67 67 35
Width: 782
GlyphClass: 2
Flags: W
LayerCount: 2
Fore
SplineSet
759 551 m 1,0,-1
 629 551 l 1,1,2
 537 655 537 655 421 655 c 0,3,4
 306 655 306 655 226 572 c 128,-1,5
 146 489 146 489 146 372 c 0,6,7
 146 254 146 254 228 169.5 c 128,-1,8
 310 85 310 85 419 85 c 0,9,10
 538 85 538 85 621 183 c 1,11,-1
 754 183 l 1,12,13
 696 81 696 81 605.5 33.5 c 128,-1,14
 515 -14 515 -14 418 -14 c 0,15,16
 261 -14 261 -14 149.5 100.5 c 128,-1,17
 38 215 38 215 38 373 c 0,18,19
 38 533 38 533 150 643.5 c 128,-1,20
 262 754 262 754 419 754 c 0,21,22
 546 754 546 754 645 682 c 0,23,24
 711 635 711 635 759 551 c 1,0,-1
EndSplineSet
Position2: "'cpsp' Capital Spacing lookup 0 subtable" dx=5 dy=0 dh=10 dv=0
EndChar

StartChar: D
Encoding: 68 68 36
Width: 738
GlyphClass: 2
Flags: W
LayerCount: 2
Fore
SplineSet
75 0 m 1,0,-1
 75 740 l 1,1,-1
 315 740 l 2,2,3
 518 740 518 740 617 604 c 0,4,5
 693 496 693 496 693 368 c 0,6,7
 693 293 693 293 667.5 219.5 c 128,-1,8
 642 146 642 146 600 107 c 0,9,10
 492 0 492 0 311 0 c 2,11,-1
 75 0 l 1,0,-1
183 641 m 1,12,-1
 183 99 l 1,13,-1
 312 99 l 2,14,15
 364 99 364 99 410 113 c 128,-1,16
 456 127 456 127 496.5 156.5 c 128,-1,17
 537 186 537 186 561 240.5 c 128,-1,18
 585 295 585 295 585 368 c 0,19,20
 585 413 585 413 570.5 458.5 c 128,-1,21
 556 504 556 504 526 546 c 128,-1,22
 496 588 496 588 441 614.5 c 128,-1,23
 386 641 386 641 314 641 c 2,24,-1
 183 641 l 1,12,-1
EndSplineSet
Position2: "'cpsp' Capital Spacing lookup 0 subtable" dx=5 dy=0 dh=10 dv=0
EndChar

StartChar: E
Encoding: 69 69 37
Width: 530
GlyphClass: 2
Flags: W
LayerCount: 2
Fore
SplineSet
474 0 m 1,0,-1
 75 0 l 1,1,-1
 75 740 l 1,2,-1
 474 740 l 1,3,-1
 474 641 l 1,4,-1
 183 641 l 1,5,-1
 183 423 l 1,6,-1
 474 423 l 1,7,-1
 474 324 l 1,8,-1
 183 324 l 1,9,-1
 183 99 l 1,10,-1
 474 99 l 1,11,-1
 474 0 l 1,0,-1
EndSplineSet
Position2: "'cpsp' Capital Spacing lookup 0 subtable" dx=5 dy=0 dh=10 dv=0
EndChar

StartChar: F
Encoding: 70 70 38
Width: 492
GlyphClass: 2
Flags: W
LayerCount: 2
Fore
SplineSet
183 0 m 1,0,-1
 75 0 l 1,1,-1
 75 740 l 1,2,-1
 449 740 l 1,3,-1
 449 641 l 1,4,-1
 183 641 l 1,5,-1
 183 419 l 1,6,-1
 449 419 l 1,7,-1
 449 320 l 1,8,-1
 183 320 l 1,9,-1
 183 0 l 1,0,-1
EndSplineSet
Position2: "'cpsp' Capital Spacing lookup 0 subtable" dx=5 dy=0 dh=10 dv=0
EndChar

StartChar: G
Encoding: 71 71 39
Width: 837
GlyphClass: 2
Flags: W
LayerCount: 2
Fore
SplineSet
748 554 m 1,0,-1
 622 554 l 1,1,2
 530 655 530 655 420 655 c 0,3,4
 305 655 305 655 225.5 570.5 c 128,-1,5
 146 486 146 486 146 368 c 0,6,7
 146 249 146 249 229.5 167 c 128,-1,8
 313 85 313 85 421 85 c 0,9,10
 434 85 434 85 449.5 86.5 c 128,-1,11
 465 88 465 88 499 98 c 128,-1,12
 533 108 533 108 562 125.5 c 128,-1,13
 591 143 591 143 623.5 180.5 c 128,-1,14
 656 218 656 218 676 269 c 1,15,-1
 331 269 l 1,16,-1
 331 368 l 1,17,-1
 799 368 l 1,18,19
 797 278 797 278 763 204 c 128,-1,20
 729 130 729 130 674 83.5 c 128,-1,21
 619 37 619 37 552.5 11.5 c 128,-1,22
 486 -14 486 -14 417 -14 c 0,23,24
 257 -14 257 -14 147.5 98.5 c 128,-1,25
 38 211 38 211 38 368 c 0,26,27
 38 528 38 528 147.5 641 c 128,-1,28
 257 754 257 754 416 754 c 0,29,30
 515 754 515 754 605.5 702 c 128,-1,31
 696 650 696 650 748 554 c 1,0,-1
EndSplineSet
Position2: "'cpsp' Capital Spacing lookup 0 subtable" dx=5 dy=0 dh=10 dv=0
EndChar

StartChar: H
Encoding: 72 72 40
Width: 671
GlyphClass: 2
Flags: W
LayerCount: 2
Fore
SplineSet
596 0 m 1,0,-1
 488 0 l 1,1,-1
 488 322 l 1,2,-1
 183 322 l 1,3,-1
 183 0 l 1,4,-1
 75 0 l 1,5,-1
 75 740 l 1,6,-1
 183 740 l 1,7,-1
 183 421 l 1,8,-1
 488 421 l 1,9,-1
 488 740 l 1,10,-1
 596 740 l 1,11,-1
 596 0 l 1,0,-1
EndSplineSet
Position2: "'cpsp' Capital Spacing lookup 0 subtable" dx=5 dy=0 dh=10 dv=0
EndChar

StartChar: I
Encoding: 73 73 41
Width: 258
GlyphClass: 2
Flags: W
LayerCount: 2
Fore
SplineSet
183 0 m 1,0,-1
 75 0 l 1,1,-1
 75 740 l 1,2,-1
 183 740 l 1,3,-1
 183 0 l 1,0,-1
EndSplineSet
Position2: "'cpsp' Capital Spacing lookup 0 subtable" dx=5 dy=0 dh=10 dv=0
EndChar

StartChar: J
Encoding: 74 74 42
Width: 483
GlyphClass: 2
Flags: W
LayerCount: 2
Fore
SplineSet
408 740 m 1,0,-1
 408 209 l 2,1,2
 408 148 408 148 390 104 c 0,3,4
 366 46 366 46 315.5 16 c 128,-1,5
 265 -14 265 -14 200 -14 c 0,6,7
 114 -14 114 -14 56 42 c 0,8,9
 6 91 6 91 0 170 c 1,10,-1
 111 170 l 1,11,12
 119 85 119 85 203 85 c 0,13,14
 233 85 233 85 257 101 c 128,-1,15
 281 117 281 117 292 148 c 0,16,17
 300 172 300 172 300 203 c 2,18,-1
 300 740 l 1,19,-1
 408 740 l 1,0,-1
EndSplineSet
Position2: "'cpsp' Capital Spacing lookup 0 subtable" dx=5 dy=0 dh=10 dv=0
EndChar

StartChar: K
Encoding: 75 75 43
Width: 611
GlyphClass: 2
Flags: W
LayerCount: 2
Fore
SplineSet
599 0 m 1,0,-1
 466 0 l 1,1,-1
 185 373 l 1,2,-1
 183 373 l 1,3,-1
 183 0 l 1,4,-1
 75 0 l 1,5,-1
 75 740 l 1,6,-1
 183 740 l 1,7,-1
 183 373 l 1,8,-1
 185 373 l 1,9,-1
 466 740 l 1,10,-1
 599 740 l 1,11,-1
 310 373 l 1,12,-1
 599 0 l 1,0,-1
EndSplineSet
Position2: "'cpsp' Capital Spacing lookup 0 subtable" dx=5 dy=0 dh=10 dv=0
EndChar

StartChar: L
Encoding: 76 76 44
Width: 450
GlyphClass: 2
Flags: W
LayerCount: 2
Fore
SplineSet
440 0 m 1,0,-1
 75 0 l 1,1,-1
 75 740 l 1,2,-1
 183 740 l 1,3,-1
 183 99 l 1,4,-1
 440 99 l 1,5,-1
 440 0 l 1,0,-1
EndSplineSet
Position2: "'cpsp' Capital Spacing lookup 0 subtable" dx=5 dy=0 dh=10 dv=0
EndChar

StartChar: M
Encoding: 77 77 45
Width: 935
GlyphClass: 2
Flags: W
LayerCount: 2
Fore
SplineSet
860 0 m 1,0,-1
 752 0 l 1,1,-1
 752 625 l 1,2,-1
 749 625 l 1,3,-1
 500 0 l 1,4,-1
 435 0 l 1,5,-1
 185 625 l 1,6,-1
 183 625 l 1,7,-1
 183 0 l 1,8,-1
 75 0 l 1,9,-1
 75 740 l 1,10,-1
 245 740 l 1,11,-1
 467 173 l 1,12,-1
 690 740 l 1,13,-1
 860 740 l 1,14,-1
 860 0 l 1,0,-1
EndSplineSet
Position2: "'cpsp' Capital Spacing lookup 0 subtable" dx=5 dy=0 dh=10 dv=0
EndChar

StartChar: N
Encoding: 78 78 46
Width: 738
GlyphClass: 2
Flags: W
LayerCount: 2
Fore
SplineSet
663 0 m 1,0,-1
 551 0 l 1,1,-1
 185 572 l 1,2,-1
 183 572 l 1,3,-1
 183 0 l 1,4,-1
 75 0 l 1,5,-1
 75 740 l 1,6,-1
 193 740 l 1,7,-1
 553 177 l 1,8,-1
 555 177 l 1,9,-1
 555 740 l 1,10,-1
 663 740 l 1,11,-1
 663 0 l 1,0,-1
EndSplineSet
Position2: "'cpsp' Capital Spacing lookup 0 subtable" dx=5 dy=0 dh=10 dv=0
EndChar

StartChar: O
Encoding: 79 79 47
Width: 846
GlyphClass: 2
Flags: W
LayerCount: 2
Fore
SplineSet
808 368 m 0,0,1
 808 214 808 214 696.5 100 c 128,-1,2
 585 -14 585 -14 423 -14 c 0,3,4
 260 -14 260 -14 149 100.5 c 128,-1,5
 38 215 38 215 38 370 c 128,-1,6
 38 525 38 525 148 639.5 c 128,-1,7
 258 754 258 754 423 754 c 0,8,9
 587 754 587 754 697.5 641 c 128,-1,10
 808 528 808 528 808 368 c 0,0,1
700 367 m 0,11,12
 700 418 700 418 682 467.5 c 128,-1,13
 664 517 664 517 631 559.5 c 128,-1,14
 598 602 598 602 543.5 628.5 c 128,-1,15
 489 655 489 655 423 655 c 0,16,17
 355 655 355 655 300 627.5 c 128,-1,18
 245 600 245 600 212.5 556 c 128,-1,19
 180 512 180 512 163 464 c 128,-1,20
 146 416 146 416 146 370 c 0,21,22
 146 323 146 323 163 274.5 c 128,-1,23
 180 226 180 226 212.5 182.5 c 128,-1,24
 245 139 245 139 300 112 c 128,-1,25
 355 85 355 85 423 85 c 128,-1,26
 491 85 491 85 546 112.5 c 128,-1,27
 601 140 601 140 633.5 182.5 c 128,-1,28
 666 225 666 225 683 273 c 128,-1,29
 700 321 700 321 700 367 c 0,11,12
EndSplineSet
Position2: "'cpsp' Capital Spacing lookup 0 subtable" dx=5 dy=0 dh=10 dv=0
EndChar

StartChar: P
Encoding: 80 80 48
Width: 570
GlyphClass: 2
Flags: W
LayerCount: 2
Fore
SplineSet
183 292 m 1,0,-1
 183 0 l 1,1,-1
 75 0 l 1,2,-1
 75 740 l 1,3,-1
 289 740 l 2,4,5
 418 740 418 740 484 679.5 c 128,-1,6
 550 619 550 619 550 516 c 128,-1,7
 550 413 550 413 484 352.5 c 128,-1,8
 418 292 418 292 289 292 c 2,9,-1
 183 292 l 1,0,-1
183 641 m 1,10,-1
 183 391 l 1,11,-1
 289 391 l 2,12,13
 372 391 372 391 407 428 c 128,-1,14
 442 465 442 465 442 516 c 128,-1,15
 442 567 442 567 407 604 c 128,-1,16
 372 641 372 641 289 641 c 2,17,-1
 183 641 l 1,10,-1
EndSplineSet
Position2: "'cpsp' Capital Spacing lookup 0 subtable" dx=5 dy=0 dh=10 dv=0
EndChar

StartChar: Q
Encoding: 81 81 49
Width: 837
GlyphClass: 2
Flags: W
LayerCount: 2
Fore
SplineSet
816 86 m 1,0,-1
 816 -14 l 1,1,2
 714 -14 714 -14 630 43 c 1,3,4
 527 -14 527 -14 418 -14 c 0,5,6
 261 -14 261 -14 149.5 98.5 c 128,-1,7
 38 211 38 211 38 372 c 0,8,9
 38 532 38 532 148 643 c 128,-1,10
 258 754 258 754 419 754 c 128,-1,11
 580 754 580 754 690 640.5 c 128,-1,12
 800 527 800 527 800 370 c 0,13,14
 800 231 800 231 709 112 c 1,15,16
 735 96 735 96 755.5 91 c 128,-1,17
 776 86 776 86 816 86 c 1,0,-1
534 118 m 1,18,19
 402 217 402 217 287 217 c 0,20,21
 239 217 239 217 201 200 c 1,22,23
 239 146 239 146 297.5 115.5 c 128,-1,24
 356 85 356 85 422 85 c 0,25,26
 486 85 486 85 534 118 c 1,18,19
621 177 m 1,27,28
 692 263 692 263 692 370 c 0,29,30
 692 485 692 485 613.5 570 c 128,-1,31
 535 655 535 655 421 655 c 0,32,33
 306 655 306 655 226 570 c 128,-1,34
 146 485 146 485 146 365 c 0,35,36
 146 333 146 333 156 293 c 1,37,38
 213 316 213 316 297 316 c 0,39,40
 451 316 451 316 621 177 c 1,27,28
EndSplineSet
Position2: "'cpsp' Capital Spacing lookup 0 subtable" dx=5 dy=0 dh=10 dv=0
EndChar

StartChar: R
Encoding: 82 82 50
Width: 604
GlyphClass: 2
Flags: W
LayerCount: 2
Fore
SplineSet
564 0 m 1,0,-1
 429 0 l 1,1,-1
 185 343 l 1,2,-1
 183 343 l 1,3,-1
 183 0 l 1,4,-1
 75 0 l 1,5,-1
 75 740 l 1,6,-1
 304 740 l 2,7,8
 436 740 436 740 501 678 c 0,9,10
 569 613 569 613 569 503 c 0,11,12
 569 448 569 448 551 404.5 c 128,-1,13
 533 361 533 361 508.5 338 c 128,-1,14
 484 315 484 315 452.5 300 c 128,-1,15
 421 285 421 285 398 280.5 c 128,-1,16
 375 276 375 276 357 276 c 1,17,-1
 564 0 l 1,0,-1
183 641 m 1,18,-1
 183 358 l 1,19,-1
 257 358 l 2,20,21
 278 358 278 358 296 359 c 128,-1,22
 314 360 314 360 347 368 c 128,-1,23
 380 376 380 376 402.5 390 c 128,-1,24
 425 404 425 404 443 433.5 c 128,-1,25
 461 463 461 463 461 503 c 0,26,27
 461 557 461 557 421 599 c 128,-1,28
 381 641 381 641 297 641 c 2,29,-1
 183 641 l 1,18,-1
EndSplineSet
Position2: "'cpsp' Capital Spacing lookup 0 subtable" dx=5 dy=0 dh=10 dv=0
EndChar

StartChar: S
Encoding: 83 83 51
Width: 501
GlyphClass: 2
Flags: W
LayerCount: 2
Fore
SplineSet
20 219 m 1,0,-1
 128 219 l 1,1,2
 128 208 128 208 130 195 c 128,-1,3
 132 182 132 182 139 161.5 c 128,-1,4
 146 141 146 141 158 125 c 128,-1,5
 170 109 170 109 193.5 97 c 128,-1,6
 217 85 217 85 248 85 c 0,7,8
 300 85 300 85 333.5 118.5 c 128,-1,9
 367 152 367 152 367 210 c 0,10,11
 367 227 367 227 363.5 241.5 c 128,-1,12
 360 256 360 256 351.5 267.5 c 128,-1,13
 343 279 343 279 336.5 286 c 128,-1,14
 330 293 330 293 315.5 301 c 128,-1,15
 301 309 301 309 294.5 312 c 128,-1,16
 288 315 288 315 270 322 c 128,-1,17
 252 329 252 329 248 331 c 0,18,19
 175 359 175 359 146.5 374 c 128,-1,20
 118 389 118 389 91 414 c 0,21,22
 41 461 41 461 41 553 c 0,23,24
 41 626 41 626 96 690 c 128,-1,25
 151 754 151 754 248 754 c 0,26,27
 341 754 341 754 400.5 697.5 c 128,-1,28
 460 641 460 641 460 548 c 1,29,-1
 352 548 l 1,30,31
 352 604 352 604 320 629.5 c 128,-1,32
 288 655 288 655 248 655 c 0,33,34
 203 655 203 655 176 623 c 128,-1,35
 149 591 149 591 149 554 c 0,36,37
 149 534 149 534 157 517.5 c 128,-1,38
 165 501 165 501 174 491.5 c 128,-1,39
 183 482 183 482 200 472.5 c 128,-1,40
 217 463 217 463 224.5 460 c 128,-1,41
 232 457 232 457 248 452 c 0,42,43
 256 449 256 449 280 440.5 c 128,-1,44
 304 432 304 432 315 427.5 c 128,-1,45
 326 423 326 423 348.5 413.5 c 128,-1,46
 371 404 371 404 382 395 c 128,-1,47
 393 386 393 386 410.5 372.5 c 128,-1,48
 428 359 428 359 437.5 343.5 c 128,-1,49
 447 328 447 328 457 308.5 c 128,-1,50
 467 289 467 289 471 264 c 128,-1,51
 475 239 475 239 475 210 c 0,52,53
 475 113 475 113 412 49.5 c 128,-1,54
 349 -14 349 -14 248 -14 c 0,55,56
 194 -14 194 -14 144 8.5 c 128,-1,57
 94 31 94 31 57 86 c 128,-1,58
 20 141 20 141 20 219 c 1,0,-1
EndSplineSet
Position2: "'cpsp' Capital Spacing lookup 0 subtable" dx=5 dy=0 dh=10 dv=0
EndChar

StartChar: T
Encoding: 84 84 52
Width: 407
GlyphClass: 2
Flags: W
LayerCount: 2
Fore
SplineSet
257 0 m 1,0,-1
 149 0 l 1,1,-1
 149 641 l 1,2,-1
 7 641 l 1,3,-1
 7 740 l 1,4,-1
 399 740 l 1,5,-1
 399 641 l 1,6,-1
 257 641 l 1,7,-1
 257 0 l 1,0,-1
EndSplineSet
Position2: "'cpsp' Capital Spacing lookup 0 subtable" dx=5 dy=0 dh=10 dv=0
EndChar

StartChar: U
Encoding: 85 85 53
Width: 646
GlyphClass: 2
Flags: W
LayerCount: 2
Fore
SplineSet
571 740 m 1,0,-1
 571 239 l 2,1,2
 571 121 571 121 496 49 c 1,3,4
 420 -14 420 -14 323 -14 c 128,-1,5
 226 -14 226 -14 150 49 c 1,6,7
 75 121 75 121 75 239 c 2,8,-1
 75 740 l 1,9,-1
 183 740 l 1,10,-1
 183 242 l 2,11,12
 183 194 183 194 198.5 160.5 c 128,-1,13
 214 127 214 127 238.5 112 c 128,-1,14
 263 97 263 97 283.5 91 c 128,-1,15
 304 85 304 85 323 85 c 128,-1,16
 342 85 342 85 362 91 c 128,-1,17
 382 97 382 97 407 112 c 128,-1,18
 432 127 432 127 447.5 160.5 c 128,-1,19
 463 194 463 194 463 242 c 2,20,-1
 463 740 l 1,21,-1
 571 740 l 1,0,-1
EndSplineSet
Position2: "'cpsp' Capital Spacing lookup 0 subtable" dx=5 dy=0 dh=10 dv=0
EndChar

StartChar: V
Encoding: 86 86 54
Width: 684
GlyphClass: 2
Flags: W
LayerCount: 2
Fore
SplineSet
375 0 m 1,0,-1
 310 0 l 1,1,-1
 12 740 l 1,2,-1
 128 740 l 1,3,-1
 343 185 l 1,4,-1
 558 740 l 1,5,-1
 672 740 l 1,6,-1
 375 0 l 1,0,-1
EndSplineSet
Position2: "'cpsp' Capital Spacing lookup 0 subtable" dx=5 dy=0 dh=10 dv=0
EndChar

StartChar: W
Encoding: 87 87 55
Width: 906
GlyphClass: 2
Flags: W
LayerCount: 2
Fore
SplineSet
683 0 m 1,0,-1
 588 0 l 1,1,-1
 454 517 l 1,2,-1
 452 517 l 1,3,-1
 318 0 l 1,4,-1
 223 0 l 1,5,-1
 16 740 l 1,6,-1
 128 740 l 1,7,-1
 269 183 l 1,8,-1
 271 183 l 1,9,-1
 414 740 l 1,10,-1
 493 740 l 1,11,-1
 634 187 l 1,12,-1
 636 187 l 1,13,-1
 780 740 l 1,14,-1
 890 740 l 1,15,-1
 683 0 l 1,0,-1
EndSplineSet
Position2: "'cpsp' Capital Spacing lookup 0 subtable" dx=5 dy=0 dh=10 dv=0
EndChar

StartChar: X
Encoding: 88 88 56
Width: 649
GlyphClass: 2
Flags: W
LayerCount: 2
Fore
SplineSet
508 0 m 1,0,-1
 324 282 l 1,1,-1
 138 0 l 1,2,-1
 12 0 l 1,3,-1
 257 371 l 1,4,-1
 12 740 l 1,5,-1
 141 740 l 1,6,-1
 324 460 l 1,7,-1
 509 740 l 1,8,-1
 637 740 l 1,9,-1
 390 371 l 1,10,-1
 635 0 l 1,11,-1
 508 0 l 1,0,-1
EndSplineSet
Position2: "'cpsp' Capital Spacing lookup 0 subtable" dx=5 dy=0 dh=10 dv=0
EndChar

StartChar: Y
Encoding: 89 89 57
Width: 590
GlyphClass: 2
Flags: W
LayerCount: 2
Fore
SplineSet
350 0 m 1,0,-1
 242 0 l 1,1,-1
 242 267 l 1,2,-1
 12 740 l 1,3,-1
 133 740 l 1,4,-1
 296 393 l 1,5,-1
 458 740 l 1,6,-1
 578 740 l 1,7,-1
 350 267 l 1,8,-1
 350 0 l 1,0,-1
EndSplineSet
Position2: "'cpsp' Capital Spacing lookup 0 subtable" dx=5 dy=0 dh=10 dv=0
EndChar

StartChar: Z
Encoding: 90 90 58
Width: 465
GlyphClass: 2
Flags: W
LayerCount: 2
Fore
SplineSet
460 0 m 1,0,-1
 5 0 l 1,1,-1
 5 99 l 1,2,-1
 326 641 l 1,3,-1
 22 641 l 1,4,-1
 22 740 l 1,5,-1
 447 740 l 1,6,-1
 447 641 l 1,7,-1
 128 99 l 1,8,-1
 460 99 l 1,9,-1
 460 0 l 1,0,-1
EndSplineSet
Position2: "'cpsp' Capital Spacing lookup 0 subtable" dx=5 dy=0 dh=10 dv=0
EndChar

StartChar: bracketleft
Encoding: 91 91 59
Width: 407
GlyphClass: 2
Flags: W
LayerCount: 2
Fore
SplineSet
232 439 m 2,0,-1
 232 173 l 2,1,2
 232 32 232 32 329 -7 c 1,3,-1
 329 -128 l 1,4,5
 237 -103 237 -103 181 -31 c 128,-1,6
 125 41 125 41 125 160 c 2,7,-1
 125 452 l 2,8,9
 125 571 125 571 181 643 c 128,-1,10
 237 715 237 715 329 740 c 1,11,-1
 329 619 l 1,12,13
 232 580 232 580 232 439 c 2,0,-1
EndSplineSet
EndChar

StartChar: backslash
Encoding: 92 92 60
Width: 499
GlyphClass: 2
Flags: W
LayerCount: 2
Fore
SplineSet
453 -100 m 1,0,-1
 349 -100 l 1,1,-1
 61 740 l 1,2,-1
 165 740 l 1,3,-1
 453 -100 l 1,0,-1
EndSplineSet
EndChar

StartChar: bracketright
Encoding: 93 93 61
Width: 407
GlyphClass: 2
Flags: W
LayerCount: 2
Fore
SplineSet
175 173 m 2,0,-1
 175 439 l 2,1,2
 175 580 175 580 78 619 c 1,3,-1
 78 740 l 1,4,5
 170 715 170 715 226 643 c 128,-1,6
 282 571 282 571 282 452 c 2,7,-1
 282 160 l 2,8,9
 282 41 282 41 226 -31 c 128,-1,10
 170 -103 170 -103 78 -128 c 1,11,-1
 78 -7 l 1,12,13
 175 32 175 32 175 173 c 2,0,-1
EndSplineSet
EndChar

StartChar: asciicircum
Encoding: 94 94 62
Width: 600
GlyphClass: 2
Flags: W
LayerCount: 2
Fore
SplineSet
170 355 m 1,0,-1
 66 355 l 1,1,-1
 253 740 l 1,2,-1
 347 740 l 1,3,-1
 534 355 l 1,4,-1
 430 355 l 1,5,-1
 300 635 l 1,6,-1
 170 355 l 1,0,-1
EndSplineSet
EndChar

StartChar: underscore
Encoding: 95 95 63
Width: 500
GlyphClass: 2
Flags: W
LayerCount: 2
Fore
SplineSet
500 -147 m 1,0,-1
 0 -147 l 1,1,-1
 0 -62 l 1,2,-1
 500 -62 l 1,3,-1
 500 -147 l 1,0,-1
EndSplineSet
EndChar

StartChar: grave
Encoding: 96 96 64
Width: 555
GlyphClass: 2
Flags: W
LayerCount: 2
Fore
SplineSet
166 815 m 1,0,-1
 391 692 l 1,1,-1
 347 612 l 1,2,-1
 124 740 l 1,3,-1
 166 815 l 1,0,-1
EndSplineSet
EndChar

StartChar: a
Encoding: 97 97 65
Width: 692
GlyphClass: 2
Flags: W
LayerCount: 2
Fore
SplineSet
626 0 m 1,0,-1
 522 0 l 1,1,-1
 522 86 l 1,2,-1
 520 86 l 1,3,4
 491 37 491 37 441 11.5 c 128,-1,5
 391 -14 391 -14 332 -14 c 0,6,7
 197 -14 197 -14 117.5 72 c 128,-1,8
 38 158 38 158 38 275 c 0,9,10
 38 327 38 327 56.5 378 c 128,-1,11
 75 429 75 429 110 472.5 c 128,-1,12
 145 516 145 516 203 542.5 c 128,-1,13
 261 569 261 569 332 569 c 0,14,15
 391 569 391 569 441 545 c 128,-1,16
 491 521 491 521 520 476 c 1,17,-1
 522 476 l 1,18,-1
 522 554 l 1,19,-1
 626 554 l 1,20,-1
 626 0 l 1,0,-1
524 276 m 0,21,22
 524 363 524 363 468.5 418.5 c 128,-1,23
 413 474 413 474 332 474 c 0,24,25
 243 474 243 474 192.5 412.5 c 128,-1,26
 142 351 142 351 142 276 c 0,27,28
 142 199 142 199 196.5 140 c 128,-1,29
 251 81 251 81 331 81 c 0,30,31
 412 81 412 81 468 138 c 128,-1,32
 524 195 524 195 524 276 c 0,21,22
EndSplineSet
Substitution2: "Single Substitution lookup 17 subtable" ordfeminine
EndChar

StartChar: b
Encoding: 98 98 66
Width: 687
GlyphClass: 2
Flags: W
LayerCount: 2
Fore
SplineSet
169 0 m 1,0,-1
 66 0 l 1,1,-1
 66 740 l 1,2,-1
 170 740 l 1,3,-1
 170 477 l 1,4,-1
 172 477 l 1,5,6
 237 569 237 569 362 569 c 0,7,8
 477 569 477 569 563 485.5 c 128,-1,9
 649 402 649 402 649 277 c 0,10,11
 649 156 649 156 567 71 c 128,-1,12
 485 -14 485 -14 364 -14 c 0,13,14
 316 -14 316 -14 262 7 c 128,-1,15
 208 28 208 28 171 80 c 1,16,-1
 169 80 l 1,17,-1
 169 0 l 1,0,-1
167 279 m 0,18,19
 167 190 167 190 224.5 135.5 c 128,-1,20
 282 81 282 81 356 81 c 0,21,22
 432 81 432 81 488.5 138.5 c 128,-1,23
 545 196 545 196 545 277 c 0,24,25
 545 357 545 357 490.5 415.5 c 128,-1,26
 436 474 436 474 356 474 c 0,27,28
 273 474 273 474 220 415.5 c 128,-1,29
 167 357 167 357 167 279 c 0,18,19
EndSplineSet
EndChar

StartChar: c
Encoding: 99 99 67
Width: 627
GlyphClass: 2
Flags: W
LayerCount: 2
Fore
SplineSet
595 370 m 1,0,-1
 480 370 l 1,1,2
 432 474 432 474 324 474 c 0,3,4
 261 474 261 474 218 441.5 c 128,-1,5
 175 409 175 409 158.5 366.5 c 128,-1,6
 142 324 142 324 142 278 c 0,7,8
 142 200 142 200 190 140.5 c 128,-1,9
 238 81 238 81 322 81 c 0,10,11
 431 81 431 81 479 183 c 1,12,-1
 595 183 l 1,13,14
 563 92 563 92 489 39 c 128,-1,15
 415 -14 415 -14 322 -14 c 0,16,17
 193 -14 193 -14 115.5 74.5 c 128,-1,18
 38 163 38 163 38 278 c 0,19,20
 38 395 38 395 117.5 482 c 128,-1,21
 197 569 197 569 323 569 c 0,22,23
 431 569 431 569 503.5 506 c 128,-1,24
 576 443 576 443 595 370 c 1,0,-1
EndSplineSet
EndChar

StartChar: d
Encoding: 100 100 68
Width: 686
GlyphClass: 2
Flags: W
LayerCount: 2
Fore
SplineSet
620 0 m 1,0,-1
 524 0 l 1,1,-1
 524 79 l 1,2,-1
 522 79 l 1,3,4
 455 -14 455 -14 326 -14 c 0,5,6
 194 -14 194 -14 116 72 c 128,-1,7
 38 158 38 158 38 275 c 0,8,9
 38 327 38 327 56 378 c 128,-1,10
 74 429 74 429 108 472.5 c 128,-1,11
 142 516 142 516 199 542.5 c 128,-1,12
 256 569 256 569 326 569 c 0,13,14
 383 569 383 569 433.5 546.5 c 128,-1,15
 484 524 484 524 514 486 c 1,16,-1
 516 486 l 1,17,-1
 516 740 l 1,18,-1
 620 740 l 1,19,-1
 620 0 l 1,0,-1
524 276 m 0,20,21
 524 363 524 363 468.5 418.5 c 128,-1,22
 413 474 413 474 332 474 c 0,23,24
 243 474 243 474 192.5 412.5 c 128,-1,25
 142 351 142 351 142 276 c 0,26,27
 142 199 142 199 196.5 140 c 128,-1,28
 251 81 251 81 331 81 c 0,29,30
 412 81 412 81 468 138 c 128,-1,31
 524 195 524 195 524 276 c 0,20,21
EndSplineSet
EndChar

StartChar: e
Encoding: 101 101 69
Width: 642
GlyphClass: 2
Flags: W
LayerCount: 2
Fore
SplineSet
601 232 m 1,0,-1
 142 232 l 1,1,2
 161 158 161 158 213.5 119.5 c 128,-1,3
 266 81 266 81 324 81 c 0,4,5
 378 81 378 81 420 108 c 128,-1,6
 462 135 462 135 482 174 c 1,7,-1
 586 174 l 1,8,9
 561 107 561 107 512 62.5 c 128,-1,10
 463 18 463 18 415.5 2 c 128,-1,11
 368 -14 368 -14 320 -14 c 0,12,13
 203 -14 203 -14 120.5 72.5 c 128,-1,14
 38 159 38 159 38 278 c 0,15,16
 38 401 38 401 121 485 c 128,-1,17
 204 569 204 569 322 569 c 0,18,19
 436 569 436 569 520 487 c 128,-1,20
 604 405 604 405 604 285 c 0,21,22
 604 253 604 253 601 232 c 1,0,-1
142 312 m 1,23,-1
 500 312 l 1,24,25
 496 375 496 375 444.5 424.5 c 128,-1,26
 393 474 393 474 321 474 c 128,-1,27
 249 474 249 474 197.5 424.5 c 128,-1,28
 146 375 146 375 142 312 c 1,23,-1
EndSplineSet
EndChar

StartChar: f
Encoding: 102 102 70
Width: 277
GlyphClass: 2
Flags: W
LayerCount: 2
Fore
SplineSet
174 0 m 1,0,-1
 70 0 l 1,1,-1
 70 459 l 1,2,-1
 21 459 l 1,3,-1
 21 554 l 1,4,-1
 70 554 l 1,5,-1
 70 581 l 2,6,7
 70 665 70 665 136 710 c 0,8,9
 168 729 168 729 195 734.5 c 128,-1,10
 222 740 222 740 271 740 c 1,11,-1
 271 645 l 1,12,13
 174 645 174 645 174 581 c 2,14,-1
 174 554 l 1,15,-1
 271 554 l 1,16,-1
 271 459 l 1,17,-1
 174 459 l 1,18,-1
 174 0 l 1,0,-1
EndSplineSet
EndChar

StartChar: g
Encoding: 103 103 71
Width: 697
GlyphClass: 2
Flags: W
LayerCount: 2
Fore
SplineSet
631 554 m 1,0,-1
 631 75 l 2,1,2
 631 -59 631 -59 547 -138.5 c 128,-1,3
 463 -218 463 -218 333 -218 c 0,4,5
 204 -218 204 -218 129 -140 c 0,6,7
 79 -88 79 -88 58 -14 c 1,8,-1
 174 -14 l 1,9,10
 185 -52 185 -52 225.5 -87.5 c 128,-1,11
 266 -123 266 -123 332 -123 c 0,12,13
 420 -123 420 -123 473.5 -75.5 c 128,-1,14
 527 -28 527 -28 527 73 c 1,15,-1
 525 73 l 1,16,17
 516 61 516 61 503 48 c 128,-1,18
 490 35 490 35 467 20 c 128,-1,19
 444 5 444 5 409.5 -4.5 c 128,-1,20
 375 -14 375 -14 334 -14 c 0,21,22
 247 -14 247 -14 177.5 31.5 c 128,-1,23
 108 77 108 77 73 143.5 c 128,-1,24
 38 210 38 210 38 279 c 0,25,26
 38 327 38 327 57 376.5 c 128,-1,27
 76 426 76 426 111.5 470 c 128,-1,28
 147 514 147 514 206 541.5 c 128,-1,29
 265 569 265 569 336 569 c 0,30,31
 395 569 395 569 446.5 546.5 c 128,-1,32
 498 524 498 524 527 490 c 1,33,-1
 527 554 l 1,34,-1
 631 554 l 1,0,-1
527 276 m 0,35,36
 527 331 527 331 506.5 372 c 128,-1,37
 486 413 486 413 454 434 c 128,-1,38
 422 455 422 455 391.5 464.5 c 128,-1,39
 361 474 361 474 334 474 c 0,40,41
 253 474 253 474 197.5 415.5 c 128,-1,42
 142 357 142 357 142 277 c 0,43,44
 142 199 142 199 196.5 140 c 128,-1,45
 251 81 251 81 333 81 c 0,46,47
 381 81 381 81 420 101 c 128,-1,48
 459 121 459 121 481.5 152 c 128,-1,49
 504 183 504 183 515.5 215.5 c 128,-1,50
 527 248 527 248 527 276 c 0,35,36
EndSplineSet
EndChar

StartChar: h
Encoding: 104 104 72
Width: 624
GlyphClass: 2
Flags: W
LayerCount: 2
Fore
SplineSet
558 0 m 1,0,-1
 454 0 l 1,1,-1
 454 301 l 2,2,3
 454 474 454 474 316 474 c 0,4,5
 249 474 249 474 209.5 429.5 c 128,-1,6
 170 385 170 385 170 302 c 2,7,-1
 170 0 l 1,8,-1
 66 0 l 1,9,-1
 66 740 l 1,10,-1
 170 740 l 1,11,-1
 170 495 l 1,12,-1
 172 495 l 1,13,14
 222 569 222 569 327 569 c 0,15,16
 460 569 460 569 523 470 c 0,17,18
 557 417 557 417 558 328 c 2,19,-1
 558 0 l 1,0,-1
EndSplineSet
EndChar

StartChar: i
Encoding: 105 105 73
Width: 236
GlyphClass: 2
Flags: W
LayerCount: 2
Fore
SplineSet
170 554 m 1,0,-1
 170 0 l 1,1,-1
 66 0 l 1,2,-1
 66 554 l 1,3,-1
 170 554 l 1,0,-1
170 740 m 1,4,-1
 170 618 l 1,5,-1
 66 618 l 1,6,-1
 66 740 l 1,7,-1
 170 740 l 1,4,-1
EndSplineSet
EndChar

StartChar: j
Encoding: 106 106 74
Width: 240
GlyphClass: 2
Flags: W
LayerCount: 2
Fore
SplineSet
173 554 m 1,0,-1
 173 49 l 2,1,2
 173 -24 173 -24 161.5 -66.5 c 128,-1,3
 150 -109 150 -109 114 -141 c 0,4,5
 70 -179 70 -179 0 -185 c 1,6,-1
 0 -76 l 1,7,8
 20 -75 20 -75 33.5 -67 c 128,-1,9
 47 -59 47 -59 54 -50.5 c 128,-1,10
 61 -42 61 -42 64.5 -23 c 128,-1,11
 68 -4 68 -4 68.5 9 c 128,-1,12
 69 22 69 22 69 49 c 2,13,-1
 69 554 l 1,14,-1
 173 554 l 1,0,-1
173 740 m 1,15,-1
 173 618 l 1,16,-1
 69 618 l 1,17,-1
 69 740 l 1,18,-1
 173 740 l 1,15,-1
EndSplineSet
EndChar

StartChar: k
Encoding: 107 107 75
Width: 529
GlyphClass: 2
Flags: W
LayerCount: 2
Fore
SplineSet
369 554 m 1,0,-1
 492 554 l 1,1,-1
 291 293 l 1,2,-1
 524 0 l 1,3,-1
 394 0 l 1,4,-1
 172 287 l 1,5,-1
 170 287 l 1,6,-1
 170 0 l 1,7,-1
 66 0 l 1,8,-1
 66 740 l 1,9,-1
 170 740 l 1,10,-1
 170 287 l 1,11,-1
 172 287 l 1,12,-1
 369 554 l 1,0,-1
EndSplineSet
EndChar

StartChar: l
Encoding: 108 108 76
Width: 236
GlyphClass: 2
Flags: W
LayerCount: 2
Fore
SplineSet
170 740 m 1,0,-1
 170 0 l 1,1,-1
 66 0 l 1,2,-1
 66 740 l 1,3,-1
 170 740 l 1,0,-1
EndSplineSet
EndChar

StartChar: m
Encoding: 109 109 77
Width: 970
GlyphClass: 2
Flags: W
LayerCount: 2
Fore
SplineSet
904 0 m 1,0,-1
 800 0 l 1,1,-1
 800 308 l 2,2,3
 800 474 800 474 669 474 c 0,4,5
 632 474 632 474 605 460.5 c 128,-1,6
 578 447 578 447 565.5 430 c 128,-1,7
 553 413 553 413 546 386 c 128,-1,8
 539 359 539 359 538 344.5 c 128,-1,9
 537 330 537 330 537 309 c 2,10,-1
 537 0 l 1,11,-1
 433 0 l 1,12,-1
 433 308 l 2,13,14
 435 382 435 382 410 422 c 0,15,16
 375 474 375 474 307 474 c 0,17,18
 170 474 170 474 170 309 c 2,19,-1
 170 0 l 1,20,-1
 66 0 l 1,21,-1
 66 554 l 1,22,-1
 162 554 l 1,23,-1
 162 494 l 1,24,-1
 164 494 l 1,25,26
 175 508 175 508 183.5 516.5 c 128,-1,27
 192 525 192 525 211 539.5 c 128,-1,28
 230 554 230 554 258.5 561.5 c 128,-1,29
 287 569 287 569 323 569 c 0,30,31
 376 569 376 569 425 544.5 c 128,-1,32
 474 520 474 520 495 476 c 1,33,34
 505 491 505 491 509.5 497 c 128,-1,35
 514 503 514 503 531 520 c 128,-1,36
 548 537 548 537 565 545 c 128,-1,37
 582 553 582 553 612 561 c 128,-1,38
 642 569 642 569 678 569 c 0,39,40
 816 569 816 569 873 469 c 0,41,42
 904 414 904 414 904 334 c 2,43,-1
 904 0 l 1,0,-1
EndSplineSet
EndChar

StartChar: n
Encoding: 110 110 78
Width: 624
GlyphClass: 2
Flags: W
LayerCount: 2
Fore
SplineSet
558 0 m 1,0,-1
 454 0 l 1,1,-1
 454 301 l 2,2,3
 454 474 454 474 316 474 c 0,4,5
 249 474 249 474 209.5 429.5 c 128,-1,6
 170 385 170 385 170 302 c 2,7,-1
 170 0 l 1,8,-1
 66 0 l 1,9,-1
 66 554 l 1,10,-1
 163 554 l 1,11,-1
 163 495 l 1,12,-1
 165 495 l 1,13,14
 220 569 220 569 327 569 c 0,15,16
 460 569 460 569 523 470 c 0,17,18
 557 417 557 417 558 328 c 2,19,-1
 558 0 l 1,0,-1
EndSplineSet
EndChar

StartChar: o
Encoding: 111 111 79
Width: 674
GlyphClass: 2
Flags: W
LayerCount: 2
Fore
SplineSet
636 279 m 0,0,1
 636 209 636 209 601.5 143 c 128,-1,2
 567 77 567 77 496.5 31.5 c 128,-1,3
 426 -14 426 -14 337 -14 c 0,4,5
 270 -14 270 -14 212 12.5 c 128,-1,6
 154 39 154 39 117 81.5 c 128,-1,7
 80 124 80 124 59 176 c 128,-1,8
 38 228 38 228 38 281 c 0,9,10
 38 397 38 397 124.5 483 c 128,-1,11
 211 569 211 569 337 569 c 0,12,13
 462 569 462 569 549 483.5 c 128,-1,14
 636 398 636 398 636 279 c 0,0,1
532 279 m 0,15,16
 532 356 532 356 477 415 c 128,-1,17
 422 474 422 474 337 474 c 128,-1,18
 252 474 252 474 197 415 c 128,-1,19
 142 356 142 356 142 278 c 128,-1,20
 142 200 142 200 197.5 140.5 c 128,-1,21
 253 81 253 81 337 81 c 0,22,23
 420 81 420 81 476 140 c 128,-1,24
 532 199 532 199 532 279 c 0,15,16
EndSplineSet
Substitution2: "Single Substitution lookup 17 subtable" ordmasculine
EndChar

StartChar: p
Encoding: 112 112 80
Width: 685
GlyphClass: 2
Flags: W
LayerCount: 2
Fore
SplineSet
66 -185 m 1,0,-1
 66 554 l 1,1,-1
 161 554 l 1,2,-1
 161 469 l 1,3,-1
 163 469 l 1,4,5
 234 569 234 569 360 569 c 0,6,7
 493 569 493 569 570 479.5 c 128,-1,8
 647 390 647 390 647 270 c 0,9,10
 647 158 647 158 570 72 c 128,-1,11
 493 -14 493 -14 367 -14 c 0,12,13
 290 -14 290 -14 241.5 15 c 128,-1,14
 193 44 193 44 172 80 c 1,15,-1
 170 80 l 1,16,-1
 170 -185 l 1,17,-1
 66 -185 l 1,0,-1
543 276 m 0,18,19
 543 353 543 353 488.5 413.5 c 128,-1,20
 434 474 434 474 353 474 c 0,21,22
 274 474 274 474 221 415 c 128,-1,23
 168 356 168 356 168 278 c 0,24,25
 168 194 168 194 222.5 137.5 c 128,-1,26
 277 81 277 81 356 81 c 0,27,28
 432 81 432 81 487.5 136 c 128,-1,29
 543 191 543 191 543 276 c 0,18,19
EndSplineSet
EndChar

StartChar: q
Encoding: 113 113 81
Width: 685
GlyphClass: 2
Flags: W
LayerCount: 2
Fore
SplineSet
619 554 m 1,0,-1
 619 -185 l 1,1,-1
 515 -185 l 1,2,-1
 515 77 l 1,3,-1
 513 77 l 1,4,5
 484 35 484 35 434.5 10.5 c 128,-1,6
 385 -14 385 -14 328 -14 c 0,7,8
 198 -14 198 -14 118 74.5 c 128,-1,9
 38 163 38 163 38 278 c 0,10,11
 38 395 38 395 118 482 c 128,-1,12
 198 569 198 569 325 569 c 0,13,14
 369 569 369 569 407.5 557 c 128,-1,15
 446 545 446 545 469 528.5 c 128,-1,16
 492 512 492 512 505 499 c 128,-1,17
 518 486 518 486 521 480 c 1,18,-1
 523 480 l 1,19,-1
 523 554 l 1,20,-1
 619 554 l 1,0,-1
524 275 m 0,21,22
 524 358 524 358 469.5 416 c 128,-1,23
 415 474 415 474 332 474 c 0,24,25
 248 474 248 474 195 416.5 c 128,-1,26
 142 359 142 359 142 278 c 128,-1,27
 142 197 142 197 196 139 c 128,-1,28
 250 81 250 81 334 81 c 0,29,30
 416 81 416 81 470 139 c 128,-1,31
 524 197 524 197 524 275 c 0,21,22
EndSplineSet
EndChar

StartChar: r
Encoding: 114 114 82
Width: 320
GlyphClass: 2
Flags: W
LayerCount: 2
Fore
SplineSet
171 0 m 1,0,-1
 67 0 l 1,1,-1
 67 554 l 1,2,-1
 164 554 l 1,3,-1
 164 504 l 1,4,-1
 166 504 l 1,5,6
 212 569 212 569 307 569 c 1,7,-1
 307 462 l 1,8,9
 270 462 270 462 232 442 c 0,10,11
 171 407 171 407 171 303 c 2,12,-1
 171 0 l 1,0,-1
EndSplineSet
EndChar

StartChar: s
Encoding: 115 115 83
Width: 432
GlyphClass: 2
Flags: W
LayerCount: 2
Fore
SplineSet
394 407 m 1,0,-1
 290 407 l 1,1,2
 280 474 280 474 219 474 c 0,3,4
 190 474 190 474 172 457.5 c 128,-1,5
 154 441 154 441 154 415 c 0,6,7
 154 394 154 394 167.5 379 c 128,-1,8
 181 364 181 364 196.5 357.5 c 128,-1,9
 212 351 212 351 240 343 c 0,10,11
 262 336 262 336 274.5 331.5 c 128,-1,12
 287 327 287 327 315.5 312 c 128,-1,13
 344 297 344 297 361 279.5 c 128,-1,14
 378 262 378 262 392.5 231 c 128,-1,15
 407 200 407 200 407 163 c 0,16,17
 407 87 407 87 356.5 36.5 c 128,-1,18
 306 -14 306 -14 221 -14 c 0,19,20
 192 -14 192 -14 161 -4.5 c 128,-1,21
 130 5 130 5 98 26 c 128,-1,22
 66 47 66 47 45.5 87.5 c 128,-1,23
 25 128 25 128 25 182 c 1,24,-1
 129 182 l 1,25,26
 132 134 132 134 156 107.5 c 128,-1,27
 180 81 180 81 223 81 c 0,28,29
 259 81 259 81 281 101.5 c 128,-1,30
 303 122 303 122 303 157 c 0,31,32
 303 190 303 190 279 207.5 c 128,-1,33
 255 225 255 225 206 242 c 0,34,35
 129 269 129 269 99 295 c 0,36,37
 50 337 50 337 50 409 c 0,38,39
 50 473 50 473 99 521 c 128,-1,40
 148 569 148 569 224 569 c 0,41,42
 260 569 260 569 296 555 c 128,-1,43
 332 541 332 541 362.5 502.5 c 128,-1,44
 393 464 393 464 394 407 c 1,0,-1
EndSplineSet
EndChar

StartChar: t
Encoding: 116 116 84
Width: 282
GlyphClass: 2
Flags: W
LayerCount: 2
Fore
SplineSet
185 459 m 1,0,-1
 185 0 l 1,1,-1
 81 0 l 1,2,-1
 81 459 l 1,3,-1
 6 459 l 1,4,-1
 6 554 l 1,5,-1
 81 554 l 1,6,-1
 81 740 l 1,7,-1
 185 740 l 1,8,-1
 185 554 l 1,9,-1
 276 554 l 1,10,-1
 276 459 l 1,11,-1
 185 459 l 1,0,-1
EndSplineSet
EndChar

StartChar: u
Encoding: 117 117 85
Width: 623
GlyphClass: 2
Flags: W
LayerCount: 2
Fore
SplineSet
66 554 m 1,0,-1
 170 554 l 1,1,-1
 170 254 l 2,2,3
 170 81 170 81 308 81 c 0,4,5
 376 81 376 81 414.5 125 c 128,-1,6
 453 169 453 169 453 257 c 2,7,-1
 453 554 l 1,8,-1
 557 554 l 1,9,-1
 557 0 l 1,10,-1
 462 0 l 1,11,-1
 462 60 l 1,12,-1
 460 60 l 1,13,14
 439 25 439 25 395 5.5 c 128,-1,15
 351 -14 351 -14 297 -14 c 0,16,17
 202 -14 202 -14 139 41 c 0,18,19
 66 103 66 103 66 254 c 2,20,-1
 66 554 l 1,0,-1
EndSplineSet
EndChar

StartChar: v
Encoding: 118 118 86
Width: 527
GlyphClass: 2
Flags: W
LayerCount: 2
Fore
SplineSet
519 554 m 1,0,-1
 301 0 l 1,1,-1
 228 0 l 1,2,-1
 8 554 l 1,3,-1
 119 554 l 1,4,-1
 264 158 l 1,5,-1
 266 158 l 1,6,-1
 408 554 l 1,7,-1
 519 554 l 1,0,-1
EndSplineSet
EndChar

StartChar: w
Encoding: 119 119 87
Width: 785
GlyphClass: 2
Flags: W
LayerCount: 2
Fore
SplineSet
777 554 m 1,0,-1
 572 0 l 1,1,-1
 514 0 l 1,2,-1
 394 373 l 1,3,-1
 392 373 l 1,4,-1
 272 0 l 1,5,-1
 215 0 l 1,6,-1
 8 554 l 1,7,-1
 119 554 l 1,8,-1
 242 194 l 1,9,-1
 244 194 l 1,10,-1
 359 554 l 1,11,-1
 427 554 l 1,12,-1
 542 194 l 1,13,-1
 544 194 l 1,14,-1
 666 554 l 1,15,-1
 777 554 l 1,0,-1
EndSplineSet
EndChar

StartChar: x
Encoding: 120 120 88
Width: 530
GlyphClass: 2
Flags: W
LayerCount: 2
Fore
SplineSet
384 554 m 1,0,-1
 510 554 l 1,1,-1
 329 284 l 1,2,-1
 522 0 l 1,3,-1
 400 0 l 1,4,-1
 263 197 l 1,5,-1
 129 0 l 1,6,-1
 8 0 l 1,7,-1
 200 284 l 1,8,-1
 15 554 l 1,9,-1
 141 554 l 1,10,-1
 263 372 l 1,11,-1
 384 554 l 1,0,-1
EndSplineSet
EndChar

StartChar: y
Encoding: 121 121 89
Width: 574
GlyphClass: 2
Flags: W
LayerCount: 2
Fore
SplineSet
566 554 m 1,0,-1
 260 -185 l 1,1,-1
 152 -185 l 1,2,-1
 233 11 l 1,3,-1
 12 554 l 1,4,-1
 124 554 l 1,5,-1
 287 124 l 1,6,-1
 454 554 l 1,7,-1
 566 554 l 1,0,-1
EndSplineSet
EndChar

StartChar: z
Encoding: 122 122 90
Width: 425
GlyphClass: 2
Flags: W
LayerCount: 2
Fore
SplineSet
38 554 m 1,0,-1
 392 554 l 1,1,-1
 392 453 l 1,2,-1
 141 95 l 1,3,-1
 413 95 l 1,4,-1
 413 0 l 1,5,-1
 12 0 l 1,6,-1
 12 81 l 1,7,-1
 278 459 l 1,8,-1
 38 459 l 1,9,-1
 38 554 l 1,0,-1
EndSplineSet
EndChar

StartChar: braceleft
Encoding: 123 123 91
Width: 333
GlyphClass: 2
Flags: W
LayerCount: 2
Fore
SplineSet
14 266 m 1,0,-1
 14 352 l 1,1,2
 45 352 45 352 75.5 373 c 128,-1,3
 106 394 106 394 106 435 c 2,4,-1
 106 605 l 2,5,6
 106 669 106 669 148 704.5 c 128,-1,7
 190 740 190 740 243 740 c 2,8,-1
 308 740 l 1,9,-1
 308 661 l 1,10,-1
 264 661 l 2,11,12
 210 661 210 661 210 588 c 2,13,-1
 210 421 l 2,14,15
 210 366 210 366 177 340 c 128,-1,16
 144 314 144 314 111 311 c 1,17,-1
 111 308 l 1,18,19
 128 305 128 305 140 301 c 128,-1,20
 152 297 152 297 170.5 285.5 c 128,-1,21
 189 274 189 274 199.5 249.5 c 128,-1,22
 210 225 210 225 210 190 c 2,23,-1
 210 24 l 2,24,25
 210 -49 210 -49 264 -49 c 2,26,-1
 308 -49 l 1,27,-1
 308 -128 l 1,28,-1
 243 -128 l 2,29,30
 190 -128 190 -128 148 -92.5 c 128,-1,31
 106 -57 106 -57 106 7 c 2,32,-1
 106 176 l 2,33,34
 106 221 106 221 76 243.5 c 128,-1,35
 46 266 46 266 14 266 c 1,0,-1
EndSplineSet
EndChar

StartChar: bar
Encoding: 124 124 92
Width: 555
GlyphClass: 2
Flags: W
LayerCount: 2
Fore
SplineSet
225 740 m 1,0,-1
 330 740 l 1,1,-1
 330 0 l 1,2,-1
 225 0 l 1,3,-1
 225 740 l 1,0,-1
EndSplineSet
EndChar

StartChar: braceright
Encoding: 125 125 93
Width: 333
GlyphClass: 2
Flags: W
LayerCount: 2
Fore
SplineSet
319 352 m 1,0,-1
 319 266 l 1,1,2
 287 266 287 266 257 243.5 c 128,-1,3
 227 221 227 221 227 176 c 2,4,-1
 227 7 l 2,5,6
 227 -57 227 -57 185 -92.5 c 128,-1,7
 143 -128 143 -128 90 -128 c 2,8,-1
 25 -128 l 1,9,-1
 25 -49 l 1,10,-1
 69 -49 l 2,11,12
 123 -49 123 -49 123 24 c 2,13,-1
 123 190 l 2,14,15
 123 225 123 225 133.5 249.5 c 128,-1,16
 144 274 144 274 162.5 285.5 c 128,-1,17
 181 297 181 297 193 301 c 128,-1,18
 205 305 205 305 222 308 c 1,19,-1
 222 311 l 1,20,21
 189 314 189 314 156 340 c 128,-1,22
 123 366 123 366 123 421 c 2,23,-1
 123 588 l 2,24,25
 123 661 123 661 69 661 c 2,26,-1
 25 661 l 1,27,-1
 25 740 l 1,28,-1
 90 740 l 2,29,30
 143 740 143 740 185 704.5 c 128,-1,31
 227 669 227 669 227 605 c 2,32,-1
 227 435 l 2,33,34
 227 394 227 394 257.5 373 c 128,-1,35
 288 352 288 352 319 352 c 1,0,-1
EndSplineSet
EndChar

StartChar: asciitilde
Encoding: 126 126 94
Width: 650
GlyphClass: 2
Flags: W
LayerCount: 2
Fore
SplineSet
587 303 m 1,0,1
 554 257 554 257 518 234 c 128,-1,2
 482 211 482 211 432 211 c 0,3,4
 372 211 372 211 317 243 c 128,-1,5
 262 275 262 275 222 275 c 0,6,7
 175 275 175 275 133 208 c 1,8,-1
 64 287 l 1,9,10
 97 332 97 332 132 355.5 c 128,-1,11
 167 379 167 379 218 379 c 0,12,13
 275 379 275 379 332 348 c 0,14,15
 388 315 388 315 429 315 c 0,16,17
 475 315 475 315 518 382 c 1,18,-1
 587 303 l 1,0,1
EndSplineSet
EndChar

StartChar: exclamdown
Encoding: 161 161 96
Width: 277
GlyphClass: 2
Flags: W
LayerCount: 2
Fore
SplineSet
190 370 m 1,0,-1
 190 -185 l 1,1,-1
 86 -185 l 1,2,-1
 86 370 l 1,3,-1
 190 370 l 1,0,-1
190 555 m 1,4,-1
 190 433 l 1,5,-1
 86 433 l 1,6,-1
 86 555 l 1,7,-1
 190 555 l 1,4,-1
EndSplineSet
EndChar

StartChar: cent
Encoding: 162 162 97
Width: 555
GlyphClass: 2
Flags: W
LayerCount: 2
Fore
SplineSet
397 282 m 1,0,-1
 514 282 l 1,1,2
 472 162 472 162 332 130 c 1,3,-1
 332 33 l 1,4,-1
 237 33 l 1,5,-1
 237 130 l 1,6,7
 178 143 178 143 136 172.5 c 128,-1,8
 94 202 94 202 74 239 c 128,-1,9
 54 276 54 276 46 308 c 128,-1,10
 38 340 38 340 38 371 c 0,11,12
 38 458 38 458 91 523.5 c 128,-1,13
 144 589 144 589 237 607 c 1,14,-1
 237 708 l 1,15,-1
 332 708 l 1,16,-1
 332 607 l 1,17,18
 468 585 468 585 517 448 c 1,19,-1
 398 448 l 1,20,21
 367 507 367 507 286 507 c 0,22,23
 216 507 216 507 179 463 c 128,-1,24
 142 419 142 419 142 366 c 0,25,26
 142 312 142 312 181.5 269.5 c 128,-1,27
 221 227 221 227 286 227 c 0,28,29
 359 227 359 227 397 282 c 1,0,-1
EndSplineSet
Substitution2: "'pnum' Proportional Numbers lookup 13 subtable" cent.fitted
Substitution2: "'aalt' Access All Alternates in Latin lookup 0 subtable" cent.fitted
EndChar

StartChar: sterling
Encoding: 163 163 98
Width: 555
GlyphClass: 2
Flags: W
LayerCount: 2
Fore
SplineSet
428 272 m 1,0,-1
 540 272 l 1,1,2
 546 240 546 240 546 217 c 0,3,4
 546 179 546 179 535 144 c 128,-1,5
 524 109 524 109 500 75 c 128,-1,6
 476 41 476 41 429.5 20.5 c 128,-1,7
 383 0 383 0 319 0 c 2,8,-1
 42 0 l 1,9,-1
 42 95 l 1,10,-1
 174 95 l 1,11,12
 194 133 194 133 195 182 c 0,13,14
 195 278 195 278 121 327 c 1,15,-1
 9 327 l 1,16,-1
 9 422 l 1,17,-1
 49 422 l 1,18,19
 26 463 26 463 26 512 c 0,20,21
 26 615 26 615 91.5 684.5 c 128,-1,22
 157 754 157 754 271 754 c 0,23,24
 356 754 356 754 425.5 701 c 128,-1,25
 495 648 495 648 514 554 c 1,26,-1
 401 554 l 1,27,28
 395 573 395 573 388.5 585 c 128,-1,29
 382 597 382 597 367.5 617 c 128,-1,30
 353 637 353 637 327.5 648 c 128,-1,31
 302 659 302 659 268 659 c 0,32,33
 205 659 205 659 167.5 616 c 128,-1,34
 130 573 130 573 130 512 c 0,35,36
 130 459 130 459 167 422 c 1,37,-1
 386 422 l 1,38,-1
 386 327 l 1,39,-1
 246 327 l 1,40,41
 299 281 299 281 299 182 c 0,42,43
 299 140 299 140 286 95 c 1,44,-1
 319 95 l 2,45,46
 385 95 385 95 413.5 132.5 c 128,-1,47
 442 170 442 170 442 216 c 0,48,49
 442 242 442 242 428 272 c 1,0,-1
EndSplineSet
Substitution2: "'pnum' Proportional Numbers lookup 13 subtable" sterling.fitted
Substitution2: "'aalt' Access All Alternates in Latin lookup 0 subtable" sterling.fitted
EndChar

StartChar: currency
Encoding: 164 164 99
Width: 555
GlyphClass: 2
Flags: W
LayerCount: 2
Fore
SplineSet
280 596 m 0,0,1
 355 596 355 596 420 552 c 1,2,-1
 464 596 l 1,3,-1
 528 533 l 1,4,-1
 483 488 l 1,5,6
 529 423 529 423 529 344 c 0,7,8
 529 268 529 268 484 202 c 1,9,-1
 528 159 l 1,10,-1
 464 95 l 1,11,-1
 421 138 l 1,12,13
 357 94 357 94 280 94 c 0,14,15
 199 94 199 94 134 140 c 1,16,-1
 89 95 l 1,17,-1
 26 158 l 1,18,-1
 71 203 l 1,19,20
 27 266 27 266 27 344 c 0,21,22
 27 423 27 423 71 487 c 1,23,-1
 27 532 l 1,24,-1
 89 597 l 1,25,-1
 135 551 l 1,26,27
 201 596 201 596 280 596 c 0,0,1
277 498 m 0,28,29
 213 498 213 498 169.5 452.5 c 128,-1,30
 126 407 126 407 126 343 c 0,31,32
 126 280 126 280 170 235 c 128,-1,33
 214 190 214 190 277 190 c 0,34,35
 342 190 342 190 386 234 c 128,-1,36
 430 278 430 278 430 343 c 0,37,38
 430 407 430 407 386 452.5 c 128,-1,39
 342 498 342 498 277 498 c 0,28,29
EndSplineSet
EndChar

StartChar: yen
Encoding: 165 165 100
Width: 555
GlyphClass: 2
Flags: W
LayerCount: 2
Fore
SplineSet
368 400 m 1,0,-1
 329 329 l 1,1,-1
 329 286 l 1,2,-1
 535 286 l 1,3,-1
 535 200 l 1,4,-1
 329 200 l 1,5,-1
 329 0 l 1,6,-1
 225 0 l 1,7,-1
 225 200 l 1,8,-1
 20 200 l 1,9,-1
 20 286 l 1,10,-1
 225 286 l 1,11,-1
 225 329 l 1,12,-1
 186 400 l 1,13,-1
 20 400 l 1,14,-1
 20 486 l 1,15,-1
 143 486 l 1,16,-1
 0 740 l 1,17,-1
 113 740 l 1,18,-1
 277 442 l 1,19,-1
 442 740 l 1,20,-1
 555 740 l 1,21,-1
 411 486 l 1,22,-1
 535 486 l 1,23,-1
 535 400 l 1,24,-1
 368 400 l 1,0,-1
EndSplineSet
Substitution2: "'pnum' Proportional Numbers lookup 13 subtable" yen.fitted
Substitution2: "'aalt' Access All Alternates in Latin lookup 0 subtable" yen.fitted
EndChar

StartChar: brokenbar
Encoding: 166 166 101
Width: 555
GlyphClass: 2
Flags: W
LayerCount: 2
Fore
SplineSet
225 740 m 1,0,-1
 330 740 l 1,1,-1
 330 448 l 1,2,-1
 225 448 l 1,3,-1
 225 740 l 1,0,-1
225 300 m 1,4,-1
 330 300 l 1,5,-1
 330 0 l 1,6,-1
 225 0 l 1,7,-1
 225 300 l 1,4,-1
EndSplineSet
EndChar

StartChar: section
Encoding: 167 167 102
Width: 573
GlyphClass: 2
Flags: W
LayerCount: 2
Fore
SplineSet
483 576 m 1,0,-1
 378 576 l 1,1,2
 375 655 375 655 291 655 c 0,3,4
 203 655 203 655 203 591 c 0,5,6
 203 560 203 560 229 540 c 128,-1,7
 255 520 255 520 349 471 c 0,8,9
 378 456 378 456 394 448 c 0,10,11
 419 435 419 435 427 430.5 c 128,-1,12
 435 426 435 426 458.5 410 c 128,-1,13
 482 394 482 394 492.5 380.5 c 128,-1,14
 503 367 503 367 513 344.5 c 128,-1,15
 523 322 523 322 523 297 c 0,16,17
 523 201 523 201 439 152 c 1,18,19
 499 103 499 103 499 36 c 0,20,21
 499 -52 499 -52 437.5 -100 c 128,-1,22
 376 -148 376 -148 283 -148 c 0,23,24
 195 -148 195 -148 137 -94.5 c 128,-1,25
 79 -41 79 -41 73 56 c 1,26,-1
 178 56 l 1,27,28
 187 -49 187 -49 290 -49 c 128,-1,29
 393 -49 393 -49 393 32 c 0,30,31
 393 49 393 49 389 60.5 c 128,-1,32
 385 72 385 72 365.5 89 c 128,-1,33
 346 106 346 106 309 124 c 0,34,35
 154 200 154 200 119 225 c 0,36,37
 60 266 60 266 52 322 c 0,38,39
 50 335 50 335 50 351 c 0,40,41
 50 450 50 450 138 497 c 1,42,43
 98 547 98 547 98 598 c 0,44,45
 98 659 98 659 145 706.5 c 128,-1,46
 192 754 192 754 286 754 c 0,47,48
 311 754 311 754 335 749.5 c 128,-1,49
 359 745 359 745 385.5 732.5 c 128,-1,50
 412 720 412 720 432.5 700.5 c 128,-1,51
 453 681 453 681 467 649 c 128,-1,52
 481 617 481 617 483 576 c 1,0,-1
352 358 m 2,53,-1
 200 438 l 1,54,55
 155 411 155 411 155 363 c 128,-1,56
 155 315 155 315 201 289 c 2,57,-1
 370 202 l 1,58,59
 398 223 398 223 408 237.5 c 128,-1,60
 418 252 418 252 418 281 c 0,61,62
 418 309 418 309 403 324 c 128,-1,63
 388 339 388 339 352 358 c 2,53,-1
EndSplineSet
EndChar

StartChar: dieresis
Encoding: 168 168 103
Width: 555
GlyphClass: 2
Flags: W
LayerCount: 2
Fore
SplineSet
303 740 m 1,0,-1
 407 740 l 1,1,-1
 407 618 l 1,2,-1
 303 618 l 1,3,-1
 303 740 l 1,0,-1
148 740 m 1,4,-1
 252 740 l 1,5,-1
 252 618 l 1,6,-1
 148 618 l 1,7,-1
 148 740 l 1,4,-1
EndSplineSet
EndChar

StartChar: copyright
Encoding: 169 169 104
Width: 784
GlyphClass: 2
Flags: W
LayerCount: 2
Fore
SplineSet
393 752 m 0,0,1
 551 752 551 752 662.5 639.5 c 128,-1,2
 774 527 774 527 774 370 c 0,3,4
 774 212 774 212 662 100 c 128,-1,5
 550 -12 550 -12 393 -12 c 0,6,7
 233 -12 233 -12 121.5 100.5 c 128,-1,8
 10 213 10 213 10 370 c 128,-1,9
 10 527 10 527 121.5 639.5 c 128,-1,10
 233 752 233 752 393 752 c 0,0,1
392 676 m 128,-1,12
 265 676 265 676 177.5 585.5 c 128,-1,13
 90 495 90 495 90 370 c 0,14,15
 90 243 90 243 178 153.5 c 128,-1,16
 266 64 266 64 392 64 c 128,-1,17
 518 64 518 64 606 153 c 128,-1,18
 694 242 694 242 694 370 c 0,19,20
 694 495 694 495 606.5 585.5 c 128,-1,11
 519 676 519 676 392 676 c 128,-1,12
594 465 m 1,21,-1
 508 465 l 1,22,23
 471 528 471 528 398 528 c 128,-1,24
 325 528 325 528 288 480.5 c 128,-1,25
 251 433 251 433 251 371 c 0,26,27
 251 306 251 306 290 260 c 128,-1,28
 329 214 329 214 396 214 c 0,29,30
 470 214 470 214 505 274 c 1,31,-1
 505 274 l 1,32,-1
 505 274 l 1,33,-1
 506 274 l 1,34,-1
 506 274 l 1,35,-1
 507 274 l 1,36,-1
 508 274 l 1,37,-1
 509 274 l 1,38,-1
 510 274 l 1,39,-1
 511 274 l 1,40,-1
 512 274 l 1,41,-1
 513 274 l 1,42,-1
 514 274 l 1,43,-1
 515 274 l 1,44,-1
 516 274 l 1,45,-1
 517 274 l 1,46,-1
 518 274 l 1,47,-1
 519 274 l 1,48,-1
 520 274 l 1,49,-1
 521 274 l 1,50,-1
 522 274 l 1,51,-1
 523 274 l 1,52,-1
 524 274 l 1,53,-1
 525 274 l 1,54,-1
 526 274 l 1,55,-1
 527 274 l 1,56,-1
 529 274 l 1,57,-1
 530 274 l 1,58,-1
 531 274 l 1,59,-1
 532 274 l 1,60,-1
 534 274 l 1,61,-1
 535 274 l 1,62,-1
 536 274 l 1,63,-1
 538 274 l 1,64,-1
 539 274 l 1,65,-1
 540 274 l 1,66,-1
 542 274 l 1,67,-1
 543 274 l 1,68,-1
 545 274 l 1,69,-1
 546 274 l 1,70,-1
 548 274 l 1,71,-1
 549 274 l 1,72,-1
 551 274 l 1,73,-1
 552 274 l 1,74,-1
 554 274 l 1,75,-1
 555 274 l 1,76,-1
 557 274 l 1,77,-1
 558 274 l 1,78,-1
 560 274 l 1,79,-1
 562 274 l 1,80,-1
 563 274 l 1,81,-1
 565 274 l 1,82,-1
 566 274 l 1,83,-1
 568 274 l 1,84,-1
 570 274 l 1,85,-1
 572 274 l 1,86,-1
 573 274 l 1,87,-1
 575 274 l 1,88,-1
 577 274 l 1,89,-1
 578 274 l 1,90,-1
 580 274 l 1,91,-1
 582 274 l 1,92,-1
 584 274 l 1,93,-1
 592 274 l 1,94,95
 570 214 570 214 516.5 178.5 c 128,-1,96
 463 143 463 143 398 143 c 0,97,98
 297 143 297 143 236 212 c 128,-1,99
 175 281 175 281 175 371 c 0,100,101
 175 463 175 463 237.5 531 c 128,-1,102
 300 599 300 599 399 599 c 0,103,104
 475 599 475 599 527 558 c 128,-1,105
 579 517 579 517 594 465 c 1,21,-1
EndSplineSet
EndChar

StartChar: ordfeminine
Encoding: 170 170 105
Width: 414
GlyphClass: 2
Flags: W
LayerCount: 2
Fore
SplineSet
359 746 m 1,0,-1
 359 438 l 1,1,-1
 279 438 l 1,2,-1
 279 473 l 1,3,-1
 277 473 l 1,4,5
 268 456 268 456 243 443 c 128,-1,6
 218 430 218 430 188 430 c 0,7,8
 115 430 115 430 70.5 478 c 128,-1,9
 26 526 26 526 26 591 c 0,10,11
 26 654 26 654 69.5 704 c 128,-1,12
 113 754 113 754 190 754 c 0,13,14
 249 754 249 754 277 711 c 1,15,-1
 279 711 l 1,16,-1
 279 746 l 1,17,-1
 359 746 l 1,0,-1
280 592 m 0,18,19
 280 630 280 630 254.5 654.5 c 128,-1,20
 229 679 229 679 190 679 c 0,21,22
 150 679 150 679 128 652 c 128,-1,23
 106 625 106 625 106 591 c 0,24,25
 106 556 106 556 130 530.5 c 128,-1,26
 154 505 154 505 189 505 c 0,27,28
 229 505 229 505 254.5 528 c 128,-1,29
 280 551 280 551 280 592 c 0,18,19
EndSplineSet
EndChar

StartChar: guillemotleft
Encoding: 171 171 106
Width: 372
GlyphClass: 2
Flags: W
LayerCount: 2
Fore
SplineSet
338 475 m 1,0,-1
 338 362 l 1,1,-1
 263 288 l 1,2,-1
 338 214 l 1,3,-1
 338 102 l 1,4,-1
 201 236 l 1,5,-1
 201 339 l 1,6,-1
 338 475 l 1,0,-1
171 475 m 1,7,-1
 171 362 l 1,8,-1
 96 288 l 1,9,-1
 171 214 l 1,10,-1
 171 102 l 1,11,-1
 34 236 l 1,12,-1
 34 339 l 1,13,-1
 171 475 l 1,7,-1
EndSplineSet
EndChar

StartChar: logicalnot
Encoding: 172 172 107
Width: 600
GlyphClass: 2
Flags: W
LayerCount: 2
Fore
SplineSet
448 114 m 1,0,-1
 448 316 l 1,1,-1
 48 316 l 1,2,-1
 48 420 l 1,3,-1
 552 420 l 1,4,-1
 552 114 l 1,5,-1
 448 114 l 1,0,-1
EndSplineSet
EndChar

StartChar: uni00AD
Encoding: 173 173 108
Width: 390
GlyphClass: 2
Flags: W
LayerCount: 2
Fore
SplineSet
335 237 m 1,0,-1
 55 237 l 1,1,-1
 55 341 l 1,2,-1
 335 341 l 1,3,-1
 335 237 l 1,0,-1
EndSplineSet
EndChar

StartChar: registered
Encoding: 174 174 109
Width: 784
GlyphClass: 2
Flags: W
LayerCount: 2
Fore
SplineSet
393 752 m 0,0,1
 551 752 551 752 662.5 639.5 c 128,-1,2
 774 527 774 527 774 370 c 0,3,4
 774 212 774 212 662 100 c 128,-1,5
 550 -12 550 -12 393 -12 c 0,6,7
 233 -12 233 -12 121.5 100.5 c 128,-1,8
 10 213 10 213 10 370 c 128,-1,9
 10 527 10 527 121.5 639.5 c 128,-1,10
 233 752 233 752 393 752 c 0,0,1
392 676 m 128,-1,12
 265 676 265 676 177.5 585.5 c 128,-1,13
 90 495 90 495 90 370 c 0,14,15
 90 243 90 243 178 153.5 c 128,-1,16
 266 64 266 64 392 64 c 128,-1,17
 518 64 518 64 606 153 c 128,-1,18
 694 242 694 242 694 370 c 0,19,20
 694 495 694 495 606.5 585.5 c 128,-1,11
 519 676 519 676 392 676 c 128,-1,12
556 148 m 1,21,-1
 466 148 l 1,22,-1
 322 350 l 1,23,-1
 320 350 l 1,24,-1
 320 148 l 1,25,-1
 245 148 l 1,26,-1
 245 585 l 1,27,-1
 404 585 l 2,28,29
 476 585 476 585 520 545 c 0,30,31
 560 506 560 506 560 444 c 0,32,33
 560 406 560 406 546 377 c 128,-1,34
 532 348 532 348 511 334.5 c 128,-1,35
 490 321 490 321 472.5 314.5 c 128,-1,36
 455 308 455 308 442 308 c 1,37,-1
 556 148 l 1,21,-1
320 514 m 1,38,-1
 320 361 l 1,39,-1
 374 361 l 2,40,41
 485 361 485 361 485 439 c 0,42,43
 485 470 485 470 463 492 c 128,-1,44
 441 514 441 514 395 514 c 2,45,-1
 320 514 l 1,38,-1
EndSplineSet
EndChar

StartChar: macron
Encoding: 175 175 110
Width: 555
GlyphClass: 2
Flags: W
LayerCount: 2
Fore
SplineSet
455 645 m 1,0,-1
 100 645 l 1,1,-1
 100 720 l 1,2,-1
 455 720 l 1,3,-1
 455 645 l 1,0,-1
EndSplineSet
EndChar

StartChar: degree
Encoding: 176 176 111
Width: 385
GlyphClass: 2
Flags: W
LayerCount: 2
Fore
SplineSet
358 593 m 0,0,1
 358 532 358 532 312 481 c 128,-1,2
 266 430 266 430 192 430 c 0,3,4
 119 430 119 430 72.5 480.5 c 128,-1,5
 26 531 26 531 26 594 c 0,6,7
 26 658 26 658 74 706 c 128,-1,8
 122 754 122 754 192 754 c 0,9,10
 261 754 261 754 309.5 706.5 c 128,-1,11
 358 659 358 659 358 593 c 0,0,1
278 593 m 0,12,13
 278 627 278 627 254 653 c 128,-1,14
 230 679 230 679 192 679 c 128,-1,15
 154 679 154 679 130 653 c 128,-1,16
 106 627 106 627 106 592 c 0,17,18
 106 558 106 558 130.5 531.5 c 128,-1,19
 155 505 155 505 192 505 c 128,-1,20
 229 505 229 505 253.5 531 c 128,-1,21
 278 557 278 557 278 593 c 0,12,13
EndSplineSet
EndChar

StartChar: plusminus
Encoding: 177 177 112
Width: 600
GlyphClass: 2
Flags: W
LayerCount: 2
Fore
SplineSet
248 417 m 1,0,-1
 248 579 l 1,1,-1
 352 579 l 1,2,-1
 352 417 l 1,3,-1
 552 417 l 1,4,-1
 552 313 l 1,5,-1
 352 313 l 1,6,-1
 352 151 l 1,7,-1
 248 151 l 1,8,-1
 248 313 l 1,9,-1
 48 313 l 1,10,-1
 48 417 l 1,11,-1
 248 417 l 1,0,-1
48 -19 m 1,12,-1
 48 85 l 1,13,-1
 552 85 l 1,14,-1
 552 -19 l 1,15,-1
 48 -19 l 1,12,-1
EndSplineSet
EndChar

StartChar: twosuperior
Encoding: 178 178 113
Width: 351
GlyphClass: 2
Flags: W
LayerCount: 2
Fore
SplineSet
318 296 m 1,0,-1
 28 296 l 1,1,-1
 28 358 l 1,2,-1
 198 530 l 2,3,4
 237 569 237 569 237 604 c 0,5,6
 237 632 237 632 219.5 653 c 128,-1,7
 202 674 202 674 173 674 c 0,8,9
 142 674 142 674 123.5 653 c 128,-1,10
 105 632 105 632 105 602 c 2,11,-1
 105 584 l 1,12,-1
 25 584 l 1,13,-1
 25 604 l 2,14,15
 25 662 25 662 66.5 706 c 128,-1,16
 108 750 108 750 170 750 c 128,-1,17
 232 750 232 750 274.5 706.5 c 128,-1,18
 317 663 317 663 317 604 c 0,19,20
 317 577 317 577 306.5 552 c 128,-1,21
 296 527 296 527 286.5 515.5 c 128,-1,22
 277 504 277 504 258 483 c 2,23,-1
 148 372 l 1,24,-1
 318 372 l 1,25,-1
 318 296 l 1,0,-1
EndSplineSet
EndChar

StartChar: threesuperior
Encoding: 179 179 114
Width: 335
GlyphClass: 2
Flags: W
LayerCount: 2
Fore
SplineSet
16 432 m 1,0,-1
 96 432 l 1,1,2
 98 409 98 409 107 393.5 c 128,-1,3
 116 378 116 378 129 372 c 128,-1,4
 142 366 142 366 150.5 364 c 128,-1,5
 159 362 159 362 168 362 c 0,6,7
 200 362 200 362 218 382 c 128,-1,8
 236 402 236 402 236 430 c 0,9,10
 236 461 236 461 215 480 c 128,-1,11
 194 499 194 499 164 499 c 2,12,-1
 138 499 l 1,13,-1
 138 575 l 1,14,-1
 163 575 l 2,15,16
 186 575 186 575 199.5 588.5 c 128,-1,17
 213 602 213 602 214.5 611 c 128,-1,18
 216 620 216 620 216 627 c 0,19,20
 216 647 216 647 203.5 660.5 c 128,-1,21
 191 674 191 674 168 674 c 0,22,23
 125 674 125 674 121 624 c 1,24,-1
 41 624 l 1,25,26
 41 689 41 689 89 723 c 0,27,28
 125 750 125 750 168 750 c 0,29,30
 216 750 216 750 256 715 c 128,-1,31
 296 680 296 680 296 621 c 0,32,33
 296 599 296 599 288.5 581.5 c 128,-1,34
 281 564 281 564 275 557 c 128,-1,35
 269 550 269 550 256 538 c 1,36,37
 316 503 316 503 316 430 c 0,38,39
 316 367 316 367 270 326.5 c 128,-1,40
 224 286 224 286 164 286 c 0,41,42
 107 286 107 286 61.5 326 c 128,-1,43
 16 366 16 366 16 432 c 1,0,-1
EndSplineSet
EndChar

StartChar: acute
Encoding: 180 180 115
Width: 555
GlyphClass: 2
Flags: W
LayerCount: 2
Fore
SplineSet
206 611 m 1,0,-1
 164 686 l 1,1,-1
 387 814 l 1,2,-1
 431 733 l 1,3,-1
 206 611 l 1,0,-1
EndSplineSet
EndChar

StartChar: mu
Encoding: 181 181 116
AltUni2: 0003bc.ffffffff.0
Width: 616
GlyphClass: 2
Flags: W
LayerCount: 2
Fore
SplineSet
70 -185 m 1,0,-1
 70 554 l 1,1,-1
 174 554 l 1,2,-1
 174 284 l 2,3,4
 174 185 174 185 197 142 c 0,5,6
 211 115 211 115 238.5 98 c 128,-1,7
 266 81 266 81 302 81 c 0,8,9
 442 81 442 81 442 295 c 2,10,-1
 442 554 l 1,11,-1
 546 554 l 1,12,-1
 546 0 l 1,13,-1
 442 0 l 1,14,-1
 442 60 l 1,15,-1
 440 60 l 1,16,17
 397 -14 397 -14 302 -14 c 0,18,19
 221 -14 221 -14 176 38 c 1,20,-1
 174 38 l 1,21,-1
 174 -185 l 1,22,-1
 70 -185 l 1,0,-1
EndSplineSet
EndChar

StartChar: paragraph
Encoding: 182 182 117
Width: 590
GlyphClass: 2
Flags: W
LayerCount: 2
Fore
SplineSet
228 -128 m 1,0,-1
 228 330 l 1,1,2
 142 331 142 331 89.5 387 c 128,-1,3
 37 443 37 443 37 534 c 0,4,5
 37 628 37 628 94 684 c 128,-1,6
 151 740 151 740 250 740 c 2,7,-1
 515 740 l 1,8,-1
 515 -128 l 1,9,-1
 422 -128 l 1,10,-1
 422 642 l 1,11,-1
 321 642 l 1,12,-1
 321 -128 l 1,13,-1
 228 -128 l 1,0,-1
EndSplineSet
EndChar

StartChar: periodcentered
Encoding: 183 183 118
Width: 277
GlyphClass: 2
Flags: W
LayerCount: 2
Fore
SplineSet
184 234 m 1,0,-1
 93 234 l 1,1,-1
 93 342 l 1,2,-1
 184 342 l 1,3,-1
 184 234 l 1,0,-1
EndSplineSet
EndChar

StartChar: cedilla
Encoding: 184 184 119
Width: 555
GlyphClass: 2
Flags: W
LayerCount: 2
Fore
SplineSet
233 0 m 1,0,-1
 286 0 l 1,1,-1
 259 -61 l 1,2,3
 274 -55 274 -55 293 -55 c 0,4,5
 316 -55 316 -55 333 -63 c 0,6,7
 382 -84 382 -84 382 -143 c 0,8,9
 382 -175 382 -175 373 -192 c 0,10,11
 345 -246 345 -246 274 -246 c 0,12,13
 264 -246 264 -246 253.5 -244 c 128,-1,14
 243 -242 243 -242 224 -236 c 128,-1,15
 205 -230 205 -230 191 -213 c 128,-1,16
 177 -196 177 -196 173 -171 c 1,17,-1
 231 -166 l 1,18,19
 234 -179 234 -179 245 -189.5 c 128,-1,20
 256 -200 256 -200 275 -200 c 0,21,22
 324 -200 324 -200 324 -145 c 0,23,24
 324 -124 324 -124 311 -111 c 128,-1,25
 298 -98 298 -98 276 -98 c 0,26,27
 253 -98 253 -98 239 -115 c 1,28,-1
 187 -97 l 1,29,-1
 233 0 l 1,0,-1
EndSplineSet
EndChar

StartChar: onesuperior
Encoding: 185 185 120
Width: 246
GlyphClass: 2
Flags: W
LayerCount: 2
Fore
SplineSet
177 740 m 1,0,-1
 177 296 l 1,1,-1
 97 296 l 1,2,-1
 97 664 l 1,3,-1
 35 664 l 1,4,-1
 35 740 l 1,5,-1
 177 740 l 1,0,-1
EndSplineSet
EndChar

StartChar: ordmasculine
Encoding: 186 186 121
Width: 385
GlyphClass: 2
Flags: W
LayerCount: 2
Fore
SplineSet
358 593 m 0,0,1
 358 532 358 532 312 481 c 128,-1,2
 266 430 266 430 192 430 c 0,3,4
 119 430 119 430 72.5 480.5 c 128,-1,5
 26 531 26 531 26 594 c 0,6,7
 26 658 26 658 74 706 c 128,-1,8
 122 754 122 754 192 754 c 0,9,10
 261 754 261 754 309.5 706.5 c 128,-1,11
 358 659 358 659 358 593 c 0,0,1
278 593 m 0,12,13
 278 627 278 627 254 653 c 128,-1,14
 230 679 230 679 192 679 c 128,-1,15
 154 679 154 679 130 653 c 128,-1,16
 106 627 106 627 106 592 c 0,17,18
 106 558 106 558 130.5 531.5 c 128,-1,19
 155 505 155 505 192 505 c 128,-1,20
 229 505 229 505 253.5 531 c 128,-1,21
 278 557 278 557 278 593 c 0,12,13
EndSplineSet
EndChar

StartChar: guillemotright
Encoding: 187 187 122
Width: 372
GlyphClass: 2
Flags: W
LayerCount: 2
Fore
SplineSet
34 362 m 1,0,-1
 34 475 l 1,1,-1
 171 339 l 1,2,-1
 171 236 l 1,3,-1
 34 102 l 1,4,-1
 34 214 l 1,5,-1
 109 288 l 1,6,-1
 34 362 l 1,0,-1
201 362 m 1,7,-1
 201 475 l 1,8,-1
 338 339 l 1,9,-1
 338 236 l 1,10,-1
 201 102 l 1,11,-1
 201 214 l 1,12,-1
 276 288 l 1,13,-1
 201 362 l 1,7,-1
EndSplineSet
EndChar

StartChar: onequarter
Encoding: 188 188 123
Width: 700
GlyphClass: 3
Flags: W
LayerCount: 2
Fore
SplineSet
200 0 m 1,0,-1
 127 0 l 1,1,-1
 460 740 l 1,2,-1
 533 740 l 1,3,-1
 200 0 l 1,0,-1
636 444 m 1,4,-1
 636 137 l 1,5,-1
 684 137 l 1,6,-1
 684 69 l 1,7,-1
 636 69 l 1,8,-1
 636 0 l 1,9,-1
 566 0 l 1,10,-1
 566 69 l 1,11,-1
 360 69 l 1,12,-1
 360 138 l 1,13,-1
 568 444 l 1,14,-1
 636 444 l 1,4,-1
443 137 m 1,15,-1
 566 137 l 1,16,-1
 566 327 l 1,17,-1
 564 327 l 1,18,-1
 443 137 l 1,15,-1
158 740 m 1,19,-1
 158 296 l 1,20,-1
 78 296 l 1,21,-1
 78 664 l 1,22,-1
 16 664 l 1,23,-1
 16 740 l 1,24,-1
 158 740 l 1,19,-1
EndSplineSet
Ligature2: "'frac' Diagonal Fractions lookup 5 subtable" one fraction four
Ligature2: "'frac' Diagonal Fractions lookup 5 subtable" one slash four
EndChar

StartChar: onehalf
Encoding: 189 189 124
Width: 714
GlyphClass: 3
Flags: W
LayerCount: 2
Fore
SplineSet
158 740 m 1,0,-1
 158 296 l 1,1,-1
 78 296 l 1,2,-1
 78 664 l 1,3,-1
 16 664 l 1,4,-1
 16 740 l 1,5,-1
 158 740 l 1,0,-1
174 0 m 1,6,-1
 101 0 l 1,7,-1
 437 740 l 1,8,-1
 510 740 l 1,9,-1
 174 0 l 1,6,-1
698 0 m 1,10,-1
 408 0 l 1,11,-1
 408 62 l 1,12,-1
 578 234 l 2,13,14
 617 273 617 273 617 308 c 0,15,16
 617 336 617 336 599.5 357 c 128,-1,17
 582 378 582 378 553 378 c 0,18,19
 522 378 522 378 503.5 357 c 128,-1,20
 485 336 485 336 485 306 c 2,21,-1
 485 288 l 1,22,-1
 405 288 l 1,23,-1
 405 308 l 2,24,25
 405 366 405 366 446.5 410 c 128,-1,26
 488 454 488 454 550 454 c 128,-1,27
 612 454 612 454 654.5 410.5 c 128,-1,28
 697 367 697 367 697 308 c 0,29,30
 697 281 697 281 686.5 256 c 128,-1,31
 676 231 676 231 666.5 219.5 c 128,-1,32
 657 208 657 208 638 187 c 2,33,-1
 528 76 l 1,34,-1
 698 76 l 1,35,-1
 698 0 l 1,10,-1
EndSplineSet
Ligature2: "'frac' Diagonal Fractions lookup 5 subtable" one fraction two
Ligature2: "'frac' Diagonal Fractions lookup 5 subtable" one slash two
EndChar

StartChar: threequarters
Encoding: 190 190 125
Width: 781
GlyphClass: 3
Flags: W
LayerCount: 2
Fore
SplineSet
281 0 m 1,0,-1
 208 0 l 1,1,-1
 541 740 l 1,2,-1
 614 740 l 1,3,-1
 281 0 l 1,0,-1
717 444 m 1,4,-1
 717 137 l 1,5,-1
 765 137 l 1,6,-1
 765 69 l 1,7,-1
 717 69 l 1,8,-1
 717 0 l 1,9,-1
 647 0 l 1,10,-1
 647 69 l 1,11,-1
 441 69 l 1,12,-1
 441 138 l 1,13,-1
 649 444 l 1,14,-1
 717 444 l 1,4,-1
524 137 m 1,15,-1
 647 137 l 1,16,-1
 647 327 l 1,17,-1
 645 327 l 1,18,-1
 524 137 l 1,15,-1
16 432 m 1,19,-1
 96 432 l 1,20,21
 98 409 98 409 107 393.5 c 128,-1,22
 116 378 116 378 129 372 c 128,-1,23
 142 366 142 366 150.5 364 c 128,-1,24
 159 362 159 362 168 362 c 0,25,26
 200 362 200 362 218 382 c 128,-1,27
 236 402 236 402 236 430 c 0,28,29
 236 461 236 461 215 480 c 128,-1,30
 194 499 194 499 164 499 c 2,31,-1
 138 499 l 1,32,-1
 138 575 l 1,33,-1
 163 575 l 2,34,35
 186 575 186 575 199.5 588.5 c 128,-1,36
 213 602 213 602 214.5 611 c 128,-1,37
 216 620 216 620 216 627 c 0,38,39
 216 647 216 647 203.5 660.5 c 128,-1,40
 191 674 191 674 168 674 c 0,41,42
 125 674 125 674 121 624 c 1,43,-1
 41 624 l 1,44,45
 41 689 41 689 89 723 c 0,46,47
 125 750 125 750 168 750 c 0,48,49
 216 750 216 750 256 715 c 128,-1,50
 296 680 296 680 296 621 c 0,51,52
 296 599 296 599 288.5 581.5 c 128,-1,53
 281 564 281 564 275 557 c 128,-1,54
 269 550 269 550 256 538 c 1,55,56
 316 503 316 503 316 430 c 0,57,58
 316 367 316 367 270 326.5 c 128,-1,59
 224 286 224 286 164 286 c 0,60,61
 107 286 107 286 61.5 326 c 128,-1,62
 16 366 16 366 16 432 c 1,19,-1
EndSplineSet
Ligature2: "'frac' Diagonal Fractions lookup 5 subtable" three fraction four
Ligature2: "'frac' Diagonal Fractions lookup 5 subtable" three slash four
EndChar

StartChar: questiondown
Encoding: 191 191 126
Width: 518
GlyphClass: 2
Flags: W
LayerCount: 2
Fore
SplineSet
215 365 m 1,0,-1
 319 365 l 1,1,2
 318 312 318 312 299 265.5 c 128,-1,3
 280 219 280 219 261.5 195 c 128,-1,4
 243 171 243 171 215 143 c 0,5,6
 162 87 162 87 154 72 c 0,7,8
 144 54 144 54 144 29 c 0,9,10
 144 -22 144 -22 179 -58 c 128,-1,11
 214 -94 214 -94 262 -94 c 0,12,13
 321 -94 321 -94 361 -40 c 0,14,15
 377 -17 377 -17 382 26 c 1,16,-1
 486 26 l 1,17,18
 483 -34 483 -34 460 -80 c 128,-1,19
 437 -126 437 -126 402 -150.5 c 128,-1,20
 367 -175 367 -175 331.5 -187 c 128,-1,21
 296 -199 296 -199 261 -199 c 0,22,23
 166 -199 166 -199 103 -131 c 128,-1,24
 40 -63 40 -63 40 25 c 0,25,26
 40 69 40 69 54.5 104.5 c 128,-1,27
 69 140 69 140 84.5 157.5 c 128,-1,28
 100 175 100 175 129 200 c 0,29,30
 155 223 155 223 171.5 244.5 c 128,-1,31
 188 266 188 266 196.5 290 c 128,-1,32
 205 314 205 314 207.5 325.5 c 128,-1,33
 210 337 210 337 215 365 c 1,0,-1
215 433 m 1,34,-1
 215 555 l 1,35,-1
 319 555 l 1,36,-1
 319 433 l 1,37,-1
 215 433 l 1,34,-1
EndSplineSet
EndChar

StartChar: Agrave
Encoding: 192 192 127
Width: 683
GlyphClass: 2
Flags: W
LayerCount: 2
Fore
SplineSet
671 0 m 1,0,-1
 556 0 l 1,1,-1
 474 218 l 1,2,-1
 208 218 l 1,3,-1
 126 0 l 1,4,-1
 12 0 l 1,5,-1
 293 740 l 1,6,-1
 390 740 l 1,7,-1
 671 0 l 1,0,-1
246 317 m 1,8,-1
 437 317 l 1,9,-1
 343 600 l 1,10,-1
 341 600 l 1,11,-1
 246 317 l 1,8,-1
250 980 m 1,12,-1
 475 857 l 1,13,-1
 431 777 l 1,14,-1
 208 905 l 1,15,-1
 250 980 l 1,12,-1
EndSplineSet
Position2: "'cpsp' Capital Spacing lookup 0 subtable" dx=5 dy=0 dh=10 dv=0
EndChar

StartChar: Aacute
Encoding: 193 193 128
Width: 683
GlyphClass: 2
Flags: W
LayerCount: 2
Fore
SplineSet
671 0 m 1,0,-1
 556 0 l 1,1,-1
 474 218 l 1,2,-1
 208 218 l 1,3,-1
 126 0 l 1,4,-1
 12 0 l 1,5,-1
 293 740 l 1,6,-1
 390 740 l 1,7,-1
 671 0 l 1,0,-1
246 317 m 1,8,-1
 437 317 l 1,9,-1
 343 600 l 1,10,-1
 341 600 l 1,11,-1
 246 317 l 1,8,-1
270 777 m 1,12,-1
 228 852 l 1,13,-1
 451 980 l 1,14,-1
 495 899 l 1,15,-1
 270 777 l 1,12,-1
EndSplineSet
Position2: "'cpsp' Capital Spacing lookup 0 subtable" dx=5 dy=0 dh=10 dv=0
EndChar

StartChar: Acircumflex
Encoding: 194 194 129
Width: 683
GlyphClass: 2
Flags: W
LayerCount: 2
Fore
SplineSet
671 0 m 1,0,-1
 556 0 l 1,1,-1
 474 218 l 1,2,-1
 208 218 l 1,3,-1
 126 0 l 1,4,-1
 12 0 l 1,5,-1
 293 740 l 1,6,-1
 390 740 l 1,7,-1
 671 0 l 1,0,-1
246 317 m 1,8,-1
 437 317 l 1,9,-1
 343 600 l 1,10,-1
 341 600 l 1,11,-1
 246 317 l 1,8,-1
532 790 m 1,12,-1
 413 790 l 1,13,-1
 344 859 l 1,14,-1
 272 790 l 1,15,-1
 153 790 l 1,16,-1
 292 925 l 1,17,-1
 392 925 l 1,18,-1
 532 790 l 1,12,-1
EndSplineSet
Position2: "'cpsp' Capital Spacing lookup 0 subtable" dx=5 dy=0 dh=10 dv=0
EndChar

StartChar: Atilde
Encoding: 195 195 130
Width: 683
GlyphClass: 2
Flags: W
LayerCount: 2
Fore
SplineSet
671 0 m 1,0,-1
 556 0 l 1,1,-1
 474 218 l 1,2,-1
 208 218 l 1,3,-1
 126 0 l 1,4,-1
 12 0 l 1,5,-1
 293 740 l 1,6,-1
 390 740 l 1,7,-1
 671 0 l 1,0,-1
246 317 m 1,8,-1
 437 317 l 1,9,-1
 343 600 l 1,10,-1
 341 600 l 1,11,-1
 246 317 l 1,8,-1
505 859 m 1,12,13
 454 813 454 813 407 813 c 0,14,15
 377 813 377 813 340 827 c 128,-1,16
 303 841 303 841 287 841 c 0,17,18
 263 841 263 841 230 817 c 1,19,-1
 189 882 l 1,20,21
 242 923 242 923 286 923 c 0,22,23
 311 923 311 923 345 909 c 128,-1,24
 379 895 379 895 400 895 c 0,25,26
 431 895 431 895 464 924 c 1,27,-1
 505 859 l 1,12,13
EndSplineSet
Position2: "'cpsp' Capital Spacing lookup 0 subtable" dx=5 dy=0 dh=10 dv=0
EndChar

StartChar: Adieresis
Encoding: 196 196 131
Width: 683
GlyphClass: 2
Flags: W
LayerCount: 2
Fore
SplineSet
671 0 m 1,0,-1
 556 0 l 1,1,-1
 474 218 l 1,2,-1
 208 218 l 1,3,-1
 126 0 l 1,4,-1
 12 0 l 1,5,-1
 293 740 l 1,6,-1
 390 740 l 1,7,-1
 671 0 l 1,0,-1
246 317 m 1,8,-1
 437 317 l 1,9,-1
 343 600 l 1,10,-1
 341 600 l 1,11,-1
 246 317 l 1,8,-1
472 922 m 1,12,-1
 472 800 l 1,13,-1
 368 800 l 1,14,-1
 368 922 l 1,15,-1
 472 922 l 1,12,-1
213 922 m 1,16,-1
 317 922 l 1,17,-1
 317 800 l 1,18,-1
 213 800 l 1,19,-1
 213 922 l 1,16,-1
EndSplineSet
Position2: "'cpsp' Capital Spacing lookup 0 subtable" dx=5 dy=0 dh=10 dv=0
EndChar

StartChar: Aring
Encoding: 197 197 132
Width: 683
GlyphClass: 2
Flags: W
LayerCount: 2
Fore
SplineSet
671 0 m 1,0,-1
 556 0 l 1,1,-1
 474 218 l 1,2,-1
 208 218 l 1,3,-1
 126 0 l 1,4,-1
 12 0 l 1,5,-1
 293 740 l 1,6,-1
 390 740 l 1,7,-1
 671 0 l 1,0,-1
246 317 m 1,8,-1
 437 317 l 1,9,-1
 343 600 l 1,10,-1
 341 600 l 1,11,-1
 246 317 l 1,8,-1
453 890 m 128,-1,13
 453 845 453 845 420 812.5 c 128,-1,14
 387 780 387 780 342 780 c 0,15,16
 296 780 296 780 264 812 c 128,-1,17
 232 844 232 844 232 890 c 0,18,19
 232 935 232 935 264.5 968 c 128,-1,20
 297 1001 297 1001 342 1001 c 128,-1,21
 387 1001 387 1001 420 968 c 128,-1,12
 453 935 453 935 453 890 c 128,-1,13
394 890 m 0,22,23
 394 912 394 912 379 927 c 128,-1,24
 364 942 364 942 342 942 c 0,25,26
 321 942 321 942 306 927 c 128,-1,27
 291 912 291 912 291 890 c 0,28,29
 291 869 291 869 306 854 c 128,-1,30
 321 839 321 839 342 839 c 0,31,32
 364 839 364 839 379 854 c 128,-1,33
 394 869 394 869 394 890 c 0,22,23
EndSplineSet
Position2: "'cpsp' Capital Spacing lookup 0 subtable" dx=5 dy=0 dh=10 dv=0
EndChar

StartChar: AE
Encoding: 198 198 133
Width: 930
GlyphClass: 3
Flags: W
LayerCount: 2
Fore
SplineSet
505 740 m 1,0,-1
 874 740 l 1,1,-1
 874 641 l 1,2,-1
 622 641 l 1,3,-1
 622 423 l 1,4,-1
 874 423 l 1,5,-1
 874 324 l 1,6,-1
 622 324 l 1,7,-1
 622 99 l 1,8,-1
 874 99 l 1,9,-1
 874 0 l 1,10,-1
 514 0 l 1,11,-1
 514 205 l 1,12,-1
 270 205 l 1,13,-1
 135 0 l 1,14,-1
 8 0 l 1,15,-1
 505 740 l 1,0,-1
341 304 m 1,16,-1
 514 304 l 1,17,-1
 514 580 l 1,18,-1
 513 580 l 1,19,-1
 511 580 l 1,20,-1
 341 304 l 1,16,-1
EndSplineSet
Ligature2: "'dpng' Diphthongs (Obsolete) lookup 4 subtable" A E
Position2: "'cpsp' Capital Spacing lookup 0 subtable" dx=5 dy=0 dh=10 dv=0
EndChar

StartChar: Ccedilla
Encoding: 199 199 134
Width: 782
GlyphClass: 2
Flags: W
LayerCount: 2
Fore
SplineSet
759 551 m 1,0,-1
 629 551 l 1,1,2
 537 655 537 655 421 655 c 0,3,4
 306 655 306 655 226 572 c 128,-1,5
 146 489 146 489 146 372 c 0,6,7
 146 254 146 254 228 169.5 c 128,-1,8
 310 85 310 85 419 85 c 0,9,10
 538 85 538 85 621 183 c 1,11,-1
 754 183 l 1,12,13
 696 81 696 81 605.5 33.5 c 128,-1,14
 515 -14 515 -14 418 -14 c 2,15,-1
 415 -14 l 1,16,-1
 394 -61 l 1,17,18
 410 -54 410 -54 428 -54 c 0,19,20
 450 -54 450 -54 471 -64 c 0,21,22
 522 -88 522 -88 522 -151 c 0,23,24
 522 -182 522 -182 512 -203 c 0,25,26
 486 -260 486 -260 407 -260 c 0,27,28
 397 -260 397 -260 386 -258 c 128,-1,29
 375 -256 375 -256 355 -249.5 c 128,-1,30
 335 -243 335 -243 320.5 -225.5 c 128,-1,31
 306 -208 306 -208 301 -181 c 1,32,-1
 358 -176 l 1,33,34
 361 -189 361 -189 375.5 -201.5 c 128,-1,35
 390 -214 390 -214 411 -214 c 0,36,37
 464 -214 464 -214 464 -153 c 0,38,39
 464 -127 464 -127 450.5 -112.5 c 128,-1,40
 437 -98 437 -98 413 -98 c 0,41,42
 386 -98 386 -98 374 -116 c 1,43,-1
 322 -97 l 1,44,-1
 363 -10 l 1,45,46
 225 10 225 10 131.5 119.5 c 128,-1,47
 38 229 38 229 38 373 c 0,48,49
 38 533 38 533 150 643.5 c 128,-1,50
 262 754 262 754 419 754 c 0,51,52
 546 754 546 754 645 682 c 0,53,54
 711 635 711 635 759 551 c 1,0,-1
EndSplineSet
Position2: "'cpsp' Capital Spacing lookup 0 subtable" dx=5 dy=0 dh=10 dv=0
EndChar

StartChar: Egrave
Encoding: 200 200 135
Width: 530
GlyphClass: 2
Flags: W
LayerCount: 2
Fore
SplineSet
474 0 m 1,0,-1
 75 0 l 1,1,-1
 75 740 l 1,2,-1
 474 740 l 1,3,-1
 474 641 l 1,4,-1
 183 641 l 1,5,-1
 183 423 l 1,6,-1
 474 423 l 1,7,-1
 474 324 l 1,8,-1
 183 324 l 1,9,-1
 183 99 l 1,10,-1
 474 99 l 1,11,-1
 474 0 l 1,0,-1
159 980 m 1,12,-1
 384 857 l 1,13,-1
 340 777 l 1,14,-1
 117 905 l 1,15,-1
 159 980 l 1,12,-1
EndSplineSet
Position2: "'cpsp' Capital Spacing lookup 0 subtable" dx=5 dy=0 dh=10 dv=0
EndChar

StartChar: Eacute
Encoding: 201 201 136
Width: 530
GlyphClass: 2
Flags: W
LayerCount: 2
Fore
SplineSet
474 0 m 1,0,-1
 75 0 l 1,1,-1
 75 740 l 1,2,-1
 474 740 l 1,3,-1
 474 641 l 1,4,-1
 183 641 l 1,5,-1
 183 423 l 1,6,-1
 474 423 l 1,7,-1
 474 324 l 1,8,-1
 183 324 l 1,9,-1
 183 99 l 1,10,-1
 474 99 l 1,11,-1
 474 0 l 1,0,-1
188 777 m 1,12,-1
 146 852 l 1,13,-1
 369 980 l 1,14,-1
 413 899 l 1,15,-1
 188 777 l 1,12,-1
EndSplineSet
Position2: "'cpsp' Capital Spacing lookup 0 subtable" dx=5 dy=0 dh=10 dv=0
EndChar

StartChar: Ecircumflex
Encoding: 202 202 137
Width: 530
GlyphClass: 2
Flags: W
LayerCount: 2
Fore
SplineSet
474 0 m 1,0,-1
 75 0 l 1,1,-1
 75 740 l 1,2,-1
 474 740 l 1,3,-1
 474 641 l 1,4,-1
 183 641 l 1,5,-1
 183 423 l 1,6,-1
 474 423 l 1,7,-1
 474 324 l 1,8,-1
 183 324 l 1,9,-1
 183 99 l 1,10,-1
 474 99 l 1,11,-1
 474 0 l 1,0,-1
463 790 m 1,12,-1
 344 790 l 1,13,-1
 275 859 l 1,14,-1
 203 790 l 1,15,-1
 84 790 l 1,16,-1
 223 925 l 1,17,-1
 323 925 l 1,18,-1
 463 790 l 1,12,-1
EndSplineSet
Position2: "'cpsp' Capital Spacing lookup 0 subtable" dx=5 dy=0 dh=10 dv=0
EndChar

StartChar: Edieresis
Encoding: 203 203 138
Width: 530
GlyphClass: 2
Flags: W
LayerCount: 2
Fore
SplineSet
474 0 m 1,0,-1
 75 0 l 1,1,-1
 75 740 l 1,2,-1
 474 740 l 1,3,-1
 474 641 l 1,4,-1
 183 641 l 1,5,-1
 183 423 l 1,6,-1
 474 423 l 1,7,-1
 474 324 l 1,8,-1
 183 324 l 1,9,-1
 183 99 l 1,10,-1
 474 99 l 1,11,-1
 474 0 l 1,0,-1
400 922 m 1,12,-1
 400 800 l 1,13,-1
 296 800 l 1,14,-1
 296 922 l 1,15,-1
 400 922 l 1,12,-1
141 922 m 1,16,-1
 245 922 l 1,17,-1
 245 800 l 1,18,-1
 141 800 l 1,19,-1
 141 922 l 1,16,-1
EndSplineSet
Position2: "'cpsp' Capital Spacing lookup 0 subtable" dx=5 dy=0 dh=10 dv=0
EndChar

StartChar: Igrave
Encoding: 204 204 139
Width: 258
GlyphClass: 2
Flags: W
LayerCount: 2
Fore
SplineSet
183 0 m 1,0,-1
 75 0 l 1,1,-1
 75 740 l 1,2,-1
 183 740 l 1,3,-1
 183 0 l 1,0,-1
33 980 m 1,4,-1
 258 857 l 1,5,-1
 214 777 l 1,6,-1
 -9 905 l 1,7,-1
 33 980 l 1,4,-1
EndSplineSet
Position2: "'cpsp' Capital Spacing lookup 0 subtable" dx=5 dy=0 dh=10 dv=0
EndChar

StartChar: Iacute
Encoding: 205 205 140
Width: 258
GlyphClass: 2
Flags: W
LayerCount: 2
Fore
SplineSet
183 0 m 1,0,-1
 75 0 l 1,1,-1
 75 740 l 1,2,-1
 183 740 l 1,3,-1
 183 0 l 1,0,-1
98 777 m 1,4,-1
 56 852 l 1,5,-1
 279 980 l 1,6,-1
 323 899 l 1,7,-1
 98 777 l 1,4,-1
EndSplineSet
Position2: "'cpsp' Capital Spacing lookup 0 subtable" dx=5 dy=0 dh=10 dv=0
EndChar

StartChar: Icircumflex
Encoding: 206 206 141
Width: 258
GlyphClass: 2
Flags: W
LayerCount: 2
Fore
SplineSet
183 0 m 1,0,-1
 75 0 l 1,1,-1
 75 740 l 1,2,-1
 183 740 l 1,3,-1
 183 0 l 1,0,-1
319 790 m 1,4,-1
 200 790 l 1,5,-1
 131 859 l 1,6,-1
 59 790 l 1,7,-1
 -60 790 l 1,8,-1
 79 925 l 1,9,-1
 179 925 l 1,10,-1
 319 790 l 1,4,-1
EndSplineSet
Position2: "'cpsp' Capital Spacing lookup 0 subtable" dx=5 dy=0 dh=10 dv=0
EndChar

StartChar: Idieresis
Encoding: 207 207 142
Width: 258
GlyphClass: 2
Flags: W
LayerCount: 2
Fore
SplineSet
183 0 m 1,0,-1
 75 0 l 1,1,-1
 75 740 l 1,2,-1
 183 740 l 1,3,-1
 183 0 l 1,0,-1
258 922 m 1,4,-1
 258 800 l 1,5,-1
 154 800 l 1,6,-1
 154 922 l 1,7,-1
 258 922 l 1,4,-1
-1 922 m 1,8,-1
 103 922 l 1,9,-1
 103 800 l 1,10,-1
 -1 800 l 1,11,-1
 -1 922 l 1,8,-1
EndSplineSet
Position2: "'cpsp' Capital Spacing lookup 0 subtable" dx=5 dy=0 dh=10 dv=0
EndChar

StartChar: Eth
Encoding: 208 208 143
Width: 762
GlyphClass: 2
Flags: W
LayerCount: 2
Fore
SplineSet
95 322 m 1,0,-1
 20 322 l 1,1,-1
 20 421 l 1,2,-1
 95 421 l 1,3,-1
 95 740 l 1,4,-1
 337 740 l 2,5,6
 538 740 538 740 637 604 c 0,7,8
 713 496 713 496 713 368 c 0,9,10
 713 293 713 293 687.5 219.5 c 128,-1,11
 662 146 662 146 620 107 c 0,12,13
 512 0 512 0 333 0 c 2,14,-1
 95 0 l 1,15,-1
 95 322 l 1,0,-1
339 421 m 1,16,-1
 339 322 l 1,17,-1
 203 322 l 1,18,-1
 203 99 l 1,19,-1
 334 99 l 2,20,21
 384 99 384 99 430 113 c 128,-1,22
 476 127 476 127 516.5 156.5 c 128,-1,23
 557 186 557 186 581 240.5 c 128,-1,24
 605 295 605 295 605 368 c 0,25,26
 605 413 605 413 590 458.5 c 128,-1,27
 575 504 575 504 545 546 c 128,-1,28
 515 588 515 588 460.5 614.5 c 128,-1,29
 406 641 406 641 336 641 c 2,30,-1
 203 641 l 1,31,-1
 203 421 l 1,32,-1
 339 421 l 1,16,-1
EndSplineSet
Position2: "'cpsp' Capital Spacing lookup 0 subtable" dx=5 dy=0 dh=10 dv=0
EndChar

StartChar: Ntilde
Encoding: 209 209 144
Width: 738
GlyphClass: 2
Flags: W
LayerCount: 2
Fore
SplineSet
663 0 m 1,0,-1
 551 0 l 1,1,-1
 185 572 l 1,2,-1
 183 572 l 1,3,-1
 183 0 l 1,4,-1
 75 0 l 1,5,-1
 75 740 l 1,6,-1
 193 740 l 1,7,-1
 553 177 l 1,8,-1
 555 177 l 1,9,-1
 555 740 l 1,10,-1
 663 740 l 1,11,-1
 663 0 l 1,0,-1
533 859 m 1,12,13
 482 813 482 813 435 813 c 0,14,15
 405 813 405 813 368 827 c 128,-1,16
 331 841 331 841 315 841 c 0,17,18
 291 841 291 841 258 817 c 1,19,-1
 217 882 l 1,20,21
 270 923 270 923 314 923 c 0,22,23
 339 923 339 923 373 909 c 128,-1,24
 407 895 407 895 428 895 c 0,25,26
 459 895 459 895 492 924 c 1,27,-1
 533 859 l 1,12,13
EndSplineSet
Position2: "'cpsp' Capital Spacing lookup 0 subtable" dx=5 dy=0 dh=10 dv=0
EndChar

StartChar: Ograve
Encoding: 210 210 145
Width: 846
GlyphClass: 2
Flags: W
LayerCount: 2
Fore
SplineSet
808 368 m 0,0,1
 808 214 808 214 696.5 100 c 128,-1,2
 585 -14 585 -14 423 -14 c 0,3,4
 260 -14 260 -14 149 100.5 c 128,-1,5
 38 215 38 215 38 370 c 128,-1,6
 38 525 38 525 148 639.5 c 128,-1,7
 258 754 258 754 423 754 c 0,8,9
 587 754 587 754 697.5 641 c 128,-1,10
 808 528 808 528 808 368 c 0,0,1
700 367 m 0,11,12
 700 418 700 418 682 467.5 c 128,-1,13
 664 517 664 517 631 559.5 c 128,-1,14
 598 602 598 602 543.5 628.5 c 128,-1,15
 489 655 489 655 423 655 c 0,16,17
 355 655 355 655 300 627.5 c 128,-1,18
 245 600 245 600 212.5 556 c 128,-1,19
 180 512 180 512 163 464 c 128,-1,20
 146 416 146 416 146 370 c 0,21,22
 146 323 146 323 163 274.5 c 128,-1,23
 180 226 180 226 212.5 182.5 c 128,-1,24
 245 139 245 139 300 112 c 128,-1,25
 355 85 355 85 423 85 c 128,-1,26
 491 85 491 85 546 112.5 c 128,-1,27
 601 140 601 140 633.5 182.5 c 128,-1,28
 666 225 666 225 683 273 c 128,-1,29
 700 321 700 321 700 367 c 0,11,12
312 980 m 1,30,-1
 537 857 l 1,31,-1
 493 777 l 1,32,-1
 270 905 l 1,33,-1
 312 980 l 1,30,-1
EndSplineSet
Position2: "'cpsp' Capital Spacing lookup 0 subtable" dx=5 dy=0 dh=10 dv=0
EndChar

StartChar: Oacute
Encoding: 211 211 146
Width: 846
GlyphClass: 2
Flags: W
LayerCount: 2
Fore
SplineSet
808 368 m 0,0,1
 808 214 808 214 696.5 100 c 128,-1,2
 585 -14 585 -14 423 -14 c 0,3,4
 260 -14 260 -14 149 100.5 c 128,-1,5
 38 215 38 215 38 370 c 128,-1,6
 38 525 38 525 148 639.5 c 128,-1,7
 258 754 258 754 423 754 c 0,8,9
 587 754 587 754 697.5 641 c 128,-1,10
 808 528 808 528 808 368 c 0,0,1
700 367 m 0,11,12
 700 418 700 418 682 467.5 c 128,-1,13
 664 517 664 517 631 559.5 c 128,-1,14
 598 602 598 602 543.5 628.5 c 128,-1,15
 489 655 489 655 423 655 c 0,16,17
 355 655 355 655 300 627.5 c 128,-1,18
 245 600 245 600 212.5 556 c 128,-1,19
 180 512 180 512 163 464 c 128,-1,20
 146 416 146 416 146 370 c 0,21,22
 146 323 146 323 163 274.5 c 128,-1,23
 180 226 180 226 212.5 182.5 c 128,-1,24
 245 139 245 139 300 112 c 128,-1,25
 355 85 355 85 423 85 c 128,-1,26
 491 85 491 85 546 112.5 c 128,-1,27
 601 140 601 140 633.5 182.5 c 128,-1,28
 666 225 666 225 683 273 c 128,-1,29
 700 321 700 321 700 367 c 0,11,12
351 777 m 1,30,-1
 309 852 l 1,31,-1
 532 980 l 1,32,-1
 576 899 l 1,33,-1
 351 777 l 1,30,-1
EndSplineSet
Position2: "'cpsp' Capital Spacing lookup 0 subtable" dx=5 dy=0 dh=10 dv=0
EndChar

StartChar: Ocircumflex
Encoding: 212 212 147
Width: 846
GlyphClass: 2
Flags: W
LayerCount: 2
Fore
SplineSet
808 368 m 0,0,1
 808 214 808 214 696.5 100 c 128,-1,2
 585 -14 585 -14 423 -14 c 0,3,4
 260 -14 260 -14 149 100.5 c 128,-1,5
 38 215 38 215 38 370 c 128,-1,6
 38 525 38 525 148 639.5 c 128,-1,7
 258 754 258 754 423 754 c 0,8,9
 587 754 587 754 697.5 641 c 128,-1,10
 808 528 808 528 808 368 c 0,0,1
700 367 m 0,11,12
 700 418 700 418 682 467.5 c 128,-1,13
 664 517 664 517 631 559.5 c 128,-1,14
 598 602 598 602 543.5 628.5 c 128,-1,15
 489 655 489 655 423 655 c 0,16,17
 355 655 355 655 300 627.5 c 128,-1,18
 245 600 245 600 212.5 556 c 128,-1,19
 180 512 180 512 163 464 c 128,-1,20
 146 416 146 416 146 370 c 0,21,22
 146 323 146 323 163 274.5 c 128,-1,23
 180 226 180 226 212.5 182.5 c 128,-1,24
 245 139 245 139 300 112 c 128,-1,25
 355 85 355 85 423 85 c 128,-1,26
 491 85 491 85 546 112.5 c 128,-1,27
 601 140 601 140 633.5 182.5 c 128,-1,28
 666 225 666 225 683 273 c 128,-1,29
 700 321 700 321 700 367 c 0,11,12
612 790 m 1,30,-1
 493 790 l 1,31,-1
 424 859 l 1,32,-1
 352 790 l 1,33,-1
 233 790 l 1,34,-1
 372 925 l 1,35,-1
 472 925 l 1,36,-1
 612 790 l 1,30,-1
EndSplineSet
Position2: "'cpsp' Capital Spacing lookup 0 subtable" dx=5 dy=0 dh=10 dv=0
EndChar

StartChar: Otilde
Encoding: 213 213 148
Width: 846
GlyphClass: 2
Flags: W
LayerCount: 2
Fore
SplineSet
808 368 m 0,0,1
 808 214 808 214 696.5 100 c 128,-1,2
 585 -14 585 -14 423 -14 c 0,3,4
 260 -14 260 -14 149 100.5 c 128,-1,5
 38 215 38 215 38 370 c 128,-1,6
 38 525 38 525 148 639.5 c 128,-1,7
 258 754 258 754 423 754 c 0,8,9
 587 754 587 754 697.5 641 c 128,-1,10
 808 528 808 528 808 368 c 0,0,1
700 367 m 0,11,12
 700 418 700 418 682 467.5 c 128,-1,13
 664 517 664 517 631 559.5 c 128,-1,14
 598 602 598 602 543.5 628.5 c 128,-1,15
 489 655 489 655 423 655 c 0,16,17
 355 655 355 655 300 627.5 c 128,-1,18
 245 600 245 600 212.5 556 c 128,-1,19
 180 512 180 512 163 464 c 128,-1,20
 146 416 146 416 146 370 c 0,21,22
 146 323 146 323 163 274.5 c 128,-1,23
 180 226 180 226 212.5 182.5 c 128,-1,24
 245 139 245 139 300 112 c 128,-1,25
 355 85 355 85 423 85 c 128,-1,26
 491 85 491 85 546 112.5 c 128,-1,27
 601 140 601 140 633.5 182.5 c 128,-1,28
 666 225 666 225 683 273 c 128,-1,29
 700 321 700 321 700 367 c 0,11,12
587 859 m 1,30,31
 536 813 536 813 489 813 c 0,32,33
 459 813 459 813 422 827 c 128,-1,34
 385 841 385 841 369 841 c 0,35,36
 345 841 345 841 312 817 c 1,37,-1
 271 882 l 1,38,39
 324 923 324 923 368 923 c 0,40,41
 393 923 393 923 427 909 c 128,-1,42
 461 895 461 895 482 895 c 0,43,44
 513 895 513 895 546 924 c 1,45,-1
 587 859 l 1,30,31
EndSplineSet
Position2: "'cpsp' Capital Spacing lookup 0 subtable" dx=5 dy=0 dh=10 dv=0
EndChar

StartChar: Odieresis
Encoding: 214 214 149
Width: 846
GlyphClass: 2
Flags: W
LayerCount: 2
Fore
SplineSet
808 368 m 0,0,1
 808 214 808 214 696.5 100 c 128,-1,2
 585 -14 585 -14 423 -14 c 0,3,4
 260 -14 260 -14 149 100.5 c 128,-1,5
 38 215 38 215 38 370 c 128,-1,6
 38 525 38 525 148 639.5 c 128,-1,7
 258 754 258 754 423 754 c 0,8,9
 587 754 587 754 697.5 641 c 128,-1,10
 808 528 808 528 808 368 c 0,0,1
700 367 m 0,11,12
 700 418 700 418 682 467.5 c 128,-1,13
 664 517 664 517 631 559.5 c 128,-1,14
 598 602 598 602 543.5 628.5 c 128,-1,15
 489 655 489 655 423 655 c 0,16,17
 355 655 355 655 300 627.5 c 128,-1,18
 245 600 245 600 212.5 556 c 128,-1,19
 180 512 180 512 163 464 c 128,-1,20
 146 416 146 416 146 370 c 0,21,22
 146 323 146 323 163 274.5 c 128,-1,23
 180 226 180 226 212.5 182.5 c 128,-1,24
 245 139 245 139 300 112 c 128,-1,25
 355 85 355 85 423 85 c 128,-1,26
 491 85 491 85 546 112.5 c 128,-1,27
 601 140 601 140 633.5 182.5 c 128,-1,28
 666 225 666 225 683 273 c 128,-1,29
 700 321 700 321 700 367 c 0,11,12
553 922 m 1,30,-1
 553 800 l 1,31,-1
 449 800 l 1,32,-1
 449 922 l 1,33,-1
 553 922 l 1,30,-1
294 922 m 1,34,-1
 398 922 l 1,35,-1
 398 800 l 1,36,-1
 294 800 l 1,37,-1
 294 922 l 1,34,-1
EndSplineSet
Position2: "'cpsp' Capital Spacing lookup 0 subtable" dx=5 dy=0 dh=10 dv=0
EndChar

StartChar: multiply
Encoding: 215 215 150
Width: 600
GlyphClass: 2
Flags: W
LayerCount: 2
Fore
SplineSet
228 288 m 1,0,-1
 61 455 l 1,1,-1
 133 527 l 1,2,-1
 300 360 l 1,3,-1
 467 527 l 1,4,-1
 539 455 l 1,5,-1
 371 288 l 1,6,-1
 539 121 l 1,7,-1
 467 49 l 1,8,-1
 300 217 l 1,9,-1
 133 49 l 1,10,-1
 61 121 l 1,11,-1
 228 288 l 1,0,-1
EndSplineSet
EndChar

StartChar: Oslash
Encoding: 216 216 151
Width: 846
GlyphClass: 2
Flags: W
LayerCount: 2
Fore
SplineSet
240 31 m 1,0,-1
 170 -65 l 1,1,-1
 90 -9 l 1,2,-1
 161 89 l 1,3,4
 38 206 38 206 38 370 c 0,5,6
 38 526 38 526 148 640 c 128,-1,7
 258 754 258 754 422 754 c 0,8,9
 530 754 530 754 610 707 c 1,10,-1
 679 802 l 1,11,-1
 762 744 l 1,12,-1
 691 647 l 1,13,14
 705 635 705 635 720 616 c 128,-1,15
 735 597 735 597 757.5 562 c 128,-1,16
 780 527 780 527 794 476 c 128,-1,17
 808 425 808 425 808 370 c 0,18,19
 808 214 808 214 696.5 100 c 128,-1,20
 585 -14 585 -14 423 -14 c 0,21,22
 322 -14 322 -14 240 31 c 1,0,-1
629 562 m 1,23,-1
 301 111 l 1,24,25
 362 85 362 85 423 85 c 0,26,27
 490 85 490 85 545 112 c 128,-1,28
 600 139 600 139 632.5 181.5 c 128,-1,29
 665 224 665 224 682.5 273 c 128,-1,30
 700 322 700 322 700 370 c 0,31,32
 700 475 700 475 629 562 c 1,23,-1
222 173 m 1,33,-1
 551 625 l 1,34,35
 495 655 495 655 424 655 c 0,36,37
 355 655 355 655 299 627 c 128,-1,38
 243 599 243 599 211 555 c 128,-1,39
 179 511 179 511 162.5 463.5 c 128,-1,40
 146 416 146 416 146 370 c 0,41,42
 146 260 146 260 222 173 c 1,33,-1
EndSplineSet
Position2: "'cpsp' Capital Spacing lookup 0 subtable" dx=5 dy=0 dh=10 dv=0
EndChar

StartChar: Ugrave
Encoding: 217 217 152
Width: 646
GlyphClass: 2
Flags: W
LayerCount: 2
Fore
SplineSet
571 740 m 1,0,-1
 571 239 l 2,1,2
 571 121 571 121 496 49 c 1,3,4
 420 -14 420 -14 323 -14 c 128,-1,5
 226 -14 226 -14 150 49 c 1,6,7
 75 121 75 121 75 239 c 2,8,-1
 75 740 l 1,9,-1
 183 740 l 1,10,-1
 183 242 l 2,11,12
 183 194 183 194 198.5 160.5 c 128,-1,13
 214 127 214 127 238.5 112 c 128,-1,14
 263 97 263 97 283.5 91 c 128,-1,15
 304 85 304 85 323 85 c 128,-1,16
 342 85 342 85 362 91 c 128,-1,17
 382 97 382 97 407 112 c 128,-1,18
 432 127 432 127 447.5 160.5 c 128,-1,19
 463 194 463 194 463 242 c 2,20,-1
 463 740 l 1,21,-1
 571 740 l 1,0,-1
187 980 m 1,22,-1
 412 857 l 1,23,-1
 368 777 l 1,24,-1
 145 905 l 1,25,-1
 187 980 l 1,22,-1
EndSplineSet
Position2: "'cpsp' Capital Spacing lookup 0 subtable" dx=5 dy=0 dh=10 dv=0
EndChar

StartChar: Uacute
Encoding: 218 218 153
Width: 646
GlyphClass: 2
Flags: W
LayerCount: 2
Fore
SplineSet
571 740 m 1,0,-1
 571 239 l 2,1,2
 571 121 571 121 496 49 c 1,3,4
 420 -14 420 -14 323 -14 c 128,-1,5
 226 -14 226 -14 150 49 c 1,6,7
 75 121 75 121 75 239 c 2,8,-1
 75 740 l 1,9,-1
 183 740 l 1,10,-1
 183 242 l 2,11,12
 183 194 183 194 198.5 160.5 c 128,-1,13
 214 127 214 127 238.5 112 c 128,-1,14
 263 97 263 97 283.5 91 c 128,-1,15
 304 85 304 85 323 85 c 128,-1,16
 342 85 342 85 362 91 c 128,-1,17
 382 97 382 97 407 112 c 128,-1,18
 432 127 432 127 447.5 160.5 c 128,-1,19
 463 194 463 194 463 242 c 2,20,-1
 463 740 l 1,21,-1
 571 740 l 1,0,-1
280 777 m 1,22,-1
 238 852 l 1,23,-1
 461 980 l 1,24,-1
 505 899 l 1,25,-1
 280 777 l 1,22,-1
EndSplineSet
Position2: "'cpsp' Capital Spacing lookup 0 subtable" dx=5 dy=0 dh=10 dv=0
EndChar

StartChar: Ucircumflex
Encoding: 219 219 154
Width: 646
GlyphClass: 2
Flags: W
LayerCount: 2
Fore
SplineSet
571 740 m 1,0,-1
 571 239 l 2,1,2
 571 121 571 121 496 49 c 1,3,4
 420 -14 420 -14 323 -14 c 128,-1,5
 226 -14 226 -14 150 49 c 1,6,7
 75 121 75 121 75 239 c 2,8,-1
 75 740 l 1,9,-1
 183 740 l 1,10,-1
 183 242 l 2,11,12
 183 194 183 194 198.5 160.5 c 128,-1,13
 214 127 214 127 238.5 112 c 128,-1,14
 263 97 263 97 283.5 91 c 128,-1,15
 304 85 304 85 323 85 c 128,-1,16
 342 85 342 85 362 91 c 128,-1,17
 382 97 382 97 407 112 c 128,-1,18
 432 127 432 127 447.5 160.5 c 128,-1,19
 463 194 463 194 463 242 c 2,20,-1
 463 740 l 1,21,-1
 571 740 l 1,0,-1
511 790 m 1,22,-1
 392 790 l 1,23,-1
 323 859 l 1,24,-1
 251 790 l 1,25,-1
 132 790 l 1,26,-1
 271 925 l 1,27,-1
 371 925 l 1,28,-1
 511 790 l 1,22,-1
EndSplineSet
Position2: "'cpsp' Capital Spacing lookup 0 subtable" dx=5 dy=0 dh=10 dv=0
EndChar

StartChar: Udieresis
Encoding: 220 220 155
Width: 646
GlyphClass: 2
Flags: W
LayerCount: 2
Fore
SplineSet
571 740 m 1,0,-1
 571 239 l 2,1,2
 571 121 571 121 496 49 c 1,3,4
 420 -14 420 -14 323 -14 c 128,-1,5
 226 -14 226 -14 150 49 c 1,6,7
 75 121 75 121 75 239 c 2,8,-1
 75 740 l 1,9,-1
 183 740 l 1,10,-1
 183 242 l 2,11,12
 183 194 183 194 198.5 160.5 c 128,-1,13
 214 127 214 127 238.5 112 c 128,-1,14
 263 97 263 97 283.5 91 c 128,-1,15
 304 85 304 85 323 85 c 128,-1,16
 342 85 342 85 362 91 c 128,-1,17
 382 97 382 97 407 112 c 128,-1,18
 432 127 432 127 447.5 160.5 c 128,-1,19
 463 194 463 194 463 242 c 2,20,-1
 463 740 l 1,21,-1
 571 740 l 1,0,-1
453 922 m 1,22,-1
 453 800 l 1,23,-1
 349 800 l 1,24,-1
 349 922 l 1,25,-1
 453 922 l 1,22,-1
194 922 m 1,26,-1
 298 922 l 1,27,-1
 298 800 l 1,28,-1
 194 800 l 1,29,-1
 194 922 l 1,26,-1
EndSplineSet
Position2: "'cpsp' Capital Spacing lookup 0 subtable" dx=5 dy=0 dh=10 dv=0
EndChar

StartChar: Yacute
Encoding: 221 221 156
Width: 590
GlyphClass: 2
Flags: W
LayerCount: 2
Fore
SplineSet
350 0 m 1,0,-1
 242 0 l 1,1,-1
 242 267 l 1,2,-1
 12 740 l 1,3,-1
 133 740 l 1,4,-1
 296 393 l 1,5,-1
 458 740 l 1,6,-1
 578 740 l 1,7,-1
 350 267 l 1,8,-1
 350 0 l 1,0,-1
249 777 m 1,9,-1
 207 852 l 1,10,-1
 430 980 l 1,11,-1
 474 899 l 1,12,-1
 249 777 l 1,9,-1
EndSplineSet
Position2: "'cpsp' Capital Spacing lookup 0 subtable" dx=5 dy=0 dh=10 dv=0
EndChar

StartChar: Thorn
Encoding: 222 222 157
Width: 575
GlyphClass: 2
Flags: W
LayerCount: 2
Fore
SplineSet
183 146 m 1,0,-1
 183 0 l 1,1,-1
 75 0 l 1,2,-1
 75 740 l 1,3,-1
 183 740 l 1,4,-1
 183 594 l 1,5,-1
 289 594 l 2,6,7
 418 594 418 594 484 533.5 c 128,-1,8
 550 473 550 473 550 370 c 128,-1,9
 550 267 550 267 484 206.5 c 128,-1,10
 418 146 418 146 289 146 c 2,11,-1
 183 146 l 1,0,-1
183 495 m 1,12,-1
 183 245 l 1,13,-1
 289 245 l 2,14,15
 372 245 372 245 407 282 c 128,-1,16
 442 319 442 319 442 370 c 128,-1,17
 442 421 442 421 407 458 c 128,-1,18
 372 495 372 495 289 495 c 2,19,-1
 183 495 l 1,12,-1
EndSplineSet
Position2: "'cpsp' Capital Spacing lookup 0 subtable" dx=5 dy=0 dh=10 dv=0
EndChar

StartChar: germandbls
Encoding: 223 223 158
Width: 640
GlyphClass: 2
Flags: W
LayerCount: 2
Fore
SplineSet
66 0 m 1,0,-1
 66 516 l 2,1,2
 66 581 66 581 88 630 c 128,-1,3
 110 679 110 679 144.5 704.5 c 128,-1,4
 179 730 179 730 214 742 c 128,-1,5
 249 754 249 754 283 754 c 0,6,7
 374 754 374 754 439 689 c 128,-1,8
 504 624 504 624 504 535 c 0,9,10
 504 461 504 461 446 415 c 1,11,12
 524 396 524 396 563 339 c 128,-1,13
 602 282 602 282 602 219 c 0,14,15
 602 120 602 120 536.5 53 c 128,-1,16
 471 -14 471 -14 372 -14 c 0,17,18
 297 -14 297 -14 246 23 c 0,19,20
 219 42 219 42 203 60.5 c 128,-1,21
 187 79 187 79 182 90.5 c 128,-1,22
 177 102 177 102 171 124 c 1,23,-1
 169 124 l 1,24,-1
 169 0 l 1,25,-1
 66 0 l 1,0,-1
170 516 m 2,26,-1
 170 194 l 1,27,-1
 254 194 l 1,28,29
 264 135 264 135 303 106 c 0,30,31
 333 81 333 81 376 81 c 0,32,33
 431 81 431 81 464.5 120 c 128,-1,34
 498 159 498 159 498 209 c 0,35,36
 498 218 498 218 497 227 c 128,-1,37
 496 236 496 236 488 257 c 128,-1,38
 480 278 480 278 465.5 293 c 128,-1,39
 451 308 451 308 419.5 320.5 c 128,-1,40
 388 333 388 333 345 333 c 2,41,-1
 273 333 l 1,42,-1
 273 425 l 1,43,44
 309 426 309 426 335 437.5 c 128,-1,45
 361 449 361 449 373 462.5 c 128,-1,46
 385 476 385 476 391.5 495 c 128,-1,47
 398 514 398 514 399 523 c 128,-1,48
 400 532 400 532 400 541 c 0,49,50
 400 587 400 587 369 623 c 128,-1,51
 338 659 338 659 285 659 c 0,52,53
 253 659 253 659 229.5 646 c 128,-1,54
 206 633 206 633 195 616.5 c 128,-1,55
 184 600 184 600 177.5 576 c 128,-1,56
 171 552 171 552 170.5 540.5 c 128,-1,57
 170 529 170 529 170 516 c 2,26,-1
EndSplineSet
EndChar

StartChar: agrave
Encoding: 224 224 159
Width: 692
GlyphClass: 2
Flags: W
LayerCount: 2
Fore
SplineSet
626 0 m 1,0,-1
 522 0 l 1,1,-1
 522 86 l 1,2,-1
 520 86 l 1,3,4
 491 37 491 37 441 11.5 c 128,-1,5
 391 -14 391 -14 332 -14 c 0,6,7
 197 -14 197 -14 117.5 72 c 128,-1,8
 38 158 38 158 38 275 c 0,9,10
 38 327 38 327 56.5 378 c 128,-1,11
 75 429 75 429 110 472.5 c 128,-1,12
 145 516 145 516 203 542.5 c 128,-1,13
 261 569 261 569 332 569 c 0,14,15
 391 569 391 569 441 545 c 128,-1,16
 491 521 491 521 520 476 c 1,17,-1
 522 476 l 1,18,-1
 522 554 l 1,19,-1
 626 554 l 1,20,-1
 626 0 l 1,0,-1
524 276 m 0,21,22
 524 363 524 363 468.5 418.5 c 128,-1,23
 413 474 413 474 332 474 c 0,24,25
 243 474 243 474 192.5 412.5 c 128,-1,26
 142 351 142 351 142 276 c 0,27,28
 142 199 142 199 196.5 140 c 128,-1,29
 251 81 251 81 331 81 c 0,30,31
 412 81 412 81 468 138 c 128,-1,32
 524 195 524 195 524 276 c 0,21,22
235 815 m 1,33,-1
 460 692 l 1,34,-1
 416 612 l 1,35,-1
 193 740 l 1,36,-1
 235 815 l 1,33,-1
EndSplineSet
EndChar

StartChar: aacute
Encoding: 225 225 160
Width: 692
GlyphClass: 2
Flags: W
LayerCount: 2
Fore
SplineSet
626 0 m 1,0,-1
 522 0 l 1,1,-1
 522 86 l 1,2,-1
 520 86 l 1,3,4
 491 37 491 37 441 11.5 c 128,-1,5
 391 -14 391 -14 332 -14 c 0,6,7
 197 -14 197 -14 117.5 72 c 128,-1,8
 38 158 38 158 38 275 c 0,9,10
 38 327 38 327 56.5 378 c 128,-1,11
 75 429 75 429 110 472.5 c 128,-1,12
 145 516 145 516 203 542.5 c 128,-1,13
 261 569 261 569 332 569 c 0,14,15
 391 569 391 569 441 545 c 128,-1,16
 491 521 491 521 520 476 c 1,17,-1
 522 476 l 1,18,-1
 522 554 l 1,19,-1
 626 554 l 1,20,-1
 626 0 l 1,0,-1
524 276 m 0,21,22
 524 363 524 363 468.5 418.5 c 128,-1,23
 413 474 413 474 332 474 c 0,24,25
 243 474 243 474 192.5 412.5 c 128,-1,26
 142 351 142 351 142 276 c 0,27,28
 142 199 142 199 196.5 140 c 128,-1,29
 251 81 251 81 331 81 c 0,30,31
 412 81 412 81 468 138 c 128,-1,32
 524 195 524 195 524 276 c 0,21,22
275 611 m 1,33,-1
 233 686 l 1,34,-1
 456 814 l 1,35,-1
 500 733 l 1,36,-1
 275 611 l 1,33,-1
EndSplineSet
EndChar

StartChar: acircumflex
Encoding: 226 226 161
Width: 692
GlyphClass: 2
Flags: W
LayerCount: 2
Fore
SplineSet
626 0 m 1,0,-1
 522 0 l 1,1,-1
 522 86 l 1,2,-1
 520 86 l 1,3,4
 491 37 491 37 441 11.5 c 128,-1,5
 391 -14 391 -14 332 -14 c 0,6,7
 197 -14 197 -14 117.5 72 c 128,-1,8
 38 158 38 158 38 275 c 0,9,10
 38 327 38 327 56.5 378 c 128,-1,11
 75 429 75 429 110 472.5 c 128,-1,12
 145 516 145 516 203 542.5 c 128,-1,13
 261 569 261 569 332 569 c 0,14,15
 391 569 391 569 441 545 c 128,-1,16
 491 521 491 521 520 476 c 1,17,-1
 522 476 l 1,18,-1
 522 554 l 1,19,-1
 626 554 l 1,20,-1
 626 0 l 1,0,-1
524 276 m 0,21,22
 524 363 524 363 468.5 418.5 c 128,-1,23
 413 474 413 474 332 474 c 0,24,25
 243 474 243 474 192.5 412.5 c 128,-1,26
 142 351 142 351 142 276 c 0,27,28
 142 199 142 199 196.5 140 c 128,-1,29
 251 81 251 81 331 81 c 0,30,31
 412 81 412 81 468 138 c 128,-1,32
 524 195 524 195 524 276 c 0,21,22
536 628 m 1,33,-1
 417 628 l 1,34,-1
 348 697 l 1,35,-1
 276 628 l 1,36,-1
 157 628 l 1,37,-1
 296 763 l 1,38,-1
 396 763 l 1,39,-1
 536 628 l 1,33,-1
EndSplineSet
EndChar

StartChar: atilde
Encoding: 227 227 162
Width: 692
GlyphClass: 2
Flags: W
LayerCount: 2
Fore
SplineSet
626 0 m 1,0,-1
 522 0 l 1,1,-1
 522 86 l 1,2,-1
 520 86 l 1,3,4
 491 37 491 37 441 11.5 c 128,-1,5
 391 -14 391 -14 332 -14 c 0,6,7
 197 -14 197 -14 117.5 72 c 128,-1,8
 38 158 38 158 38 275 c 0,9,10
 38 327 38 327 56.5 378 c 128,-1,11
 75 429 75 429 110 472.5 c 128,-1,12
 145 516 145 516 203 542.5 c 128,-1,13
 261 569 261 569 332 569 c 0,14,15
 391 569 391 569 441 545 c 128,-1,16
 491 521 491 521 520 476 c 1,17,-1
 522 476 l 1,18,-1
 522 554 l 1,19,-1
 626 554 l 1,20,-1
 626 0 l 1,0,-1
524 276 m 0,21,22
 524 363 524 363 468.5 418.5 c 128,-1,23
 413 474 413 474 332 474 c 0,24,25
 243 474 243 474 192.5 412.5 c 128,-1,26
 142 351 142 351 142 276 c 0,27,28
 142 199 142 199 196.5 140 c 128,-1,29
 251 81 251 81 331 81 c 0,30,31
 412 81 412 81 468 138 c 128,-1,32
 524 195 524 195 524 276 c 0,21,22
504 679 m 1,33,34
 453 633 453 633 406 633 c 0,35,36
 376 633 376 633 339 647 c 128,-1,37
 302 661 302 661 286 661 c 0,38,39
 262 661 262 661 229 637 c 1,40,-1
 188 702 l 1,41,42
 241 743 241 743 285 743 c 0,43,44
 310 743 310 743 344 729 c 128,-1,45
 378 715 378 715 399 715 c 0,46,47
 430 715 430 715 463 744 c 1,48,-1
 504 679 l 1,33,34
EndSplineSet
EndChar

StartChar: adieresis
Encoding: 228 228 163
Width: 692
GlyphClass: 2
Flags: W
LayerCount: 2
Fore
SplineSet
626 0 m 1,0,-1
 522 0 l 1,1,-1
 522 86 l 1,2,-1
 520 86 l 1,3,4
 491 37 491 37 441 11.5 c 128,-1,5
 391 -14 391 -14 332 -14 c 0,6,7
 197 -14 197 -14 117.5 72 c 128,-1,8
 38 158 38 158 38 275 c 0,9,10
 38 327 38 327 56.5 378 c 128,-1,11
 75 429 75 429 110 472.5 c 128,-1,12
 145 516 145 516 203 542.5 c 128,-1,13
 261 569 261 569 332 569 c 0,14,15
 391 569 391 569 441 545 c 128,-1,16
 491 521 491 521 520 476 c 1,17,-1
 522 476 l 1,18,-1
 522 554 l 1,19,-1
 626 554 l 1,20,-1
 626 0 l 1,0,-1
524 276 m 0,21,22
 524 363 524 363 468.5 418.5 c 128,-1,23
 413 474 413 474 332 474 c 0,24,25
 243 474 243 474 192.5 412.5 c 128,-1,26
 142 351 142 351 142 276 c 0,27,28
 142 199 142 199 196.5 140 c 128,-1,29
 251 81 251 81 331 81 c 0,30,31
 412 81 412 81 468 138 c 128,-1,32
 524 195 524 195 524 276 c 0,21,22
372 740 m 1,33,-1
 476 740 l 1,34,-1
 476 618 l 1,35,-1
 372 618 l 1,36,-1
 372 740 l 1,33,-1
217 740 m 1,37,-1
 321 740 l 1,38,-1
 321 618 l 1,39,-1
 217 618 l 1,40,-1
 217 740 l 1,37,-1
EndSplineSet
EndChar

StartChar: aring
Encoding: 229 229 164
Width: 692
GlyphClass: 2
Flags: W
LayerCount: 2
Fore
SplineSet
626 0 m 1,0,-1
 522 0 l 1,1,-1
 522 86 l 1,2,-1
 520 86 l 1,3,4
 491 37 491 37 441 11.5 c 128,-1,5
 391 -14 391 -14 332 -14 c 0,6,7
 197 -14 197 -14 117.5 72 c 128,-1,8
 38 158 38 158 38 275 c 0,9,10
 38 327 38 327 56.5 378 c 128,-1,11
 75 429 75 429 110 472.5 c 128,-1,12
 145 516 145 516 203 542.5 c 128,-1,13
 261 569 261 569 332 569 c 0,14,15
 391 569 391 569 441 545 c 128,-1,16
 491 521 491 521 520 476 c 1,17,-1
 522 476 l 1,18,-1
 522 554 l 1,19,-1
 626 554 l 1,20,-1
 626 0 l 1,0,-1
524 276 m 0,21,22
 524 363 524 363 468.5 418.5 c 128,-1,23
 413 474 413 474 332 474 c 0,24,25
 243 474 243 474 192.5 412.5 c 128,-1,26
 142 351 142 351 142 276 c 0,27,28
 142 199 142 199 196.5 140 c 128,-1,29
 251 81 251 81 331 81 c 0,30,31
 412 81 412 81 468 138 c 128,-1,32
 524 195 524 195 524 276 c 0,21,22
457 721 m 128,-1,34
 457 676 457 676 424 643.5 c 128,-1,35
 391 611 391 611 346 611 c 0,36,37
 300 611 300 611 268 643 c 128,-1,38
 236 675 236 675 236 721 c 0,39,40
 236 766 236 766 268.5 799 c 128,-1,41
 301 832 301 832 346 832 c 128,-1,42
 391 832 391 832 424 799 c 128,-1,33
 457 766 457 766 457 721 c 128,-1,34
398 721 m 0,43,44
 398 743 398 743 383 758 c 128,-1,45
 368 773 368 773 346 773 c 0,46,47
 325 773 325 773 310 758 c 128,-1,48
 295 743 295 743 295 721 c 0,49,50
 295 700 295 700 310 685 c 128,-1,51
 325 670 325 670 346 670 c 0,52,53
 368 670 368 670 383 685 c 128,-1,54
 398 700 398 700 398 721 c 0,43,44
EndSplineSet
EndChar

StartChar: ae
Encoding: 230 230 165
Width: 1131
GlyphClass: 3
Flags: W
LayerCount: 2
Fore
SplineSet
1090 233 m 1,0,-1
 628 233 l 1,1,2
 638 172 638 172 689 126.5 c 128,-1,3
 740 81 740 81 809 81 c 0,4,5
 853 81 853 81 898.5 104 c 128,-1,6
 944 127 944 127 969 176 c 1,7,-1
 1076 176 l 1,8,9
 1056 122 1056 122 1022 82.5 c 128,-1,10
 988 43 988 43 949 23.5 c 128,-1,11
 910 4 910 4 876 -5 c 128,-1,12
 842 -14 842 -14 811 -14 c 0,13,14
 700 -14 700 -14 626 65 c 1,15,-1
 624 65 l 1,16,-1
 624 0 l 1,17,-1
 529 0 l 1,18,-1
 529 65 l 1,19,20
 506 44 506 44 488 30.5 c 128,-1,21
 470 17 470 17 427.5 1.5 c 128,-1,22
 385 -14 385 -14 335 -14 c 0,23,24
 202 -14 202 -14 120 74.5 c 128,-1,25
 38 163 38 163 38 282 c 0,26,27
 38 403 38 403 122 486 c 128,-1,28
 206 569 206 569 331 569 c 0,29,30
 450 569 450 569 527 489 c 1,31,-1
 529 489 l 1,32,-1
 529 554 l 1,33,-1
 624 554 l 1,34,-1
 624 489 l 1,35,-1
 626 489 l 1,36,37
 661 535 661 535 715 552 c 128,-1,38
 769 569 769 569 814 569 c 0,39,40
 931 569 931 569 1012 482 c 128,-1,41
 1093 395 1093 395 1093 280 c 0,42,43
 1093 278 1093 278 1090 233 c 1,0,-1
524 279 m 0,44,45
 524 358 524 358 471 416 c 128,-1,46
 418 474 418 474 330 474 c 0,47,48
 244 474 244 474 193 416.5 c 128,-1,49
 142 359 142 359 142 281 c 0,50,51
 142 200 142 200 193 140.5 c 128,-1,52
 244 81 244 81 330 81 c 0,53,54
 415 81 415 81 469.5 139.5 c 128,-1,55
 524 198 524 198 524 279 c 0,44,45
628 305 m 1,56,-1
 989 305 l 1,57,58
 985 364 985 364 954 404 c 128,-1,59
 923 444 923 444 886 459 c 128,-1,60
 849 474 849 474 810 474 c 0,61,62
 782 474 782 474 753.5 465 c 128,-1,63
 725 456 725 456 697.5 437 c 128,-1,64
 670 418 670 418 651 384 c 128,-1,65
 632 350 632 350 628 305 c 1,56,-1
EndSplineSet
Ligature2: "'dpng' Diphthongs (Obsolete) lookup 4 subtable" a e
EndChar

StartChar: ccedilla
Encoding: 231 231 166
Width: 627
GlyphClass: 2
Flags: W
LayerCount: 2
Fore
SplineSet
595 370 m 1,0,-1
 480 370 l 1,1,2
 432 474 432 474 324 474 c 0,3,4
 261 474 261 474 218 441.5 c 128,-1,5
 175 409 175 409 158.5 366.5 c 128,-1,6
 142 324 142 324 142 278 c 0,7,8
 142 200 142 200 190 140.5 c 128,-1,9
 238 81 238 81 322 81 c 0,10,11
 431 81 431 81 479 183 c 1,12,-1
 595 183 l 1,13,14
 563 94 563 94 491 41 c 128,-1,15
 419 -12 419 -12 328 -14 c 1,16,-1
 307 -61 l 1,17,18
 326 -54 326 -54 343 -54 c 128,-1,19
 360 -54 360 -54 381 -62 c 0,20,21
 430 -83 430 -83 430 -143 c 0,22,23
 430 -175 430 -175 421 -192 c 0,24,25
 393 -246 393 -246 322 -246 c 0,26,27
 312 -246 312 -246 301.5 -244 c 128,-1,28
 291 -242 291 -242 272 -236 c 128,-1,29
 253 -230 253 -230 239 -213 c 128,-1,30
 225 -196 225 -196 221 -171 c 1,31,-1
 279 -166 l 1,32,33
 282 -179 282 -179 293 -189.5 c 128,-1,34
 304 -200 304 -200 323 -200 c 0,35,36
 372 -200 372 -200 372 -145 c 0,37,38
 372 -124 372 -124 359 -111 c 128,-1,39
 346 -98 346 -98 324 -98 c 0,40,41
 301 -98 301 -98 287 -115 c 1,42,-1
 235 -97 l 1,43,-1
 276 -10 l 1,44,45
 166 6 166 6 102 90 c 128,-1,46
 38 174 38 174 38 278 c 0,47,48
 38 395 38 395 117.5 482 c 128,-1,49
 197 569 197 569 323 569 c 0,50,51
 431 569 431 569 503.5 506 c 128,-1,52
 576 443 576 443 595 370 c 1,0,-1
EndSplineSet
EndChar

StartChar: egrave
Encoding: 232 232 167
Width: 642
GlyphClass: 2
Flags: W
LayerCount: 2
Fore
SplineSet
601 232 m 1,0,-1
 142 232 l 1,1,2
 161 158 161 158 213.5 119.5 c 128,-1,3
 266 81 266 81 324 81 c 0,4,5
 378 81 378 81 420 108 c 128,-1,6
 462 135 462 135 482 174 c 1,7,-1
 586 174 l 1,8,9
 561 107 561 107 512 62.5 c 128,-1,10
 463 18 463 18 415.5 2 c 128,-1,11
 368 -14 368 -14 320 -14 c 0,12,13
 203 -14 203 -14 120.5 72.5 c 128,-1,14
 38 159 38 159 38 278 c 0,15,16
 38 401 38 401 121 485 c 128,-1,17
 204 569 204 569 322 569 c 0,18,19
 436 569 436 569 520 487 c 128,-1,20
 604 405 604 405 604 285 c 0,21,22
 604 253 604 253 601 232 c 1,0,-1
142 312 m 1,23,-1
 500 312 l 1,24,25
 496 375 496 375 444.5 424.5 c 128,-1,26
 393 474 393 474 321 474 c 128,-1,27
 249 474 249 474 197.5 424.5 c 128,-1,28
 146 375 146 375 142 312 c 1,23,-1
209 815 m 1,29,-1
 434 692 l 1,30,-1
 390 612 l 1,31,-1
 167 740 l 1,32,-1
 209 815 l 1,29,-1
EndSplineSet
EndChar

StartChar: eacute
Encoding: 233 233 168
Width: 642
GlyphClass: 2
Flags: W
LayerCount: 2
Fore
SplineSet
601 232 m 1,0,-1
 142 232 l 1,1,2
 161 158 161 158 213.5 119.5 c 128,-1,3
 266 81 266 81 324 81 c 0,4,5
 378 81 378 81 420 108 c 128,-1,6
 462 135 462 135 482 174 c 1,7,-1
 586 174 l 1,8,9
 561 107 561 107 512 62.5 c 128,-1,10
 463 18 463 18 415.5 2 c 128,-1,11
 368 -14 368 -14 320 -14 c 0,12,13
 203 -14 203 -14 120.5 72.5 c 128,-1,14
 38 159 38 159 38 278 c 0,15,16
 38 401 38 401 121 485 c 128,-1,17
 204 569 204 569 322 569 c 0,18,19
 436 569 436 569 520 487 c 128,-1,20
 604 405 604 405 604 285 c 0,21,22
 604 253 604 253 601 232 c 1,0,-1
142 312 m 1,23,-1
 500 312 l 1,24,25
 496 375 496 375 444.5 424.5 c 128,-1,26
 393 474 393 474 321 474 c 128,-1,27
 249 474 249 474 197.5 424.5 c 128,-1,28
 146 375 146 375 142 312 c 1,23,-1
249 611 m 1,29,-1
 207 686 l 1,30,-1
 430 814 l 1,31,-1
 474 733 l 1,32,-1
 249 611 l 1,29,-1
EndSplineSet
EndChar

StartChar: ecircumflex
Encoding: 234 234 169
Width: 642
GlyphClass: 2
Flags: W
LayerCount: 2
Fore
SplineSet
601 232 m 1,0,-1
 142 232 l 1,1,2
 161 158 161 158 213.5 119.5 c 128,-1,3
 266 81 266 81 324 81 c 0,4,5
 378 81 378 81 420 108 c 128,-1,6
 462 135 462 135 482 174 c 1,7,-1
 586 174 l 1,8,9
 561 107 561 107 512 62.5 c 128,-1,10
 463 18 463 18 415.5 2 c 128,-1,11
 368 -14 368 -14 320 -14 c 0,12,13
 203 -14 203 -14 120.5 72.5 c 128,-1,14
 38 159 38 159 38 278 c 0,15,16
 38 401 38 401 121 485 c 128,-1,17
 204 569 204 569 322 569 c 0,18,19
 436 569 436 569 520 487 c 128,-1,20
 604 405 604 405 604 285 c 0,21,22
 604 253 604 253 601 232 c 1,0,-1
142 312 m 1,23,-1
 500 312 l 1,24,25
 496 375 496 375 444.5 424.5 c 128,-1,26
 393 474 393 474 321 474 c 128,-1,27
 249 474 249 474 197.5 424.5 c 128,-1,28
 146 375 146 375 142 312 c 1,23,-1
510 628 m 1,29,-1
 391 628 l 1,30,-1
 322 697 l 1,31,-1
 250 628 l 1,32,-1
 131 628 l 1,33,-1
 270 763 l 1,34,-1
 370 763 l 1,35,-1
 510 628 l 1,29,-1
EndSplineSet
EndChar

StartChar: edieresis
Encoding: 235 235 170
Width: 642
GlyphClass: 2
Flags: W
LayerCount: 2
Fore
SplineSet
601 232 m 1,0,-1
 142 232 l 1,1,2
 161 158 161 158 213.5 119.5 c 128,-1,3
 266 81 266 81 324 81 c 0,4,5
 378 81 378 81 420 108 c 128,-1,6
 462 135 462 135 482 174 c 1,7,-1
 586 174 l 1,8,9
 561 107 561 107 512 62.5 c 128,-1,10
 463 18 463 18 415.5 2 c 128,-1,11
 368 -14 368 -14 320 -14 c 0,12,13
 203 -14 203 -14 120.5 72.5 c 128,-1,14
 38 159 38 159 38 278 c 0,15,16
 38 401 38 401 121 485 c 128,-1,17
 204 569 204 569 322 569 c 0,18,19
 436 569 436 569 520 487 c 128,-1,20
 604 405 604 405 604 285 c 0,21,22
 604 253 604 253 601 232 c 1,0,-1
142 312 m 1,23,-1
 500 312 l 1,24,25
 496 375 496 375 444.5 424.5 c 128,-1,26
 393 474 393 474 321 474 c 128,-1,27
 249 474 249 474 197.5 424.5 c 128,-1,28
 146 375 146 375 142 312 c 1,23,-1
346 740 m 1,29,-1
 450 740 l 1,30,-1
 450 618 l 1,31,-1
 346 618 l 1,32,-1
 346 740 l 1,29,-1
191 740 m 1,33,-1
 295 740 l 1,34,-1
 295 618 l 1,35,-1
 191 618 l 1,36,-1
 191 740 l 1,33,-1
EndSplineSet
EndChar

StartChar: igrave
Encoding: 236 236 171
Width: 236
GlyphClass: 2
Flags: W
LayerCount: 2
Fore
SplineSet
170 554 m 1,0,-1
 170 0 l 1,1,-1
 66 0 l 1,2,-1
 66 554 l 1,3,-1
 170 554 l 1,0,-1
-10 815 m 1,4,-1
 215 692 l 1,5,-1
 171 612 l 1,6,-1
 -52 740 l 1,7,-1
 -10 815 l 1,4,-1
EndSplineSet
EndChar

StartChar: iacute
Encoding: 237 237 172
Width: 236
GlyphClass: 2
Flags: W
LayerCount: 2
Fore
SplineSet
170 554 m 1,0,-1
 170 0 l 1,1,-1
 66 0 l 1,2,-1
 66 554 l 1,3,-1
 170 554 l 1,0,-1
43 611 m 1,4,-1
 1 686 l 1,5,-1
 224 814 l 1,6,-1
 268 733 l 1,7,-1
 43 611 l 1,4,-1
EndSplineSet
EndChar

StartChar: icircumflex
Encoding: 238 238 173
Width: 236
GlyphClass: 2
Flags: W
LayerCount: 2
Fore
SplineSet
170 554 m 1,0,-1
 170 0 l 1,1,-1
 66 0 l 1,2,-1
 66 554 l 1,3,-1
 170 554 l 1,0,-1
308 628 m 1,4,-1
 189 628 l 1,5,-1
 120 697 l 1,6,-1
 48 628 l 1,7,-1
 -71 628 l 1,8,-1
 68 763 l 1,9,-1
 168 763 l 1,10,-1
 308 628 l 1,4,-1
EndSplineSet
EndChar

StartChar: idieresis
Encoding: 239 239 174
Width: 236
GlyphClass: 2
Flags: W
LayerCount: 2
Fore
SplineSet
170 554 m 1,0,-1
 170 0 l 1,1,-1
 66 0 l 1,2,-1
 66 554 l 1,3,-1
 170 554 l 1,0,-1
144 740 m 1,4,-1
 248 740 l 1,5,-1
 248 618 l 1,6,-1
 144 618 l 1,7,-1
 144 740 l 1,4,-1
-11 740 m 1,8,-1
 93 740 l 1,9,-1
 93 618 l 1,10,-1
 -11 618 l 1,11,-1
 -11 740 l 1,8,-1
EndSplineSet
EndChar

StartChar: eth
Encoding: 240 240 175
Width: 674
GlyphClass: 2
Flags: W
LayerCount: 2
Fore
SplineSet
336 474 m 0,0,1
 251 474 251 474 196.5 413 c 128,-1,2
 142 352 142 352 142 278 c 0,3,4
 142 203 142 203 197 142 c 128,-1,5
 252 81 252 81 338 81 c 128,-1,6
 424 81 424 81 478 141.5 c 128,-1,7
 532 202 532 202 532 281 c 0,8,9
 532 357 532 357 480.5 415.5 c 128,-1,10
 429 474 429 474 336 474 c 0,0,1
542 702 m 1,11,-1
 434 666 l 1,12,13
 533 596 533 596 584.5 497 c 128,-1,14
 636 398 636 398 636 295 c 0,15,16
 636 161 636 161 550 73.5 c 128,-1,17
 464 -14 464 -14 337 -14 c 0,18,19
 267 -14 267 -14 208.5 13.5 c 128,-1,20
 150 41 150 41 113.5 84.5 c 128,-1,21
 77 128 77 128 57.5 179 c 128,-1,22
 38 230 38 230 38 280 c 0,23,24
 38 399 38 399 125.5 484 c 128,-1,25
 213 569 213 569 331 569 c 0,26,27
 386 569 386 569 432 541 c 1,28,-1
 434 543 l 1,29,30
 394 590 394 590 323 630 c 1,31,-1
 156 574 l 1,32,-1
 90 625 l 1,33,-1
 236 674 l 1,34,35
 232 676 232 676 166 704.5 c 128,-1,36
 100 733 100 733 80 740 c 1,37,-1
 289 740 l 1,38,39
 318 731 318 731 354 713 c 1,40,-1
 478 754 l 1,41,-1
 542 702 l 1,11,-1
EndSplineSet
EndChar

StartChar: ntilde
Encoding: 241 241 176
Width: 624
GlyphClass: 2
Flags: W
LayerCount: 2
Fore
SplineSet
558 0 m 1,0,-1
 454 0 l 1,1,-1
 454 301 l 2,2,3
 454 474 454 474 316 474 c 0,4,5
 249 474 249 474 209.5 429.5 c 128,-1,6
 170 385 170 385 170 302 c 2,7,-1
 170 0 l 1,8,-1
 66 0 l 1,9,-1
 66 554 l 1,10,-1
 163 554 l 1,11,-1
 163 495 l 1,12,-1
 165 495 l 1,13,14
 220 569 220 569 327 569 c 0,15,16
 460 569 460 569 523 470 c 0,17,18
 557 417 557 417 558 328 c 2,19,-1
 558 0 l 1,0,-1
470 679 m 1,20,21
 419 633 419 633 372 633 c 0,22,23
 342 633 342 633 305 647 c 128,-1,24
 268 661 268 661 252 661 c 0,25,26
 228 661 228 661 195 637 c 1,27,-1
 154 702 l 1,28,29
 207 743 207 743 251 743 c 0,30,31
 276 743 276 743 310 729 c 128,-1,32
 344 715 344 715 365 715 c 0,33,34
 396 715 396 715 429 744 c 1,35,-1
 470 679 l 1,20,21
EndSplineSet
EndChar

StartChar: ograve
Encoding: 242 242 177
Width: 674
GlyphClass: 2
Flags: W
LayerCount: 2
Fore
SplineSet
636 279 m 0,0,1
 636 209 636 209 601.5 143 c 128,-1,2
 567 77 567 77 496.5 31.5 c 128,-1,3
 426 -14 426 -14 337 -14 c 0,4,5
 270 -14 270 -14 212 12.5 c 128,-1,6
 154 39 154 39 117 81.5 c 128,-1,7
 80 124 80 124 59 176 c 128,-1,8
 38 228 38 228 38 281 c 0,9,10
 38 397 38 397 124.5 483 c 128,-1,11
 211 569 211 569 337 569 c 0,12,13
 462 569 462 569 549 483.5 c 128,-1,14
 636 398 636 398 636 279 c 0,0,1
532 279 m 0,15,16
 532 356 532 356 477 415 c 128,-1,17
 422 474 422 474 337 474 c 128,-1,18
 252 474 252 474 197 415 c 128,-1,19
 142 356 142 356 142 278 c 128,-1,20
 142 200 142 200 197.5 140.5 c 128,-1,21
 253 81 253 81 337 81 c 0,22,23
 420 81 420 81 476 140 c 128,-1,24
 532 199 532 199 532 279 c 0,15,16
226 815 m 1,25,-1
 451 692 l 1,26,-1
 407 612 l 1,27,-1
 184 740 l 1,28,-1
 226 815 l 1,25,-1
EndSplineSet
EndChar

StartChar: oacute
Encoding: 243 243 178
Width: 674
GlyphClass: 2
Flags: W
LayerCount: 2
Fore
SplineSet
636 279 m 0,0,1
 636 209 636 209 601.5 143 c 128,-1,2
 567 77 567 77 496.5 31.5 c 128,-1,3
 426 -14 426 -14 337 -14 c 0,4,5
 270 -14 270 -14 212 12.5 c 128,-1,6
 154 39 154 39 117 81.5 c 128,-1,7
 80 124 80 124 59 176 c 128,-1,8
 38 228 38 228 38 281 c 0,9,10
 38 397 38 397 124.5 483 c 128,-1,11
 211 569 211 569 337 569 c 0,12,13
 462 569 462 569 549 483.5 c 128,-1,14
 636 398 636 398 636 279 c 0,0,1
532 279 m 0,15,16
 532 356 532 356 477 415 c 128,-1,17
 422 474 422 474 337 474 c 128,-1,18
 252 474 252 474 197 415 c 128,-1,19
 142 356 142 356 142 278 c 128,-1,20
 142 200 142 200 197.5 140.5 c 128,-1,21
 253 81 253 81 337 81 c 0,22,23
 420 81 420 81 476 140 c 128,-1,24
 532 199 532 199 532 279 c 0,15,16
266 611 m 1,25,-1
 224 686 l 1,26,-1
 447 814 l 1,27,-1
 491 733 l 1,28,-1
 266 611 l 1,25,-1
EndSplineSet
EndChar

StartChar: ocircumflex
Encoding: 244 244 179
Width: 674
GlyphClass: 2
Flags: W
LayerCount: 2
Fore
SplineSet
636 279 m 0,0,1
 636 209 636 209 601.5 143 c 128,-1,2
 567 77 567 77 496.5 31.5 c 128,-1,3
 426 -14 426 -14 337 -14 c 0,4,5
 270 -14 270 -14 212 12.5 c 128,-1,6
 154 39 154 39 117 81.5 c 128,-1,7
 80 124 80 124 59 176 c 128,-1,8
 38 228 38 228 38 281 c 0,9,10
 38 397 38 397 124.5 483 c 128,-1,11
 211 569 211 569 337 569 c 0,12,13
 462 569 462 569 549 483.5 c 128,-1,14
 636 398 636 398 636 279 c 0,0,1
532 279 m 0,15,16
 532 356 532 356 477 415 c 128,-1,17
 422 474 422 474 337 474 c 128,-1,18
 252 474 252 474 197 415 c 128,-1,19
 142 356 142 356 142 278 c 128,-1,20
 142 200 142 200 197.5 140.5 c 128,-1,21
 253 81 253 81 337 81 c 0,22,23
 420 81 420 81 476 140 c 128,-1,24
 532 199 532 199 532 279 c 0,15,16
527 628 m 1,25,-1
 408 628 l 1,26,-1
 339 697 l 1,27,-1
 267 628 l 1,28,-1
 148 628 l 1,29,-1
 287 763 l 1,30,-1
 387 763 l 1,31,-1
 527 628 l 1,25,-1
EndSplineSet
EndChar

StartChar: otilde
Encoding: 245 245 180
Width: 674
GlyphClass: 2
Flags: W
LayerCount: 2
Fore
SplineSet
636 279 m 0,0,1
 636 209 636 209 601.5 143 c 128,-1,2
 567 77 567 77 496.5 31.5 c 128,-1,3
 426 -14 426 -14 337 -14 c 0,4,5
 270 -14 270 -14 212 12.5 c 128,-1,6
 154 39 154 39 117 81.5 c 128,-1,7
 80 124 80 124 59 176 c 128,-1,8
 38 228 38 228 38 281 c 0,9,10
 38 397 38 397 124.5 483 c 128,-1,11
 211 569 211 569 337 569 c 0,12,13
 462 569 462 569 549 483.5 c 128,-1,14
 636 398 636 398 636 279 c 0,0,1
532 279 m 0,15,16
 532 356 532 356 477 415 c 128,-1,17
 422 474 422 474 337 474 c 128,-1,18
 252 474 252 474 197 415 c 128,-1,19
 142 356 142 356 142 278 c 128,-1,20
 142 200 142 200 197.5 140.5 c 128,-1,21
 253 81 253 81 337 81 c 0,22,23
 420 81 420 81 476 140 c 128,-1,24
 532 199 532 199 532 279 c 0,15,16
495 679 m 1,25,26
 444 633 444 633 397 633 c 0,27,28
 367 633 367 633 330 647 c 128,-1,29
 293 661 293 661 277 661 c 0,30,31
 253 661 253 661 220 637 c 1,32,-1
 179 702 l 1,33,34
 232 743 232 743 276 743 c 0,35,36
 301 743 301 743 335 729 c 128,-1,37
 369 715 369 715 390 715 c 0,38,39
 421 715 421 715 454 744 c 1,40,-1
 495 679 l 1,25,26
EndSplineSet
EndChar

StartChar: odieresis
Encoding: 246 246 181
Width: 674
GlyphClass: 2
Flags: W
LayerCount: 2
Fore
SplineSet
636 279 m 0,0,1
 636 209 636 209 601.5 143 c 128,-1,2
 567 77 567 77 496.5 31.5 c 128,-1,3
 426 -14 426 -14 337 -14 c 0,4,5
 270 -14 270 -14 212 12.5 c 128,-1,6
 154 39 154 39 117 81.5 c 128,-1,7
 80 124 80 124 59 176 c 128,-1,8
 38 228 38 228 38 281 c 0,9,10
 38 397 38 397 124.5 483 c 128,-1,11
 211 569 211 569 337 569 c 0,12,13
 462 569 462 569 549 483.5 c 128,-1,14
 636 398 636 398 636 279 c 0,0,1
532 279 m 0,15,16
 532 356 532 356 477 415 c 128,-1,17
 422 474 422 474 337 474 c 128,-1,18
 252 474 252 474 197 415 c 128,-1,19
 142 356 142 356 142 278 c 128,-1,20
 142 200 142 200 197.5 140.5 c 128,-1,21
 253 81 253 81 337 81 c 0,22,23
 420 81 420 81 476 140 c 128,-1,24
 532 199 532 199 532 279 c 0,15,16
363 740 m 1,25,-1
 467 740 l 1,26,-1
 467 618 l 1,27,-1
 363 618 l 1,28,-1
 363 740 l 1,25,-1
208 740 m 1,29,-1
 312 740 l 1,30,-1
 312 618 l 1,31,-1
 208 618 l 1,32,-1
 208 740 l 1,29,-1
EndSplineSet
EndChar

StartChar: divide
Encoding: 247 247 182
Width: 600
GlyphClass: 2
Flags: W
LayerCount: 2
Fore
SplineSet
552 237 m 1,0,-1
 48 237 l 1,1,-1
 48 341 l 1,2,-1
 552 341 l 1,3,-1
 552 237 l 1,0,-1
352 434 m 1,4,-1
 248 434 l 1,5,-1
 248 542 l 1,6,-1
 352 542 l 1,7,-1
 352 434 l 1,4,-1
352 36 m 1,8,-1
 248 36 l 1,9,-1
 248 144 l 1,10,-1
 352 144 l 1,11,-1
 352 36 l 1,8,-1
EndSplineSet
EndChar

StartChar: oslash
Encoding: 248 248 183
Width: 674
GlyphClass: 2
Flags: W
LayerCount: 2
Fore
SplineSet
218 10 m 1,0,-1
 166 -69 l 1,1,-1
 87 -16 l 1,2,-1
 138 61 l 1,3,4
 38 154 38 154 38 281 c 0,5,6
 38 397 38 397 124.5 483 c 128,-1,7
 211 569 211 569 337 569 c 0,8,9
 403 569 403 569 456 545 c 1,10,-1
 507 623 l 1,11,-1
 587 570 l 1,12,-1
 537 494 l 1,13,14
 586 452 586 452 611 395 c 128,-1,15
 636 338 636 338 636 280 c 0,16,17
 636 167 636 167 552.5 76.5 c 128,-1,18
 469 -14 469 -14 337 -14 c 0,19,20
 273 -14 273 -14 218 10 c 1,0,-1
482 410 m 1,21,-1
 272 92 l 1,22,23
 305 81 305 81 337 81 c 0,24,25
 421 81 421 81 476.5 140.5 c 128,-1,26
 532 200 532 200 532 278 c 0,27,28
 532 354 532 354 482 410 c 1,21,-1
193 145 m 1,29,-1
 402 463 l 1,30,31
 369 474 369 474 337 474 c 0,32,33
 253 474 253 474 197.5 415 c 128,-1,34
 142 356 142 356 142 278 c 0,35,36
 142 204 142 204 193 145 c 1,29,-1
EndSplineSet
EndChar

StartChar: ugrave
Encoding: 249 249 184
Width: 623
GlyphClass: 2
Flags: W
LayerCount: 2
Fore
SplineSet
66 554 m 1,0,-1
 170 554 l 1,1,-1
 170 254 l 2,2,3
 170 81 170 81 308 81 c 0,4,5
 376 81 376 81 414.5 125 c 128,-1,6
 453 169 453 169 453 257 c 2,7,-1
 453 554 l 1,8,-1
 557 554 l 1,9,-1
 557 0 l 1,10,-1
 462 0 l 1,11,-1
 462 60 l 1,12,-1
 460 60 l 1,13,14
 439 25 439 25 395 5.5 c 128,-1,15
 351 -14 351 -14 297 -14 c 0,16,17
 202 -14 202 -14 139 41 c 0,18,19
 66 103 66 103 66 254 c 2,20,-1
 66 554 l 1,0,-1
190 815 m 1,21,-1
 415 692 l 1,22,-1
 371 612 l 1,23,-1
 148 740 l 1,24,-1
 190 815 l 1,21,-1
EndSplineSet
EndChar

StartChar: uacute
Encoding: 250 250 185
Width: 623
GlyphClass: 2
Flags: W
LayerCount: 2
Fore
SplineSet
66 554 m 1,0,-1
 170 554 l 1,1,-1
 170 254 l 2,2,3
 170 81 170 81 308 81 c 0,4,5
 376 81 376 81 414.5 125 c 128,-1,6
 453 169 453 169 453 257 c 2,7,-1
 453 554 l 1,8,-1
 557 554 l 1,9,-1
 557 0 l 1,10,-1
 462 0 l 1,11,-1
 462 60 l 1,12,-1
 460 60 l 1,13,14
 439 25 439 25 395 5.5 c 128,-1,15
 351 -14 351 -14 297 -14 c 0,16,17
 202 -14 202 -14 139 41 c 0,18,19
 66 103 66 103 66 254 c 2,20,-1
 66 554 l 1,0,-1
266 611 m 1,21,-1
 224 686 l 1,22,-1
 447 814 l 1,23,-1
 491 733 l 1,24,-1
 266 611 l 1,21,-1
EndSplineSet
EndChar

StartChar: ucircumflex
Encoding: 251 251 186
Width: 623
GlyphClass: 2
Flags: W
LayerCount: 2
Fore
SplineSet
66 554 m 1,0,-1
 170 554 l 1,1,-1
 170 254 l 2,2,3
 170 81 170 81 308 81 c 0,4,5
 376 81 376 81 414.5 125 c 128,-1,6
 453 169 453 169 453 257 c 2,7,-1
 453 554 l 1,8,-1
 557 554 l 1,9,-1
 557 0 l 1,10,-1
 462 0 l 1,11,-1
 462 60 l 1,12,-1
 460 60 l 1,13,14
 439 25 439 25 395 5.5 c 128,-1,15
 351 -14 351 -14 297 -14 c 0,16,17
 202 -14 202 -14 139 41 c 0,18,19
 66 103 66 103 66 254 c 2,20,-1
 66 554 l 1,0,-1
502 628 m 1,21,-1
 383 628 l 1,22,-1
 314 697 l 1,23,-1
 242 628 l 1,24,-1
 123 628 l 1,25,-1
 262 763 l 1,26,-1
 362 763 l 1,27,-1
 502 628 l 1,21,-1
EndSplineSet
EndChar

StartChar: udieresis
Encoding: 252 252 187
Width: 623
GlyphClass: 2
Flags: W
LayerCount: 2
Fore
SplineSet
66 554 m 1,0,-1
 170 554 l 1,1,-1
 170 254 l 2,2,3
 170 81 170 81 308 81 c 0,4,5
 376 81 376 81 414.5 125 c 128,-1,6
 453 169 453 169 453 257 c 2,7,-1
 453 554 l 1,8,-1
 557 554 l 1,9,-1
 557 0 l 1,10,-1
 462 0 l 1,11,-1
 462 60 l 1,12,-1
 460 60 l 1,13,14
 439 25 439 25 395 5.5 c 128,-1,15
 351 -14 351 -14 297 -14 c 0,16,17
 202 -14 202 -14 139 41 c 0,18,19
 66 103 66 103 66 254 c 2,20,-1
 66 554 l 1,0,-1
338 740 m 1,21,-1
 442 740 l 1,22,-1
 442 618 l 1,23,-1
 338 618 l 1,24,-1
 338 740 l 1,21,-1
183 740 m 1,25,-1
 287 740 l 1,26,-1
 287 618 l 1,27,-1
 183 618 l 1,28,-1
 183 740 l 1,25,-1
EndSplineSet
EndChar

StartChar: yacute
Encoding: 253 253 188
Width: 574
GlyphClass: 2
Flags: W
LayerCount: 2
Fore
SplineSet
566 554 m 1,0,-1
 260 -185 l 1,1,-1
 152 -185 l 1,2,-1
 233 11 l 1,3,-1
 12 554 l 1,4,-1
 124 554 l 1,5,-1
 287 124 l 1,6,-1
 454 554 l 1,7,-1
 566 554 l 1,0,-1
241 611 m 1,8,-1
 199 686 l 1,9,-1
 422 814 l 1,10,-1
 466 733 l 1,11,-1
 241 611 l 1,8,-1
EndSplineSet
EndChar

StartChar: thorn
Encoding: 254 254 189
Width: 685
GlyphClass: 2
Flags: W
LayerCount: 2
Fore
SplineSet
66 -185 m 1,0,-1
 66 740 l 1,1,-1
 170 740 l 1,2,-1
 170 477 l 1,3,-1
 172 477 l 1,4,5
 201 523 201 523 252 546 c 128,-1,6
 303 569 303 569 360 569 c 0,7,8
 493 569 493 569 570 479.5 c 128,-1,9
 647 390 647 390 647 270 c 0,10,11
 647 158 647 158 570 72 c 128,-1,12
 493 -14 493 -14 367 -14 c 0,13,14
 291 -14 291 -14 241.5 15 c 128,-1,15
 192 44 192 44 172 80 c 1,16,-1
 170 80 l 1,17,-1
 170 -185 l 1,18,-1
 66 -185 l 1,0,-1
543 276 m 0,19,20
 543 353 543 353 488.5 413.5 c 128,-1,21
 434 474 434 474 353 474 c 0,22,23
 274 474 274 474 221 415 c 128,-1,24
 168 356 168 356 168 278 c 0,25,26
 168 194 168 194 222.5 137.5 c 128,-1,27
 277 81 277 81 356 81 c 0,28,29
 432 81 432 81 487.5 136 c 128,-1,30
 543 191 543 191 543 276 c 0,19,20
EndSplineSet
EndChar

StartChar: ydieresis
Encoding: 255 255 190
Width: 574
GlyphClass: 2
Flags: W
LayerCount: 2
Fore
SplineSet
566 554 m 1,0,-1
 260 -185 l 1,1,-1
 152 -185 l 1,2,-1
 233 11 l 1,3,-1
 12 554 l 1,4,-1
 124 554 l 1,5,-1
 287 124 l 1,6,-1
 454 554 l 1,7,-1
 566 554 l 1,0,-1
313 740 m 1,8,-1
 417 740 l 1,9,-1
 417 618 l 1,10,-1
 313 618 l 1,11,-1
 313 740 l 1,8,-1
158 740 m 1,12,-1
 262 740 l 1,13,-1
 262 618 l 1,14,-1
 158 618 l 1,15,-1
 158 740 l 1,12,-1
EndSplineSet
EndChar

StartChar: Amacron
Encoding: 256 256 191
Width: 683
GlyphClass: 2
Flags: W
LayerCount: 2
Fore
SplineSet
671 0 m 1,0,-1
 556 0 l 1,1,-1
 474 218 l 1,2,-1
 208 218 l 1,3,-1
 126 0 l 1,4,-1
 12 0 l 1,5,-1
 293 740 l 1,6,-1
 390 740 l 1,7,-1
 671 0 l 1,0,-1
246 317 m 1,8,-1
 437 317 l 1,9,-1
 343 600 l 1,10,-1
 341 600 l 1,11,-1
 246 317 l 1,8,-1
520 820 m 1,12,-1
 165 820 l 1,13,-1
 165 895 l 1,14,-1
 520 895 l 1,15,-1
 520 820 l 1,12,-1
EndSplineSet
Position2: "'cpsp' Capital Spacing lookup 0 subtable" dx=5 dy=0 dh=10 dv=0
EndChar

StartChar: amacron
Encoding: 257 257 192
Width: 692
GlyphClass: 2
Flags: W
LayerCount: 2
Fore
SplineSet
626 0 m 1,0,-1
 522 0 l 1,1,-1
 522 86 l 1,2,-1
 520 86 l 1,3,4
 491 37 491 37 441 11.5 c 128,-1,5
 391 -14 391 -14 332 -14 c 0,6,7
 197 -14 197 -14 117.5 72 c 128,-1,8
 38 158 38 158 38 275 c 0,9,10
 38 327 38 327 56.5 378 c 128,-1,11
 75 429 75 429 110 472.5 c 128,-1,12
 145 516 145 516 203 542.5 c 128,-1,13
 261 569 261 569 332 569 c 0,14,15
 391 569 391 569 441 545 c 128,-1,16
 491 521 491 521 520 476 c 1,17,-1
 522 476 l 1,18,-1
 522 554 l 1,19,-1
 626 554 l 1,20,-1
 626 0 l 1,0,-1
524 276 m 0,21,22
 524 363 524 363 468.5 418.5 c 128,-1,23
 413 474 413 474 332 474 c 0,24,25
 243 474 243 474 192.5 412.5 c 128,-1,26
 142 351 142 351 142 276 c 0,27,28
 142 199 142 199 196.5 140 c 128,-1,29
 251 81 251 81 331 81 c 0,30,31
 412 81 412 81 468 138 c 128,-1,32
 524 195 524 195 524 276 c 0,21,22
519 645 m 1,33,-1
 164 645 l 1,34,-1
 164 720 l 1,35,-1
 519 720 l 1,36,-1
 519 645 l 1,33,-1
EndSplineSet
EndChar

StartChar: Abreve
Encoding: 258 258 193
Width: 683
GlyphClass: 2
Flags: W
LayerCount: 2
Fore
SplineSet
671 0 m 1,0,-1
 556 0 l 1,1,-1
 474 218 l 1,2,-1
 208 218 l 1,3,-1
 126 0 l 1,4,-1
 12 0 l 1,5,-1
 293 740 l 1,6,-1
 390 740 l 1,7,-1
 671 0 l 1,0,-1
246 317 m 1,8,-1
 437 317 l 1,9,-1
 343 600 l 1,10,-1
 341 600 l 1,11,-1
 246 317 l 1,8,-1
429 934 m 1,12,-1
 521 934 l 1,13,14
 512 876 512 876 476 840 c 0,15,16
 428 790 428 790 342 790 c 128,-1,17
 256 790 256 790 208 840 c 0,18,19
 172 876 172 876 163 934 c 1,20,-1
 255 934 l 1,21,22
 261 904 261 904 279 887 c 0,23,24
 302 866 302 866 342 866 c 128,-1,25
 382 866 382 866 405 887 c 0,26,27
 423 904 423 904 429 934 c 1,12,-1
EndSplineSet
Position2: "'cpsp' Capital Spacing lookup 0 subtable" dx=5 dy=0 dh=10 dv=0
EndChar

StartChar: abreve
Encoding: 259 259 194
Width: 692
GlyphClass: 2
Flags: W
LayerCount: 2
Fore
SplineSet
626 0 m 1,0,-1
 522 0 l 1,1,-1
 522 86 l 1,2,-1
 520 86 l 1,3,4
 491 37 491 37 441 11.5 c 128,-1,5
 391 -14 391 -14 332 -14 c 0,6,7
 197 -14 197 -14 117.5 72 c 128,-1,8
 38 158 38 158 38 275 c 0,9,10
 38 327 38 327 56.5 378 c 128,-1,11
 75 429 75 429 110 472.5 c 128,-1,12
 145 516 145 516 203 542.5 c 128,-1,13
 261 569 261 569 332 569 c 0,14,15
 391 569 391 569 441 545 c 128,-1,16
 491 521 491 521 520 476 c 1,17,-1
 522 476 l 1,18,-1
 522 554 l 1,19,-1
 626 554 l 1,20,-1
 626 0 l 1,0,-1
524 276 m 0,21,22
 524 363 524 363 468.5 418.5 c 128,-1,23
 413 474 413 474 332 474 c 0,24,25
 243 474 243 474 192.5 412.5 c 128,-1,26
 142 351 142 351 142 276 c 0,27,28
 142 199 142 199 196.5 140 c 128,-1,29
 251 81 251 81 331 81 c 0,30,31
 412 81 412 81 468 138 c 128,-1,32
 524 195 524 195 524 276 c 0,21,22
412 747 m 1,33,-1
 500 747 l 1,34,35
 499 740 499 740 495.5 728 c 128,-1,36
 492 716 492 716 481 694.5 c 128,-1,37
 470 673 470 673 455 657 c 0,38,39
 411 612 411 612 336 612 c 0,40,41
 260 612 260 612 217 657 c 0,42,43
 183 693 183 693 172 747 c 1,44,-1
 260 747 l 1,45,46
 264 721 264 721 282 703 c 0,47,48
 301 684 301 684 336 684 c 128,-1,49
 371 684 371 684 390 703 c 0,50,51
 408 721 408 721 412 747 c 1,33,-1
EndSplineSet
EndChar

StartChar: Aogonek
Encoding: 260 260 195
Width: 684
GlyphClass: 2
Flags: W
LayerCount: 2
Fore
SplineSet
604 0 m 1,0,-1
 557 0 l 1,1,-1
 475 218 l 1,2,-1
 209 218 l 1,3,-1
 127 0 l 1,4,-1
 13 0 l 1,5,-1
 294 740 l 1,6,-1
 391 740 l 1,7,-1
 672 0 l 1,8,9
 642 -16 642 -16 619 -40 c 128,-1,10
 596 -64 596 -64 596 -91 c 0,11,12
 596 -146 596 -146 658 -146 c 0,13,14
 680 -146 680 -146 706 -132 c 1,15,-1
 706 -200 l 1,16,17
 682 -211 682 -211 642 -211 c 0,18,19
 603 -211 603 -211 576 -199.5 c 128,-1,20
 549 -188 549 -188 538 -170.5 c 128,-1,21
 527 -153 527 -153 523 -140 c 128,-1,22
 519 -127 519 -127 519 -115 c 0,23,24
 519 -48 519 -48 604 0 c 1,0,-1
247 317 m 1,25,-1
 438 317 l 1,26,-1
 344 600 l 1,27,-1
 342 600 l 1,28,-1
 247 317 l 1,25,-1
EndSplineSet
Position2: "'cpsp' Capital Spacing lookup 0 subtable" dx=5 dy=0 dh=10 dv=0
EndChar

StartChar: aogonek
Encoding: 261 261 196
Width: 693
GlyphClass: 2
Flags: W
LayerCount: 2
Fore
SplineSet
558 0 m 1,0,-1
 522 0 l 1,1,-1
 522 86 l 1,2,-1
 520 86 l 1,3,4
 491 37 491 37 441 11.5 c 128,-1,5
 391 -14 391 -14 332 -14 c 0,6,7
 197 -14 197 -14 117.5 72 c 128,-1,8
 38 158 38 158 38 275 c 0,9,10
 38 327 38 327 56.5 378 c 128,-1,11
 75 429 75 429 110 472.5 c 128,-1,12
 145 516 145 516 203 542.5 c 128,-1,13
 261 569 261 569 332 569 c 0,14,15
 391 569 391 569 441 545 c 128,-1,16
 491 521 491 521 520 476 c 1,17,-1
 522 476 l 1,18,-1
 522 554 l 1,19,-1
 626 554 l 1,20,-1
 626 0 l 1,21,22
 553 -42 553 -42 553 -85 c 0,23,24
 553 -108 553 -108 569 -122.5 c 128,-1,25
 585 -137 585 -137 612 -137 c 0,26,27
 633 -137 633 -137 657 -126 c 1,28,-1
 657 -191 l 1,29,30
 633 -202 633 -202 595 -202 c 128,-1,31
 557 -202 557 -202 531 -191 c 128,-1,32
 505 -180 505 -180 494.5 -163 c 128,-1,33
 484 -146 484 -146 480 -133 c 128,-1,34
 476 -120 476 -120 476 -109 c 0,35,36
 476 -47 476 -47 558 0 c 1,0,-1
524 276 m 0,37,38
 524 363 524 363 468.5 418.5 c 128,-1,39
 413 474 413 474 332 474 c 0,40,41
 243 474 243 474 192.5 412.5 c 128,-1,42
 142 351 142 351 142 276 c 0,43,44
 142 199 142 199 196.5 140 c 128,-1,45
 251 81 251 81 331 81 c 0,46,47
 412 81 412 81 468 138 c 128,-1,48
 524 195 524 195 524 276 c 0,37,38
EndSplineSet
EndChar

StartChar: Cacute
Encoding: 262 262 197
Width: 782
GlyphClass: 2
Flags: W
LayerCount: 2
Fore
SplineSet
759 551 m 1,0,-1
 629 551 l 1,1,2
 537 655 537 655 421 655 c 0,3,4
 306 655 306 655 226 572 c 128,-1,5
 146 489 146 489 146 372 c 0,6,7
 146 254 146 254 228 169.5 c 128,-1,8
 310 85 310 85 419 85 c 0,9,10
 538 85 538 85 621 183 c 1,11,-1
 754 183 l 1,12,13
 696 81 696 81 605.5 33.5 c 128,-1,14
 515 -14 515 -14 418 -14 c 0,15,16
 261 -14 261 -14 149.5 100.5 c 128,-1,17
 38 215 38 215 38 373 c 0,18,19
 38 533 38 533 150 643.5 c 128,-1,20
 262 754 262 754 419 754 c 0,21,22
 546 754 546 754 645 682 c 0,23,24
 711 635 711 635 759 551 c 1,0,-1
336 777 m 1,25,-1
 294 852 l 1,26,-1
 517 980 l 1,27,-1
 561 899 l 1,28,-1
 336 777 l 1,25,-1
EndSplineSet
Position2: "'cpsp' Capital Spacing lookup 0 subtable" dx=5 dy=0 dh=10 dv=0
EndChar

StartChar: cacute
Encoding: 263 263 198
Width: 627
GlyphClass: 2
Flags: W
LayerCount: 2
Fore
SplineSet
595 370 m 1,0,-1
 480 370 l 1,1,2
 432 474 432 474 324 474 c 0,3,4
 261 474 261 474 218 441.5 c 128,-1,5
 175 409 175 409 158.5 366.5 c 128,-1,6
 142 324 142 324 142 278 c 0,7,8
 142 200 142 200 190 140.5 c 128,-1,9
 238 81 238 81 322 81 c 0,10,11
 431 81 431 81 479 183 c 1,12,-1
 595 183 l 1,13,14
 563 92 563 92 489 39 c 128,-1,15
 415 -14 415 -14 322 -14 c 0,16,17
 193 -14 193 -14 115.5 74.5 c 128,-1,18
 38 163 38 163 38 278 c 0,19,20
 38 395 38 395 117.5 482 c 128,-1,21
 197 569 197 569 323 569 c 0,22,23
 431 569 431 569 503.5 506 c 128,-1,24
 576 443 576 443 595 370 c 1,0,-1
241 611 m 1,25,-1
 199 686 l 1,26,-1
 422 814 l 1,27,-1
 466 733 l 1,28,-1
 241 611 l 1,25,-1
EndSplineSet
EndChar

StartChar: Ccircumflex
Encoding: 264 264 199
Width: 782
GlyphClass: 2
Flags: W
LayerCount: 2
Fore
SplineSet
759 551 m 1,0,-1
 629 551 l 1,1,2
 537 655 537 655 421 655 c 0,3,4
 306 655 306 655 226 572 c 128,-1,5
 146 489 146 489 146 372 c 0,6,7
 146 254 146 254 228 169.5 c 128,-1,8
 310 85 310 85 419 85 c 0,9,10
 538 85 538 85 621 183 c 1,11,-1
 754 183 l 1,12,13
 696 81 696 81 605.5 33.5 c 128,-1,14
 515 -14 515 -14 418 -14 c 0,15,16
 261 -14 261 -14 149.5 100.5 c 128,-1,17
 38 215 38 215 38 373 c 0,18,19
 38 533 38 533 150 643.5 c 128,-1,20
 262 754 262 754 419 754 c 0,21,22
 546 754 546 754 645 682 c 0,23,24
 711 635 711 635 759 551 c 1,0,-1
611 790 m 1,25,-1
 492 790 l 1,26,-1
 423 859 l 1,27,-1
 351 790 l 1,28,-1
 232 790 l 1,29,-1
 371 925 l 1,30,-1
 471 925 l 1,31,-1
 611 790 l 1,25,-1
EndSplineSet
Position2: "'cpsp' Capital Spacing lookup 0 subtable" dx=5 dy=0 dh=10 dv=0
EndChar

StartChar: ccircumflex
Encoding: 265 265 200
Width: 627
GlyphClass: 2
Flags: W
LayerCount: 2
Fore
SplineSet
595 370 m 1,0,-1
 480 370 l 1,1,2
 432 474 432 474 324 474 c 0,3,4
 261 474 261 474 218 441.5 c 128,-1,5
 175 409 175 409 158.5 366.5 c 128,-1,6
 142 324 142 324 142 278 c 0,7,8
 142 200 142 200 190 140.5 c 128,-1,9
 238 81 238 81 322 81 c 0,10,11
 431 81 431 81 479 183 c 1,12,-1
 595 183 l 1,13,14
 563 92 563 92 489 39 c 128,-1,15
 415 -14 415 -14 322 -14 c 0,16,17
 193 -14 193 -14 115.5 74.5 c 128,-1,18
 38 163 38 163 38 278 c 0,19,20
 38 395 38 395 117.5 482 c 128,-1,21
 197 569 197 569 323 569 c 0,22,23
 431 569 431 569 503.5 506 c 128,-1,24
 576 443 576 443 595 370 c 1,0,-1
517 628 m 1,25,-1
 398 628 l 1,26,-1
 329 697 l 1,27,-1
 257 628 l 1,28,-1
 138 628 l 1,29,-1
 277 763 l 1,30,-1
 377 763 l 1,31,-1
 517 628 l 1,25,-1
EndSplineSet
EndChar

StartChar: Cdotaccent
Encoding: 266 266 201
Width: 782
GlyphClass: 2
Flags: W
LayerCount: 2
Fore
SplineSet
759 551 m 1,0,-1
 629 551 l 1,1,2
 537 655 537 655 421 655 c 0,3,4
 306 655 306 655 226 572 c 128,-1,5
 146 489 146 489 146 372 c 0,6,7
 146 254 146 254 228 169.5 c 128,-1,8
 310 85 310 85 419 85 c 0,9,10
 538 85 538 85 621 183 c 1,11,-1
 754 183 l 1,12,13
 696 81 696 81 605.5 33.5 c 128,-1,14
 515 -14 515 -14 418 -14 c 0,15,16
 261 -14 261 -14 149.5 100.5 c 128,-1,17
 38 215 38 215 38 373 c 0,18,19
 38 533 38 533 150 643.5 c 128,-1,20
 262 754 262 754 419 754 c 0,21,22
 546 754 546 754 645 682 c 0,23,24
 711 635 711 635 759 551 c 1,0,-1
476 924 m 1,25,-1
 476 802 l 1,26,-1
 372 802 l 1,27,-1
 372 924 l 1,28,-1
 476 924 l 1,25,-1
EndSplineSet
EndChar

StartChar: cdotaccent
Encoding: 267 267 202
Width: 627
GlyphClass: 2
Flags: W
LayerCount: 2
Fore
SplineSet
595 370 m 1,0,-1
 480 370 l 1,1,2
 432 474 432 474 324 474 c 0,3,4
 261 474 261 474 218 441.5 c 128,-1,5
 175 409 175 409 158.5 366.5 c 128,-1,6
 142 324 142 324 142 278 c 0,7,8
 142 200 142 200 190 140.5 c 128,-1,9
 238 81 238 81 322 81 c 0,10,11
 431 81 431 81 479 183 c 1,12,-1
 595 183 l 1,13,14
 563 92 563 92 489 39 c 128,-1,15
 415 -14 415 -14 322 -14 c 0,16,17
 193 -14 193 -14 115.5 74.5 c 128,-1,18
 38 163 38 163 38 278 c 0,19,20
 38 395 38 395 117.5 482 c 128,-1,21
 197 569 197 569 323 569 c 0,22,23
 431 569 431 569 503.5 506 c 128,-1,24
 576 443 576 443 595 370 c 1,0,-1
370 752 m 1,25,-1
 370 630 l 1,26,-1
 266 630 l 1,27,-1
 266 752 l 1,28,-1
 370 752 l 1,25,-1
EndSplineSet
EndChar

StartChar: Ccaron
Encoding: 268 268 203
Width: 782
GlyphClass: 2
Flags: W
LayerCount: 2
Fore
SplineSet
759 551 m 1,0,-1
 629 551 l 1,1,2
 537 655 537 655 421 655 c 0,3,4
 306 655 306 655 226 572 c 128,-1,5
 146 489 146 489 146 372 c 0,6,7
 146 254 146 254 228 169.5 c 128,-1,8
 310 85 310 85 419 85 c 0,9,10
 538 85 538 85 621 183 c 1,11,-1
 754 183 l 1,12,13
 696 81 696 81 605.5 33.5 c 128,-1,14
 515 -14 515 -14 418 -14 c 0,15,16
 261 -14 261 -14 149.5 100.5 c 128,-1,17
 38 215 38 215 38 373 c 0,18,19
 38 533 38 533 150 643.5 c 128,-1,20
 262 754 262 754 419 754 c 0,21,22
 546 754 546 754 645 682 c 0,23,24
 711 635 711 635 759 551 c 1,0,-1
240 932 m 1,25,-1
 354 932 l 1,26,-1
 428 856 l 1,27,-1
 505 932 l 1,28,-1
 619 932 l 1,29,-1
 480 790 l 1,30,-1
 380 790 l 1,31,-1
 240 932 l 1,25,-1
EndSplineSet
Position2: "'cpsp' Capital Spacing lookup 0 subtable" dx=5 dy=0 dh=10 dv=0
EndChar

StartChar: ccaron
Encoding: 269 269 204
Width: 627
GlyphClass: 2
Flags: W
LayerCount: 2
Fore
SplineSet
595 370 m 1,0,-1
 480 370 l 1,1,2
 432 474 432 474 324 474 c 0,3,4
 261 474 261 474 218 441.5 c 128,-1,5
 175 409 175 409 158.5 366.5 c 128,-1,6
 142 324 142 324 142 278 c 0,7,8
 142 200 142 200 190 140.5 c 128,-1,9
 238 81 238 81 322 81 c 0,10,11
 431 81 431 81 479 183 c 1,12,-1
 595 183 l 1,13,14
 563 92 563 92 489 39 c 128,-1,15
 415 -14 415 -14 322 -14 c 0,16,17
 193 -14 193 -14 115.5 74.5 c 128,-1,18
 38 163 38 163 38 278 c 0,19,20
 38 395 38 395 117.5 482 c 128,-1,21
 197 569 197 569 323 569 c 0,22,23
 431 569 431 569 503.5 506 c 128,-1,24
 576 443 576 443 595 370 c 1,0,-1
131 770 m 1,25,-1
 245 770 l 1,26,-1
 319 694 l 1,27,-1
 396 770 l 1,28,-1
 510 770 l 1,29,-1
 371 628 l 1,30,-1
 271 628 l 1,31,-1
 131 770 l 1,25,-1
EndSplineSet
EndChar

StartChar: Dcaron
Encoding: 270 270 205
Width: 738
GlyphClass: 2
Flags: W
LayerCount: 2
Fore
SplineSet
75 0 m 1,0,-1
 75 740 l 1,1,-1
 315 740 l 2,2,3
 518 740 518 740 617 604 c 0,4,5
 693 496 693 496 693 368 c 0,6,7
 693 293 693 293 667.5 219.5 c 128,-1,8
 642 146 642 146 600 107 c 0,9,10
 492 0 492 0 311 0 c 2,11,-1
 75 0 l 1,0,-1
183 641 m 1,12,-1
 183 99 l 1,13,-1
 312 99 l 2,14,15
 364 99 364 99 410 113 c 128,-1,16
 456 127 456 127 496.5 156.5 c 128,-1,17
 537 186 537 186 561 240.5 c 128,-1,18
 585 295 585 295 585 368 c 0,19,20
 585 413 585 413 570.5 458.5 c 128,-1,21
 556 504 556 504 526 546 c 128,-1,22
 496 588 496 588 441 614.5 c 128,-1,23
 386 641 386 641 314 641 c 2,24,-1
 183 641 l 1,12,-1
142 932 m 1,25,-1
 256 932 l 1,26,-1
 330 856 l 1,27,-1
 407 932 l 1,28,-1
 521 932 l 1,29,-1
 382 790 l 1,30,-1
 282 790 l 1,31,-1
 142 932 l 1,25,-1
EndSplineSet
Position2: "'cpsp' Capital Spacing lookup 0 subtable" dx=5 dy=0 dh=10 dv=0
EndChar

StartChar: dcaron
Encoding: 271 271 206
Width: 767
GlyphClass: 2
Flags: W
LayerCount: 2
Fore
SplineSet
620 0 m 1,0,-1
 524 0 l 1,1,-1
 524 79 l 1,2,-1
 522 79 l 1,3,4
 455 -14 455 -14 326 -14 c 0,5,6
 194 -14 194 -14 116 72 c 128,-1,7
 38 158 38 158 38 275 c 0,8,9
 38 327 38 327 56 378 c 128,-1,10
 74 429 74 429 108 472.5 c 128,-1,11
 142 516 142 516 199 542.5 c 128,-1,12
 256 569 256 569 326 569 c 0,13,14
 383 569 383 569 433.5 546.5 c 128,-1,15
 484 524 484 524 514 486 c 1,16,-1
 516 486 l 1,17,-1
 516 740 l 1,18,-1
 620 740 l 1,19,-1
 620 0 l 1,0,-1
524 276 m 0,20,21
 524 363 524 363 468.5 418.5 c 128,-1,22
 413 474 413 474 332 474 c 0,23,24
 243 474 243 474 192.5 412.5 c 128,-1,25
 142 351 142 351 142 276 c 0,26,27
 142 199 142 199 196.5 140 c 128,-1,28
 251 81 251 81 331 81 c 0,29,30
 412 81 412 81 468 138 c 128,-1,31
 524 195 524 195 524 276 c 0,20,21
819 740 m 1,32,-1
 740 586 l 1,33,-1
 642 586 l 1,34,-1
 716 740 l 1,35,-1
 819 740 l 1,32,-1
EndSplineSet
EndChar

StartChar: Dcroat
Encoding: 272 272 207
Width: 762
GlyphClass: 2
Flags: W
LayerCount: 2
Fore
SplineSet
95 322 m 1,0,-1
 20 322 l 1,1,-1
 20 421 l 1,2,-1
 95 421 l 1,3,-1
 95 740 l 1,4,-1
 337 740 l 2,5,6
 538 740 538 740 637 604 c 0,7,8
 713 496 713 496 713 368 c 0,9,10
 713 293 713 293 687.5 219.5 c 128,-1,11
 662 146 662 146 620 107 c 0,12,13
 512 0 512 0 333 0 c 2,14,-1
 95 0 l 1,15,-1
 95 322 l 1,0,-1
339 421 m 1,16,-1
 339 322 l 1,17,-1
 203 322 l 1,18,-1
 203 99 l 1,19,-1
 334 99 l 2,20,21
 384 99 384 99 430 113 c 128,-1,22
 476 127 476 127 516.5 156.5 c 128,-1,23
 557 186 557 186 581 240.5 c 128,-1,24
 605 295 605 295 605 368 c 0,25,26
 605 413 605 413 590 458.5 c 128,-1,27
 575 504 575 504 545 546 c 128,-1,28
 515 588 515 588 460.5 614.5 c 128,-1,29
 406 641 406 641 336 641 c 2,30,-1
 203 641 l 1,31,-1
 203 421 l 1,32,-1
 339 421 l 1,16,-1
EndSplineSet
Position2: "'cpsp' Capital Spacing lookup 0 subtable" dx=5 dy=0 dh=10 dv=0
EndChar

StartChar: dcroat
Encoding: 273 273 208
Width: 687
GlyphClass: 2
Flags: W
LayerCount: 2
Fore
SplineSet
620 0 m 1,0,-1
 524 0 l 1,1,-1
 524 79 l 1,2,-1
 522 79 l 1,3,4
 455 -14 455 -14 326 -14 c 0,5,6
 194 -14 194 -14 116 72 c 128,-1,7
 38 158 38 158 38 275 c 0,8,9
 38 327 38 327 56 378 c 128,-1,10
 74 429 74 429 108 472.5 c 128,-1,11
 142 516 142 516 199 542.5 c 128,-1,12
 256 569 256 569 326 569 c 0,13,14
 383 569 383 569 433.5 546.5 c 128,-1,15
 484 524 484 524 514 486 c 1,16,-1
 516 486 l 1,17,-1
 516 601 l 1,18,-1
 240 601 l 1,19,-1
 240 686 l 1,20,-1
 516 686 l 1,21,-1
 516 740 l 1,22,-1
 620 740 l 1,23,-1
 620 686 l 1,24,-1
 728 686 l 1,25,-1
 728 601 l 1,26,-1
 620 601 l 1,27,-1
 620 0 l 1,0,-1
524 276 m 0,28,29
 524 363 524 363 468.5 418.5 c 128,-1,30
 413 474 413 474 332 474 c 0,31,32
 243 474 243 474 192.5 412.5 c 128,-1,33
 142 351 142 351 142 276 c 0,34,35
 142 199 142 199 196.5 140 c 128,-1,36
 251 81 251 81 331 81 c 0,37,38
 412 81 412 81 468 138 c 128,-1,39
 524 195 524 195 524 276 c 0,28,29
EndSplineSet
EndChar

StartChar: Emacron
Encoding: 274 274 209
Width: 530
GlyphClass: 2
Flags: W
LayerCount: 2
Fore
SplineSet
474 0 m 1,0,-1
 75 0 l 1,1,-1
 75 740 l 1,2,-1
 474 740 l 1,3,-1
 474 641 l 1,4,-1
 183 641 l 1,5,-1
 183 423 l 1,6,-1
 474 423 l 1,7,-1
 474 324 l 1,8,-1
 183 324 l 1,9,-1
 183 99 l 1,10,-1
 474 99 l 1,11,-1
 474 0 l 1,0,-1
455 820 m 1,12,-1
 100 820 l 1,13,-1
 100 895 l 1,14,-1
 455 895 l 1,15,-1
 455 820 l 1,12,-1
EndSplineSet
Position2: "'cpsp' Capital Spacing lookup 0 subtable" dx=5 dy=0 dh=10 dv=0
EndChar

StartChar: emacron
Encoding: 275 275 210
Width: 642
GlyphClass: 2
Flags: W
LayerCount: 2
Fore
SplineSet
601 232 m 1,0,-1
 142 232 l 1,1,2
 161 158 161 158 213.5 119.5 c 128,-1,3
 266 81 266 81 324 81 c 0,4,5
 378 81 378 81 420 108 c 128,-1,6
 462 135 462 135 482 174 c 1,7,-1
 586 174 l 1,8,9
 561 107 561 107 512 62.5 c 128,-1,10
 463 18 463 18 415.5 2 c 128,-1,11
 368 -14 368 -14 320 -14 c 0,12,13
 203 -14 203 -14 120.5 72.5 c 128,-1,14
 38 159 38 159 38 278 c 0,15,16
 38 401 38 401 121 485 c 128,-1,17
 204 569 204 569 322 569 c 0,18,19
 436 569 436 569 520 487 c 128,-1,20
 604 405 604 405 604 285 c 0,21,22
 604 253 604 253 601 232 c 1,0,-1
142 312 m 1,23,-1
 500 312 l 1,24,25
 496 375 496 375 444.5 424.5 c 128,-1,26
 393 474 393 474 321 474 c 128,-1,27
 249 474 249 474 197.5 424.5 c 128,-1,28
 146 375 146 375 142 312 c 1,23,-1
504 645 m 1,29,-1
 149 645 l 1,30,-1
 149 720 l 1,31,-1
 504 720 l 1,32,-1
 504 645 l 1,29,-1
EndSplineSet
EndChar

StartChar: Edotaccent
Encoding: 278 278 211
Width: 530
GlyphClass: 2
Flags: W
LayerCount: 2
Fore
SplineSet
474 0 m 1,0,-1
 75 0 l 1,1,-1
 75 740 l 1,2,-1
 474 740 l 1,3,-1
 474 641 l 1,4,-1
 183 641 l 1,5,-1
 183 423 l 1,6,-1
 474 423 l 1,7,-1
 474 324 l 1,8,-1
 183 324 l 1,9,-1
 183 99 l 1,10,-1
 474 99 l 1,11,-1
 474 0 l 1,0,-1
339 924 m 1,12,-1
 339 802 l 1,13,-1
 235 802 l 1,14,-1
 235 924 l 1,15,-1
 339 924 l 1,12,-1
EndSplineSet
Position2: "'cpsp' Capital Spacing lookup 0 subtable" dx=5 dy=0 dh=10 dv=0
EndChar

StartChar: edotaccent
Encoding: 279 279 212
Width: 642
GlyphClass: 2
Flags: W
LayerCount: 2
Fore
SplineSet
601 232 m 1,0,-1
 142 232 l 1,1,2
 161 158 161 158 213.5 119.5 c 128,-1,3
 266 81 266 81 324 81 c 0,4,5
 378 81 378 81 420 108 c 128,-1,6
 462 135 462 135 482 174 c 1,7,-1
 586 174 l 1,8,9
 561 107 561 107 512 62.5 c 128,-1,10
 463 18 463 18 415.5 2 c 128,-1,11
 368 -14 368 -14 320 -14 c 0,12,13
 203 -14 203 -14 120.5 72.5 c 128,-1,14
 38 159 38 159 38 278 c 0,15,16
 38 401 38 401 121 485 c 128,-1,17
 204 569 204 569 322 569 c 0,18,19
 436 569 436 569 520 487 c 128,-1,20
 604 405 604 405 604 285 c 0,21,22
 604 253 604 253 601 232 c 1,0,-1
142 312 m 1,23,-1
 500 312 l 1,24,25
 496 375 496 375 444.5 424.5 c 128,-1,26
 393 474 393 474 321 474 c 128,-1,27
 249 474 249 474 197.5 424.5 c 128,-1,28
 146 375 146 375 142 312 c 1,23,-1
378 752 m 1,29,-1
 378 630 l 1,30,-1
 274 630 l 1,31,-1
 274 752 l 1,32,-1
 378 752 l 1,29,-1
EndSplineSet
EndChar

StartChar: Eogonek
Encoding: 280 280 213
Width: 520
GlyphClass: 2
Flags: W
LayerCount: 2
Fore
SplineSet
362 0 m 1,0,-1
 65 0 l 1,1,-1
 65 740 l 1,2,-1
 464 740 l 1,3,-1
 464 641 l 1,4,-1
 173 641 l 1,5,-1
 173 423 l 1,6,-1
 464 423 l 1,7,-1
 464 324 l 1,8,-1
 173 324 l 1,9,-1
 173 99 l 1,10,-1
 464 99 l 1,11,-1
 464 0 l 1,12,-1
 430 0 l 1,13,14
 400 -16 400 -16 377 -40 c 128,-1,15
 354 -64 354 -64 354 -91 c 0,16,17
 354 -146 354 -146 416 -146 c 0,18,19
 438 -146 438 -146 464 -132 c 1,20,-1
 464 -200 l 1,21,22
 440 -211 440 -211 400 -211 c 0,23,24
 361 -211 361 -211 334 -199.5 c 128,-1,25
 307 -188 307 -188 296 -170.5 c 128,-1,26
 285 -153 285 -153 281 -140 c 128,-1,27
 277 -127 277 -127 277 -115 c 0,28,29
 277 -48 277 -48 362 0 c 1,0,-1
EndSplineSet
Position2: "'cpsp' Capital Spacing lookup 0 subtable" dx=5 dy=0 dh=10 dv=0
EndChar

StartChar: eogonek
Encoding: 281 281 214
Width: 642
GlyphClass: 2
Flags: W
LayerCount: 2
Fore
SplineSet
601 232 m 1,0,-1
 142 232 l 1,1,2
 161 158 161 158 213.5 119.5 c 128,-1,3
 266 81 266 81 324 81 c 0,4,5
 378 81 378 81 420 108 c 128,-1,6
 462 135 462 135 482 174 c 1,7,-1
 586 174 l 1,8,9
 534 35 534 35 396 -3 c 1,10,11
 328 -42 328 -42 328 -85 c 0,12,13
 328 -108 328 -108 344 -122.5 c 128,-1,14
 360 -137 360 -137 387 -137 c 0,15,16
 408 -137 408 -137 432 -126 c 1,17,-1
 432 -191 l 1,18,19
 408 -202 408 -202 370 -202 c 128,-1,20
 332 -202 332 -202 306 -191 c 128,-1,21
 280 -180 280 -180 269.5 -163 c 128,-1,22
 259 -146 259 -146 255 -133 c 128,-1,23
 251 -120 251 -120 251 -109 c 0,24,25
 251 -56 251 -56 311 -13 c 1,26,27
 197 -9 197 -9 117.5 76.5 c 128,-1,28
 38 162 38 162 38 278 c 0,29,30
 38 401 38 401 121 485 c 128,-1,31
 204 569 204 569 322 569 c 0,32,33
 436 569 436 569 520 487 c 128,-1,34
 604 405 604 405 604 285 c 0,35,36
 604 253 604 253 601 232 c 1,0,-1
142 312 m 1,37,-1
 500 312 l 1,38,39
 496 375 496 375 444.5 424.5 c 128,-1,40
 393 474 393 474 321 474 c 128,-1,41
 249 474 249 474 197.5 424.5 c 128,-1,42
 146 375 146 375 142 312 c 1,37,-1
EndSplineSet
EndChar

StartChar: Ecaron
Encoding: 282 282 215
Width: 530
GlyphClass: 2
Flags: W
LayerCount: 2
Fore
SplineSet
474 0 m 1,0,-1
 75 0 l 1,1,-1
 75 740 l 1,2,-1
 474 740 l 1,3,-1
 474 641 l 1,4,-1
 183 641 l 1,5,-1
 183 423 l 1,6,-1
 474 423 l 1,7,-1
 474 324 l 1,8,-1
 183 324 l 1,9,-1
 183 99 l 1,10,-1
 474 99 l 1,11,-1
 474 0 l 1,0,-1
85 932 m 1,12,-1
 199 932 l 1,13,-1
 273 856 l 1,14,-1
 350 932 l 1,15,-1
 464 932 l 1,16,-1
 325 790 l 1,17,-1
 225 790 l 1,18,-1
 85 932 l 1,12,-1
EndSplineSet
Position2: "'cpsp' Capital Spacing lookup 0 subtable" dx=5 dy=0 dh=10 dv=0
EndChar

StartChar: ecaron
Encoding: 283 283 216
Width: 642
GlyphClass: 2
Flags: W
LayerCount: 2
Fore
SplineSet
601 232 m 1,0,-1
 142 232 l 1,1,2
 161 158 161 158 213.5 119.5 c 128,-1,3
 266 81 266 81 324 81 c 0,4,5
 378 81 378 81 420 108 c 128,-1,6
 462 135 462 135 482 174 c 1,7,-1
 586 174 l 1,8,9
 561 107 561 107 512 62.5 c 128,-1,10
 463 18 463 18 415.5 2 c 128,-1,11
 368 -14 368 -14 320 -14 c 0,12,13
 203 -14 203 -14 120.5 72.5 c 128,-1,14
 38 159 38 159 38 278 c 0,15,16
 38 401 38 401 121 485 c 128,-1,17
 204 569 204 569 322 569 c 0,18,19
 436 569 436 569 520 487 c 128,-1,20
 604 405 604 405 604 285 c 0,21,22
 604 253 604 253 601 232 c 1,0,-1
142 312 m 1,23,-1
 500 312 l 1,24,25
 496 375 496 375 444.5 424.5 c 128,-1,26
 393 474 393 474 321 474 c 128,-1,27
 249 474 249 474 197.5 424.5 c 128,-1,28
 146 375 146 375 142 312 c 1,23,-1
134 770 m 1,29,-1
 248 770 l 1,30,-1
 322 694 l 1,31,-1
 399 770 l 1,32,-1
 513 770 l 1,33,-1
 374 628 l 1,34,-1
 274 628 l 1,35,-1
 134 770 l 1,29,-1
EndSplineSet
EndChar

StartChar: Gcircumflex
Encoding: 284 284 217
Width: 837
GlyphClass: 2
Flags: W
LayerCount: 2
Fore
SplineSet
748 554 m 1,0,-1
 622 554 l 1,1,2
 530 655 530 655 420 655 c 0,3,4
 305 655 305 655 225.5 570.5 c 128,-1,5
 146 486 146 486 146 368 c 0,6,7
 146 249 146 249 229.5 167 c 128,-1,8
 313 85 313 85 421 85 c 0,9,10
 434 85 434 85 449.5 86.5 c 128,-1,11
 465 88 465 88 499 98 c 128,-1,12
 533 108 533 108 562 125.5 c 128,-1,13
 591 143 591 143 623.5 180.5 c 128,-1,14
 656 218 656 218 676 269 c 1,15,-1
 331 269 l 1,16,-1
 331 368 l 1,17,-1
 799 368 l 1,18,19
 797 278 797 278 763 204 c 128,-1,20
 729 130 729 130 674 83.5 c 128,-1,21
 619 37 619 37 552.5 11.5 c 128,-1,22
 486 -14 486 -14 417 -14 c 0,23,24
 257 -14 257 -14 147.5 98.5 c 128,-1,25
 38 211 38 211 38 368 c 0,26,27
 38 528 38 528 147.5 641 c 128,-1,28
 257 754 257 754 416 754 c 0,29,30
 515 754 515 754 605.5 702 c 128,-1,31
 696 650 696 650 748 554 c 1,0,-1
612 790 m 1,32,-1
 493 790 l 1,33,-1
 424 859 l 1,34,-1
 352 790 l 1,35,-1
 233 790 l 1,36,-1
 372 925 l 1,37,-1
 472 925 l 1,38,-1
 612 790 l 1,32,-1
EndSplineSet
Position2: "'cpsp' Capital Spacing lookup 0 subtable" dx=5 dy=0 dh=10 dv=0
EndChar

StartChar: gcircumflex
Encoding: 285 285 218
Width: 697
GlyphClass: 2
Flags: W
LayerCount: 2
Fore
SplineSet
631 554 m 1,0,-1
 631 75 l 2,1,2
 631 -59 631 -59 547 -138.5 c 128,-1,3
 463 -218 463 -218 333 -218 c 0,4,5
 204 -218 204 -218 129 -140 c 0,6,7
 79 -88 79 -88 58 -14 c 1,8,-1
 174 -14 l 1,9,10
 185 -52 185 -52 225.5 -87.5 c 128,-1,11
 266 -123 266 -123 332 -123 c 0,12,13
 420 -123 420 -123 473.5 -75.5 c 128,-1,14
 527 -28 527 -28 527 73 c 1,15,-1
 525 73 l 1,16,17
 516 61 516 61 503 48 c 128,-1,18
 490 35 490 35 467 20 c 128,-1,19
 444 5 444 5 409.5 -4.5 c 128,-1,20
 375 -14 375 -14 334 -14 c 0,21,22
 247 -14 247 -14 177.5 31.5 c 128,-1,23
 108 77 108 77 73 143.5 c 128,-1,24
 38 210 38 210 38 279 c 0,25,26
 38 327 38 327 57 376.5 c 128,-1,27
 76 426 76 426 111.5 470 c 128,-1,28
 147 514 147 514 206 541.5 c 128,-1,29
 265 569 265 569 336 569 c 0,30,31
 395 569 395 569 446.5 546.5 c 128,-1,32
 498 524 498 524 527 490 c 1,33,-1
 527 554 l 1,34,-1
 631 554 l 1,0,-1
527 276 m 0,35,36
 527 331 527 331 506.5 372 c 128,-1,37
 486 413 486 413 454 434 c 128,-1,38
 422 455 422 455 391.5 464.5 c 128,-1,39
 361 474 361 474 334 474 c 0,40,41
 253 474 253 474 197.5 415.5 c 128,-1,42
 142 357 142 357 142 277 c 0,43,44
 142 199 142 199 196.5 140 c 128,-1,45
 251 81 251 81 333 81 c 0,46,47
 381 81 381 81 420 101 c 128,-1,48
 459 121 459 121 481.5 152 c 128,-1,49
 504 183 504 183 515.5 215.5 c 128,-1,50
 527 248 527 248 527 276 c 0,35,36
534 628 m 1,51,-1
 415 628 l 1,52,-1
 346 697 l 1,53,-1
 274 628 l 1,54,-1
 155 628 l 1,55,-1
 294 763 l 1,56,-1
 394 763 l 1,57,-1
 534 628 l 1,51,-1
EndSplineSet
EndChar

StartChar: Gbreve
Encoding: 286 286 219
Width: 837
GlyphClass: 2
Flags: W
LayerCount: 2
Fore
SplineSet
748 554 m 1,0,-1
 622 554 l 1,1,2
 530 655 530 655 420 655 c 0,3,4
 305 655 305 655 225.5 570.5 c 128,-1,5
 146 486 146 486 146 368 c 0,6,7
 146 249 146 249 229.5 167 c 128,-1,8
 313 85 313 85 421 85 c 0,9,10
 434 85 434 85 449.5 86.5 c 128,-1,11
 465 88 465 88 499 98 c 128,-1,12
 533 108 533 108 562 125.5 c 128,-1,13
 591 143 591 143 623.5 180.5 c 128,-1,14
 656 218 656 218 676 269 c 1,15,-1
 331 269 l 1,16,-1
 331 368 l 1,17,-1
 799 368 l 1,18,19
 797 278 797 278 763 204 c 128,-1,20
 729 130 729 130 674 83.5 c 128,-1,21
 619 37 619 37 552.5 11.5 c 128,-1,22
 486 -14 486 -14 417 -14 c 0,23,24
 257 -14 257 -14 147.5 98.5 c 128,-1,25
 38 211 38 211 38 368 c 0,26,27
 38 528 38 528 147.5 641 c 128,-1,28
 257 754 257 754 416 754 c 0,29,30
 515 754 515 754 605.5 702 c 128,-1,31
 696 650 696 650 748 554 c 1,0,-1
505 934 m 1,32,-1
 597 934 l 1,33,34
 588 876 588 876 552 840 c 0,35,36
 504 790 504 790 418 790 c 128,-1,37
 332 790 332 790 284 840 c 0,38,39
 248 876 248 876 239 934 c 1,40,-1
 331 934 l 1,41,42
 337 904 337 904 355 887 c 0,43,44
 378 866 378 866 418 866 c 128,-1,45
 458 866 458 866 481 887 c 0,46,47
 499 904 499 904 505 934 c 1,32,-1
EndSplineSet
Position2: "'cpsp' Capital Spacing lookup 0 subtable" dx=5 dy=0 dh=10 dv=0
EndChar

StartChar: gbreve
Encoding: 287 287 220
Width: 697
GlyphClass: 2
Flags: W
LayerCount: 2
Fore
SplineSet
631 554 m 1,0,-1
 631 75 l 2,1,2
 631 -59 631 -59 547 -138.5 c 128,-1,3
 463 -218 463 -218 333 -218 c 0,4,5
 204 -218 204 -218 129 -140 c 0,6,7
 79 -88 79 -88 58 -14 c 1,8,-1
 174 -14 l 1,9,10
 185 -52 185 -52 225.5 -87.5 c 128,-1,11
 266 -123 266 -123 332 -123 c 0,12,13
 420 -123 420 -123 473.5 -75.5 c 128,-1,14
 527 -28 527 -28 527 73 c 1,15,-1
 525 73 l 1,16,17
 516 61 516 61 503 48 c 128,-1,18
 490 35 490 35 467 20 c 128,-1,19
 444 5 444 5 409.5 -4.5 c 128,-1,20
 375 -14 375 -14 334 -14 c 0,21,22
 247 -14 247 -14 177.5 31.5 c 128,-1,23
 108 77 108 77 73 143.5 c 128,-1,24
 38 210 38 210 38 279 c 0,25,26
 38 327 38 327 57 376.5 c 128,-1,27
 76 426 76 426 111.5 470 c 128,-1,28
 147 514 147 514 206 541.5 c 128,-1,29
 265 569 265 569 336 569 c 0,30,31
 395 569 395 569 446.5 546.5 c 128,-1,32
 498 524 498 524 527 490 c 1,33,-1
 527 554 l 1,34,-1
 631 554 l 1,0,-1
527 276 m 0,35,36
 527 331 527 331 506.5 372 c 128,-1,37
 486 413 486 413 454 434 c 128,-1,38
 422 455 422 455 391.5 464.5 c 128,-1,39
 361 474 361 474 334 474 c 0,40,41
 253 474 253 474 197.5 415.5 c 128,-1,42
 142 357 142 357 142 277 c 0,43,44
 142 199 142 199 196.5 140 c 128,-1,45
 251 81 251 81 333 81 c 0,46,47
 381 81 381 81 420 101 c 128,-1,48
 459 121 459 121 481.5 152 c 128,-1,49
 504 183 504 183 515.5 215.5 c 128,-1,50
 527 248 527 248 527 276 c 0,35,36
412 747 m 1,51,-1
 500 747 l 1,52,53
 499 740 499 740 495.5 728 c 128,-1,54
 492 716 492 716 481 694.5 c 128,-1,55
 470 673 470 673 455 657 c 0,56,57
 411 612 411 612 336 612 c 0,58,59
 260 612 260 612 217 657 c 0,60,61
 183 693 183 693 172 747 c 1,62,-1
 260 747 l 1,63,64
 264 721 264 721 282 703 c 0,65,66
 301 684 301 684 336 684 c 128,-1,67
 371 684 371 684 390 703 c 0,68,69
 408 721 408 721 412 747 c 1,51,-1
EndSplineSet
EndChar

StartChar: Gdotaccent
Encoding: 288 288 221
Width: 837
GlyphClass: 2
Flags: W
LayerCount: 2
Fore
SplineSet
748 554 m 1,0,-1
 622 554 l 1,1,2
 530 655 530 655 420 655 c 0,3,4
 305 655 305 655 225.5 570.5 c 128,-1,5
 146 486 146 486 146 368 c 0,6,7
 146 249 146 249 229.5 167 c 128,-1,8
 313 85 313 85 421 85 c 0,9,10
 434 85 434 85 449.5 86.5 c 128,-1,11
 465 88 465 88 499 98 c 128,-1,12
 533 108 533 108 562 125.5 c 128,-1,13
 591 143 591 143 623.5 180.5 c 128,-1,14
 656 218 656 218 676 269 c 1,15,-1
 331 269 l 1,16,-1
 331 368 l 1,17,-1
 799 368 l 1,18,19
 797 278 797 278 763 204 c 128,-1,20
 729 130 729 130 674 83.5 c 128,-1,21
 619 37 619 37 552.5 11.5 c 128,-1,22
 486 -14 486 -14 417 -14 c 0,23,24
 257 -14 257 -14 147.5 98.5 c 128,-1,25
 38 211 38 211 38 368 c 0,26,27
 38 528 38 528 147.5 641 c 128,-1,28
 257 754 257 754 416 754 c 0,29,30
 515 754 515 754 605.5 702 c 128,-1,31
 696 650 696 650 748 554 c 1,0,-1
469 924 m 1,32,-1
 469 802 l 1,33,-1
 365 802 l 1,34,-1
 365 924 l 1,35,-1
 469 924 l 1,32,-1
EndSplineSet
EndChar

StartChar: gdotaccent
Encoding: 289 289 222
Width: 697
GlyphClass: 2
Flags: W
LayerCount: 2
Fore
SplineSet
631 554 m 1,0,-1
 631 75 l 2,1,2
 631 -59 631 -59 547 -138.5 c 128,-1,3
 463 -218 463 -218 333 -218 c 0,4,5
 204 -218 204 -218 129 -140 c 0,6,7
 79 -88 79 -88 58 -14 c 1,8,-1
 174 -14 l 1,9,10
 185 -52 185 -52 225.5 -87.5 c 128,-1,11
 266 -123 266 -123 332 -123 c 0,12,13
 420 -123 420 -123 473.5 -75.5 c 128,-1,14
 527 -28 527 -28 527 73 c 1,15,-1
 525 73 l 1,16,17
 516 61 516 61 503 48 c 128,-1,18
 490 35 490 35 467 20 c 128,-1,19
 444 5 444 5 409.5 -4.5 c 128,-1,20
 375 -14 375 -14 334 -14 c 0,21,22
 247 -14 247 -14 177.5 31.5 c 128,-1,23
 108 77 108 77 73 143.5 c 128,-1,24
 38 210 38 210 38 279 c 0,25,26
 38 327 38 327 57 376.5 c 128,-1,27
 76 426 76 426 111.5 470 c 128,-1,28
 147 514 147 514 206 541.5 c 128,-1,29
 265 569 265 569 336 569 c 0,30,31
 395 569 395 569 446.5 546.5 c 128,-1,32
 498 524 498 524 527 490 c 1,33,-1
 527 554 l 1,34,-1
 631 554 l 1,0,-1
527 276 m 0,35,36
 527 331 527 331 506.5 372 c 128,-1,37
 486 413 486 413 454 434 c 128,-1,38
 422 455 422 455 391.5 464.5 c 128,-1,39
 361 474 361 474 334 474 c 0,40,41
 253 474 253 474 197.5 415.5 c 128,-1,42
 142 357 142 357 142 277 c 0,43,44
 142 199 142 199 196.5 140 c 128,-1,45
 251 81 251 81 333 81 c 0,46,47
 381 81 381 81 420 101 c 128,-1,48
 459 121 459 121 481.5 152 c 128,-1,49
 504 183 504 183 515.5 215.5 c 128,-1,50
 527 248 527 248 527 276 c 0,35,36
396 752 m 1,51,-1
 396 630 l 1,52,-1
 292 630 l 1,53,-1
 292 752 l 1,54,-1
 396 752 l 1,51,-1
EndSplineSet
EndChar

StartChar: Gcommaaccent
Encoding: 290 290 223
Width: 837
GlyphClass: 2
Flags: W
LayerCount: 2
Fore
SplineSet
748 554 m 1,0,-1
 622 554 l 1,1,2
 530 655 530 655 420 655 c 0,3,4
 305 655 305 655 225.5 570.5 c 128,-1,5
 146 486 146 486 146 368 c 0,6,7
 146 249 146 249 229.5 167 c 128,-1,8
 313 85 313 85 421 85 c 0,9,10
 434 85 434 85 449.5 86.5 c 128,-1,11
 465 88 465 88 499 98 c 128,-1,12
 533 108 533 108 562 125.5 c 128,-1,13
 591 143 591 143 623.5 180.5 c 128,-1,14
 656 218 656 218 676 269 c 1,15,-1
 331 269 l 1,16,-1
 331 368 l 1,17,-1
 799 368 l 1,18,19
 797 278 797 278 763 204 c 128,-1,20
 729 130 729 130 674 83.5 c 128,-1,21
 619 37 619 37 552.5 11.5 c 128,-1,22
 486 -14 486 -14 417 -14 c 0,23,24
 257 -14 257 -14 147.5 98.5 c 128,-1,25
 38 211 38 211 38 368 c 0,26,27
 38 528 38 528 147.5 641 c 128,-1,28
 257 754 257 754 416 754 c 0,29,30
 515 754 515 754 605.5 702 c 128,-1,31
 696 650 696 650 748 554 c 1,0,-1
484 -59 m 1,32,-1
 415 -192 l 1,33,-1
 317 -192 l 1,34,-1
 381 -59 l 1,35,-1
 484 -59 l 1,32,-1
EndSplineSet
Position2: "'cpsp' Capital Spacing lookup 0 subtable" dx=5 dy=0 dh=10 dv=0
EndChar

StartChar: gcommaaccent
Encoding: 291 291 224
Width: 697
GlyphClass: 2
Flags: W
LayerCount: 2
Fore
SplineSet
631 554 m 1,0,-1
 631 75 l 2,1,2
 631 -59 631 -59 547 -138.5 c 128,-1,3
 463 -218 463 -218 333 -218 c 0,4,5
 204 -218 204 -218 129 -140 c 0,6,7
 79 -88 79 -88 58 -14 c 1,8,-1
 174 -14 l 1,9,10
 185 -52 185 -52 225.5 -87.5 c 128,-1,11
 266 -123 266 -123 332 -123 c 0,12,13
 420 -123 420 -123 473.5 -75.5 c 128,-1,14
 527 -28 527 -28 527 73 c 1,15,-1
 525 73 l 1,16,17
 516 61 516 61 503 48 c 128,-1,18
 490 35 490 35 467 20 c 128,-1,19
 444 5 444 5 409.5 -4.5 c 128,-1,20
 375 -14 375 -14 334 -14 c 0,21,22
 247 -14 247 -14 177.5 31.5 c 128,-1,23
 108 77 108 77 73 143.5 c 128,-1,24
 38 210 38 210 38 279 c 0,25,26
 38 327 38 327 57 376.5 c 128,-1,27
 76 426 76 426 111.5 470 c 128,-1,28
 147 514 147 514 206 541.5 c 128,-1,29
 265 569 265 569 336 569 c 0,30,31
 395 569 395 569 446.5 546.5 c 128,-1,32
 498 524 498 524 527 490 c 1,33,-1
 527 554 l 1,34,-1
 631 554 l 1,0,-1
527 276 m 0,35,36
 527 331 527 331 506.5 372 c 128,-1,37
 486 413 486 413 454 434 c 128,-1,38
 422 455 422 455 391.5 464.5 c 128,-1,39
 361 474 361 474 334 474 c 0,40,41
 253 474 253 474 197.5 415.5 c 128,-1,42
 142 357 142 357 142 277 c 0,43,44
 142 199 142 199 196.5 140 c 128,-1,45
 251 81 251 81 333 81 c 0,46,47
 381 81 381 81 420 101 c 128,-1,48
 459 121 459 121 481.5 152 c 128,-1,49
 504 183 504 183 515.5 215.5 c 128,-1,50
 527 248 527 248 527 276 c 0,35,36
453 763 m 1,51,-1
 384 630 l 1,52,-1
 286 630 l 1,53,-1
 350 763 l 1,54,-1
 453 763 l 1,51,-1
EndSplineSet
EndChar

StartChar: Hcircumflex
Encoding: 292 292 225
Width: 671
GlyphClass: 2
Flags: W
LayerCount: 2
Fore
SplineSet
596 0 m 1,0,-1
 488 0 l 1,1,-1
 488 322 l 1,2,-1
 183 322 l 1,3,-1
 183 0 l 1,4,-1
 75 0 l 1,5,-1
 75 740 l 1,6,-1
 183 740 l 1,7,-1
 183 421 l 1,8,-1
 488 421 l 1,9,-1
 488 740 l 1,10,-1
 596 740 l 1,11,-1
 596 0 l 1,0,-1
524 790 m 1,12,-1
 405 790 l 1,13,-1
 336 859 l 1,14,-1
 264 790 l 1,15,-1
 145 790 l 1,16,-1
 284 925 l 1,17,-1
 384 925 l 1,18,-1
 524 790 l 1,12,-1
EndSplineSet
Position2: "'cpsp' Capital Spacing lookup 0 subtable" dx=5 dy=0 dh=10 dv=0
EndChar

StartChar: hcircumflex
Encoding: 293 293 226
Width: 624
GlyphClass: 2
Flags: W
LayerCount: 2
Fore
SplineSet
558 0 m 1,0,-1
 454 0 l 1,1,-1
 454 301 l 2,2,3
 454 474 454 474 316 474 c 0,4,5
 249 474 249 474 209.5 429.5 c 128,-1,6
 170 385 170 385 170 302 c 2,7,-1
 170 0 l 1,8,-1
 66 0 l 1,9,-1
 66 740 l 1,10,-1
 170 740 l 1,11,-1
 170 495 l 1,12,-1
 172 495 l 1,13,14
 222 569 222 569 327 569 c 0,15,16
 460 569 460 569 523 470 c 0,17,18
 557 417 557 417 558 328 c 2,19,-1
 558 0 l 1,0,-1
307 790 m 1,20,-1
 188 790 l 1,21,-1
 119 859 l 1,22,-1
 47 790 l 1,23,-1
 -72 790 l 1,24,-1
 67 925 l 1,25,-1
 167 925 l 1,26,-1
 307 790 l 1,20,-1
EndSplineSet
EndChar

StartChar: Hbar
Encoding: 294 294 227
Width: 725
GlyphClass: 2
Flags: W
LayerCount: 2
Fore
SplineSet
623 0 m 1,0,-1
 515 0 l 1,1,-1
 515 322 l 1,2,-1
 210 322 l 1,3,-1
 210 0 l 1,4,-1
 102 0 l 1,5,-1
 102 524 l 1,6,-1
 30 524 l 1,7,-1
 30 620 l 1,8,-1
 102 620 l 1,9,-1
 102 740 l 1,10,-1
 210 740 l 1,11,-1
 210 620 l 1,12,-1
 515 620 l 1,13,-1
 515 740 l 1,14,-1
 623 740 l 1,15,-1
 623 620 l 1,16,-1
 695 620 l 1,17,-1
 695 524 l 1,18,-1
 623 524 l 1,19,-1
 623 0 l 1,0,-1
210 421 m 1,20,-1
 515 421 l 1,21,-1
 515 524 l 1,22,-1
 210 524 l 1,23,-1
 210 421 l 1,20,-1
EndSplineSet
EndChar

StartChar: hbar
Encoding: 295 295 228
Width: 649
GlyphClass: 2
Flags: W
LayerCount: 2
Fore
SplineSet
585 251 m 2,0,-1
 585 0 l 1,1,-1
 481 0 l 1,2,-1
 481 224 l 2,3,4
 481 397 481 397 343 397 c 0,5,6
 277 397 277 397 237 354 c 128,-1,7
 197 311 197 311 197 233 c 2,8,-1
 197 0 l 1,9,-1
 93 0 l 1,10,-1
 93 601 l 1,11,-1
 -15 601 l 1,12,-1
 -15 686 l 1,13,-1
 93 686 l 1,14,-1
 93 740 l 1,15,-1
 197 740 l 1,16,-1
 197 686 l 1,17,-1
 463 686 l 1,18,-1
 463 601 l 1,19,-1
 197 601 l 1,20,-1
 197 418 l 1,21,-1
 199 418 l 1,22,23
 249 492 249 492 354 492 c 0,24,25
 487 492 487 492 550 393 c 0,26,27
 585 338 585 338 585 251 c 2,0,-1
EndSplineSet
EndChar

StartChar: Imacron
Encoding: 298 298 229
Width: 258
GlyphClass: 2
Flags: W
LayerCount: 2
Fore
SplineSet
183 0 m 1,0,-1
 75 0 l 1,1,-1
 75 740 l 1,2,-1
 183 740 l 1,3,-1
 183 0 l 1,0,-1
307 820 m 1,4,-1
 -48 820 l 1,5,-1
 -48 895 l 1,6,-1
 307 895 l 1,7,-1
 307 820 l 1,4,-1
EndSplineSet
Position2: "'cpsp' Capital Spacing lookup 0 subtable" dx=5 dy=0 dh=10 dv=0
EndChar

StartChar: imacron
Encoding: 299 299 230
Width: 236
GlyphClass: 2
Flags: W
LayerCount: 2
Fore
SplineSet
170 554 m 1,0,-1
 170 0 l 1,1,-1
 66 0 l 1,2,-1
 66 554 l 1,3,-1
 170 554 l 1,0,-1
302 628 m 1,4,-1
 -53 628 l 1,5,-1
 -53 703 l 1,6,-1
 302 703 l 1,7,-1
 302 628 l 1,4,-1
EndSplineSet
EndChar

StartChar: Iogonek
Encoding: 302 302 231
Width: 257
GlyphClass: 2
Flags: W
LayerCount: 2
Fore
SplineSet
75 740 m 1,0,-1
 183 740 l 1,1,-1
 183 0 l 1,2,3
 153 -16 153 -16 130 -40 c 128,-1,4
 107 -64 107 -64 107 -91 c 0,5,6
 107 -146 107 -146 169 -146 c 0,7,8
 191 -146 191 -146 217 -132 c 1,9,-1
 217 -200 l 1,10,11
 193 -211 193 -211 153 -211 c 0,12,13
 114 -211 114 -211 87 -199.5 c 128,-1,14
 60 -188 60 -188 49 -170.5 c 128,-1,15
 38 -153 38 -153 34 -140 c 128,-1,16
 30 -127 30 -127 30 -115 c 0,17,18
 30 -48 30 -48 115 0 c 1,19,-1
 75 0 l 1,20,-1
 75 740 l 1,0,-1
EndSplineSet
Position2: "'cpsp' Capital Spacing lookup 0 subtable" dx=5 dy=0 dh=10 dv=0
EndChar

StartChar: iogonek
Encoding: 303 303 232
Width: 238
GlyphClass: 2
Flags: W
LayerCount: 2
Fore
SplineSet
103 0 m 1,0,-1
 67 0 l 1,1,-1
 67 554 l 1,2,-1
 171 554 l 1,3,-1
 171 0 l 1,4,5
 98 -42 98 -42 98 -85 c 0,6,7
 98 -108 98 -108 114 -122.5 c 128,-1,8
 130 -137 130 -137 157 -137 c 0,9,10
 178 -137 178 -137 202 -126 c 1,11,-1
 202 -191 l 1,12,13
 178 -202 178 -202 140 -202 c 128,-1,14
 102 -202 102 -202 76 -191 c 128,-1,15
 50 -180 50 -180 39.5 -163 c 128,-1,16
 29 -146 29 -146 25 -133 c 128,-1,17
 21 -120 21 -120 21 -109 c 0,18,19
 21 -47 21 -47 103 0 c 1,0,-1
171 740 m 1,20,-1
 171 618 l 1,21,-1
 67 618 l 1,22,-1
 67 740 l 1,23,-1
 171 740 l 1,20,-1
EndSplineSet
EndChar

StartChar: Idotaccent
Encoding: 304 304 233
Width: 258
GlyphClass: 2
Flags: W
LayerCount: 2
Fore
SplineSet
183 0 m 1,0,-1
 75 0 l 1,1,-1
 75 740 l 1,2,-1
 183 740 l 1,3,-1
 183 0 l 1,0,-1
179 924 m 1,4,-1
 179 802 l 1,5,-1
 75 802 l 1,6,-1
 75 924 l 1,7,-1
 179 924 l 1,4,-1
EndSplineSet
Position2: "'cpsp' Capital Spacing lookup 0 subtable" dx=5 dy=0 dh=10 dv=0
EndChar

StartChar: dotlessi
Encoding: 305 305 234
Width: 236
GlyphClass: 2
Flags: W
LayerCount: 2
Fore
SplineSet
170 554 m 1,0,-1
 170 0 l 1,1,-1
 66 0 l 1,2,-1
 66 554 l 1,3,-1
 170 554 l 1,0,-1
EndSplineSet
EndChar

StartChar: Jcircumflex
Encoding: 308 308 235
Width: 483
GlyphClass: 2
Flags: W
LayerCount: 2
Fore
SplineSet
408 740 m 1,0,-1
 408 209 l 2,1,2
 408 148 408 148 390 104 c 0,3,4
 366 46 366 46 315.5 16 c 128,-1,5
 265 -14 265 -14 200 -14 c 0,6,7
 114 -14 114 -14 56 42 c 0,8,9
 6 91 6 91 0 170 c 1,10,-1
 111 170 l 1,11,12
 119 85 119 85 203 85 c 0,13,14
 233 85 233 85 257 101 c 128,-1,15
 281 117 281 117 292 148 c 0,16,17
 300 172 300 172 300 203 c 2,18,-1
 300 740 l 1,19,-1
 408 740 l 1,0,-1
544 790 m 1,20,-1
 425 790 l 1,21,-1
 356 859 l 1,22,-1
 284 790 l 1,23,-1
 165 790 l 1,24,-1
 304 925 l 1,25,-1
 404 925 l 1,26,-1
 544 790 l 1,20,-1
EndSplineSet
Position2: "'cpsp' Capital Spacing lookup 0 subtable" dx=5 dy=0 dh=10 dv=0
EndChar

StartChar: jcircumflex
Encoding: 309 309 236
Width: 240
GlyphClass: 2
Flags: W
LayerCount: 2
Fore
SplineSet
173 554 m 1,0,-1
 173 49 l 2,1,2
 173 -24 173 -24 161.5 -66.5 c 128,-1,3
 150 -109 150 -109 114 -141 c 0,4,5
 70 -179 70 -179 0 -185 c 1,6,-1
 0 -76 l 1,7,8
 20 -75 20 -75 33.5 -67 c 128,-1,9
 47 -59 47 -59 54 -50.5 c 128,-1,10
 61 -42 61 -42 64.5 -23 c 128,-1,11
 68 -4 68 -4 68.5 9 c 128,-1,12
 69 22 69 22 69 49 c 2,13,-1
 69 554 l 1,14,-1
 173 554 l 1,0,-1
312 628 m 1,15,-1
 193 628 l 1,16,-1
 124 697 l 1,17,-1
 52 628 l 1,18,-1
 -67 628 l 1,19,-1
 72 763 l 1,20,-1
 172 763 l 1,21,-1
 312 628 l 1,15,-1
EndSplineSet
EndChar

StartChar: Kcommaaccent
Encoding: 310 310 237
Width: 611
GlyphClass: 2
Flags: W
LayerCount: 2
Fore
SplineSet
599 0 m 1,0,-1
 466 0 l 1,1,-1
 185 373 l 1,2,-1
 183 373 l 1,3,-1
 183 0 l 1,4,-1
 75 0 l 1,5,-1
 75 740 l 1,6,-1
 183 740 l 1,7,-1
 183 373 l 1,8,-1
 185 373 l 1,9,-1
 466 740 l 1,10,-1
 599 740 l 1,11,-1
 310 373 l 1,12,-1
 599 0 l 1,0,-1
375 -59 m 1,13,-1
 306 -192 l 1,14,-1
 208 -192 l 1,15,-1
 272 -59 l 1,16,-1
 375 -59 l 1,13,-1
EndSplineSet
Position2: "'cpsp' Capital Spacing lookup 0 subtable" dx=5 dy=0 dh=10 dv=0
EndChar

StartChar: kcommaaccent
Encoding: 311 311 238
Width: 529
GlyphClass: 2
Flags: W
LayerCount: 2
Fore
SplineSet
369 554 m 1,0,-1
 492 554 l 1,1,-1
 291 293 l 1,2,-1
 524 0 l 1,3,-1
 394 0 l 1,4,-1
 172 287 l 1,5,-1
 170 287 l 1,6,-1
 170 0 l 1,7,-1
 66 0 l 1,8,-1
 66 740 l 1,9,-1
 170 740 l 1,10,-1
 170 287 l 1,11,-1
 172 287 l 1,12,-1
 369 554 l 1,0,-1
322 -59 m 1,13,-1
 253 -192 l 1,14,-1
 155 -192 l 1,15,-1
 219 -59 l 1,16,-1
 322 -59 l 1,13,-1
EndSplineSet
EndChar

StartChar: Lacute
Encoding: 313 313 239
Width: 450
GlyphClass: 2
Flags: W
LayerCount: 2
Fore
SplineSet
440 0 m 1,0,-1
 75 0 l 1,1,-1
 75 740 l 1,2,-1
 183 740 l 1,3,-1
 183 99 l 1,4,-1
 440 99 l 1,5,-1
 440 0 l 1,0,-1
122 777 m 1,6,-1
 80 852 l 1,7,-1
 303 980 l 1,8,-1
 347 899 l 1,9,-1
 122 777 l 1,6,-1
EndSplineSet
Position2: "'cpsp' Capital Spacing lookup 0 subtable" dx=5 dy=0 dh=10 dv=0
EndChar

StartChar: lacute
Encoding: 314 314 240
Width: 236
GlyphClass: 2
Flags: W
LayerCount: 2
Fore
SplineSet
170 740 m 1,0,-1
 170 0 l 1,1,-1
 66 0 l 1,2,-1
 66 740 l 1,3,-1
 170 740 l 1,0,-1
69 777 m 1,4,-1
 27 852 l 1,5,-1
 250 980 l 1,6,-1
 294 899 l 1,7,-1
 69 777 l 1,4,-1
EndSplineSet
EndChar

StartChar: Lcommaaccent
Encoding: 315 315 241
Width: 450
GlyphClass: 2
Flags: W
LayerCount: 2
Fore
SplineSet
440 0 m 1,0,-1
 75 0 l 1,1,-1
 75 740 l 1,2,-1
 183 740 l 1,3,-1
 183 99 l 1,4,-1
 440 99 l 1,5,-1
 440 0 l 1,0,-1
328 -59 m 1,6,-1
 259 -192 l 1,7,-1
 161 -192 l 1,8,-1
 225 -59 l 1,9,-1
 328 -59 l 1,6,-1
EndSplineSet
Position2: "'cpsp' Capital Spacing lookup 0 subtable" dx=5 dy=0 dh=10 dv=0
EndChar

StartChar: lcommaaccent
Encoding: 316 316 242
Width: 236
GlyphClass: 2
Flags: W
LayerCount: 2
Fore
SplineSet
170 740 m 1,0,-1
 170 0 l 1,1,-1
 66 0 l 1,2,-1
 66 740 l 1,3,-1
 170 740 l 1,0,-1
175 -59 m 1,4,-1
 106 -192 l 1,5,-1
 8 -192 l 1,6,-1
 72 -59 l 1,7,-1
 175 -59 l 1,4,-1
EndSplineSet
EndChar

StartChar: Lcaron
Encoding: 317 317 243
Width: 450
GlyphClass: 2
Flags: W
LayerCount: 2
Fore
SplineSet
440 0 m 1,0,-1
 75 0 l 1,1,-1
 75 740 l 1,2,-1
 183 740 l 1,3,-1
 183 99 l 1,4,-1
 440 99 l 1,5,-1
 440 0 l 1,0,-1
411 740 m 1,6,-1
 332 586 l 1,7,-1
 234 586 l 1,8,-1
 308 740 l 1,9,-1
 411 740 l 1,6,-1
EndSplineSet
Position2: "'cpsp' Capital Spacing lookup 0 subtable" dx=5 dy=0 dh=10 dv=0
EndChar

StartChar: lcaron
Encoding: 318 318 244
Width: 333
GlyphClass: 2
Flags: W
LayerCount: 2
Fore
SplineSet
170 740 m 1,0,-1
 170 0 l 1,1,-1
 66 0 l 1,2,-1
 66 740 l 1,3,-1
 170 740 l 1,0,-1
367 740 m 1,4,-1
 288 586 l 1,5,-1
 190 586 l 1,6,-1
 264 740 l 1,7,-1
 367 740 l 1,4,-1
EndSplineSet
EndChar

StartChar: Ldot
Encoding: 319 319 245
Width: 444
GlyphClass: 2
Flags: W
LayerCount: 2
Fore
SplineSet
404 431 m 1,0,-1
 404 309 l 1,1,-1
 300 309 l 1,2,-1
 300 431 l 1,3,-1
 404 431 l 1,0,-1
444 0 m 1,4,-1
 79 0 l 1,5,-1
 79 740 l 1,6,-1
 187 740 l 1,7,-1
 187 99 l 1,8,-1
 444 99 l 1,9,-1
 444 0 l 1,4,-1
EndSplineSet
EndChar

StartChar: ldot
Encoding: 320 320 246
Width: 353
GlyphClass: 2
Flags: W
LayerCount: 2
Fore
SplineSet
343 431 m 1,0,-1
 343 309 l 1,1,-1
 239 309 l 1,2,-1
 239 431 l 1,3,-1
 343 431 l 1,0,-1
171 740 m 1,4,-1
 171 0 l 1,5,-1
 67 0 l 1,6,-1
 67 740 l 1,7,-1
 171 740 l 1,4,-1
EndSplineSet
EndChar

StartChar: Lslash
Encoding: 321 321 247
Width: 467
GlyphClass: 2
Flags: W
LayerCount: 2
Fore
SplineSet
87 301 m 1,0,-1
 12 250 l 1,1,-1
 12 361 l 1,2,-1
 87 412 l 1,3,-1
 87 740 l 1,4,-1
 195 740 l 1,5,-1
 195 486 l 1,6,-1
 334 581 l 1,7,-1
 334 470 l 1,8,-1
 195 375 l 1,9,-1
 195 99 l 1,10,-1
 452 99 l 1,11,-1
 452 0 l 1,12,-1
 87 0 l 1,13,-1
 87 301 l 1,0,-1
EndSplineSet
Position2: "'cpsp' Capital Spacing lookup 0 subtable" dx=5 dy=0 dh=10 dv=0
EndChar

StartChar: lslash
Encoding: 322 322 248
Width: 284
GlyphClass: 2
Flags: W
LayerCount: 2
Fore
SplineSet
273 437 m 1,0,-1
 194 384 l 1,1,-1
 194 0 l 1,2,-1
 90 0 l 1,3,-1
 90 314 l 1,4,-1
 21 268 l 1,5,-1
 21 367 l 1,6,-1
 90 413 l 1,7,-1
 90 740 l 1,8,-1
 194 740 l 1,9,-1
 194 483 l 1,10,-1
 273 536 l 1,11,-1
 273 437 l 1,0,-1
EndSplineSet
EndChar

StartChar: Nacute
Encoding: 323 323 249
Width: 738
GlyphClass: 2
Flags: W
LayerCount: 2
Fore
SplineSet
663 0 m 1,0,-1
 551 0 l 1,1,-1
 185 572 l 1,2,-1
 183 572 l 1,3,-1
 183 0 l 1,4,-1
 75 0 l 1,5,-1
 75 740 l 1,6,-1
 193 740 l 1,7,-1
 553 177 l 1,8,-1
 555 177 l 1,9,-1
 555 740 l 1,10,-1
 663 740 l 1,11,-1
 663 0 l 1,0,-1
278 777 m 1,12,-1
 236 852 l 1,13,-1
 459 980 l 1,14,-1
 503 899 l 1,15,-1
 278 777 l 1,12,-1
EndSplineSet
Position2: "'cpsp' Capital Spacing lookup 0 subtable" dx=5 dy=0 dh=10 dv=0
EndChar

StartChar: nacute
Encoding: 324 324 250
Width: 624
GlyphClass: 2
Flags: W
LayerCount: 2
Fore
SplineSet
558 0 m 1,0,-1
 454 0 l 1,1,-1
 454 301 l 2,2,3
 454 474 454 474 316 474 c 0,4,5
 249 474 249 474 209.5 429.5 c 128,-1,6
 170 385 170 385 170 302 c 2,7,-1
 170 0 l 1,8,-1
 66 0 l 1,9,-1
 66 554 l 1,10,-1
 163 554 l 1,11,-1
 163 495 l 1,12,-1
 165 495 l 1,13,14
 220 569 220 569 327 569 c 0,15,16
 460 569 460 569 523 470 c 0,17,18
 557 417 557 417 558 328 c 2,19,-1
 558 0 l 1,0,-1
229 611 m 1,20,-1
 187 686 l 1,21,-1
 410 814 l 1,22,-1
 454 733 l 1,23,-1
 229 611 l 1,20,-1
EndSplineSet
EndChar

StartChar: Ncommaaccent
Encoding: 325 325 251
Width: 738
GlyphClass: 2
Flags: W
LayerCount: 2
Fore
SplineSet
663 0 m 1,0,-1
 551 0 l 1,1,-1
 185 572 l 1,2,-1
 183 572 l 1,3,-1
 183 0 l 1,4,-1
 75 0 l 1,5,-1
 75 740 l 1,6,-1
 193 740 l 1,7,-1
 553 177 l 1,8,-1
 555 177 l 1,9,-1
 555 740 l 1,10,-1
 663 740 l 1,11,-1
 663 0 l 1,0,-1
426 -59 m 1,12,-1
 357 -192 l 1,13,-1
 259 -192 l 1,14,-1
 323 -59 l 1,15,-1
 426 -59 l 1,12,-1
EndSplineSet
Position2: "'cpsp' Capital Spacing lookup 0 subtable" dx=5 dy=0 dh=10 dv=0
EndChar

StartChar: ncommaaccent
Encoding: 326 326 252
Width: 624
GlyphClass: 2
Flags: W
LayerCount: 2
Fore
SplineSet
558 0 m 1,0,-1
 454 0 l 1,1,-1
 454 301 l 2,2,3
 454 474 454 474 316 474 c 0,4,5
 249 474 249 474 209.5 429.5 c 128,-1,6
 170 385 170 385 170 302 c 2,7,-1
 170 0 l 1,8,-1
 66 0 l 1,9,-1
 66 554 l 1,10,-1
 163 554 l 1,11,-1
 163 495 l 1,12,-1
 165 495 l 1,13,14
 220 569 220 569 327 569 c 0,15,16
 460 569 460 569 523 470 c 0,17,18
 557 417 557 417 558 328 c 2,19,-1
 558 0 l 1,0,-1
374 -59 m 1,20,-1
 305 -192 l 1,21,-1
 207 -192 l 1,22,-1
 271 -59 l 1,23,-1
 374 -59 l 1,20,-1
EndSplineSet
EndChar

StartChar: Ncaron
Encoding: 327 327 253
Width: 738
GlyphClass: 2
Flags: W
LayerCount: 2
Fore
SplineSet
663 0 m 1,0,-1
 551 0 l 1,1,-1
 185 572 l 1,2,-1
 183 572 l 1,3,-1
 183 0 l 1,4,-1
 75 0 l 1,5,-1
 75 740 l 1,6,-1
 193 740 l 1,7,-1
 553 177 l 1,8,-1
 555 177 l 1,9,-1
 555 740 l 1,10,-1
 663 740 l 1,11,-1
 663 0 l 1,0,-1
180 932 m 1,12,-1
 294 932 l 1,13,-1
 368 856 l 1,14,-1
 445 932 l 1,15,-1
 559 932 l 1,16,-1
 420 790 l 1,17,-1
 320 790 l 1,18,-1
 180 932 l 1,12,-1
EndSplineSet
Position2: "'cpsp' Capital Spacing lookup 0 subtable" dx=5 dy=0 dh=10 dv=0
EndChar

StartChar: ncaron
Encoding: 328 328 254
Width: 624
GlyphClass: 2
Flags: W
LayerCount: 2
Fore
SplineSet
558 0 m 1,0,-1
 454 0 l 1,1,-1
 454 301 l 2,2,3
 454 474 454 474 316 474 c 0,4,5
 249 474 249 474 209.5 429.5 c 128,-1,6
 170 385 170 385 170 302 c 2,7,-1
 170 0 l 1,8,-1
 66 0 l 1,9,-1
 66 554 l 1,10,-1
 163 554 l 1,11,-1
 163 495 l 1,12,-1
 165 495 l 1,13,14
 220 569 220 569 327 569 c 0,15,16
 460 569 460 569 523 470 c 0,17,18
 557 417 557 417 558 328 c 2,19,-1
 558 0 l 1,0,-1
134 770 m 1,20,-1
 248 770 l 1,21,-1
 322 694 l 1,22,-1
 399 770 l 1,23,-1
 513 770 l 1,24,-1
 374 628 l 1,25,-1
 274 628 l 1,26,-1
 134 770 l 1,20,-1
EndSplineSet
EndChar

StartChar: Omacron
Encoding: 332 332 255
Width: 846
GlyphClass: 2
Flags: W
LayerCount: 2
Fore
SplineSet
808 368 m 0,0,1
 808 214 808 214 696.5 100 c 128,-1,2
 585 -14 585 -14 423 -14 c 0,3,4
 260 -14 260 -14 149 100.5 c 128,-1,5
 38 215 38 215 38 370 c 128,-1,6
 38 525 38 525 148 639.5 c 128,-1,7
 258 754 258 754 423 754 c 0,8,9
 587 754 587 754 697.5 641 c 128,-1,10
 808 528 808 528 808 368 c 0,0,1
700 367 m 0,11,12
 700 418 700 418 682 467.5 c 128,-1,13
 664 517 664 517 631 559.5 c 128,-1,14
 598 602 598 602 543.5 628.5 c 128,-1,15
 489 655 489 655 423 655 c 0,16,17
 355 655 355 655 300 627.5 c 128,-1,18
 245 600 245 600 212.5 556 c 128,-1,19
 180 512 180 512 163 464 c 128,-1,20
 146 416 146 416 146 370 c 0,21,22
 146 323 146 323 163 274.5 c 128,-1,23
 180 226 180 226 212.5 182.5 c 128,-1,24
 245 139 245 139 300 112 c 128,-1,25
 355 85 355 85 423 85 c 128,-1,26
 491 85 491 85 546 112.5 c 128,-1,27
 601 140 601 140 633.5 182.5 c 128,-1,28
 666 225 666 225 683 273 c 128,-1,29
 700 321 700 321 700 367 c 0,11,12
600 820 m 1,30,-1
 245 820 l 1,31,-1
 245 895 l 1,32,-1
 600 895 l 1,33,-1
 600 820 l 1,30,-1
EndSplineSet
Position2: "'cpsp' Capital Spacing lookup 0 subtable" dx=5 dy=0 dh=10 dv=0
EndChar

StartChar: omacron
Encoding: 333 333 256
Width: 674
GlyphClass: 2
Flags: W
LayerCount: 2
Fore
SplineSet
636 279 m 0,0,1
 636 209 636 209 601.5 143 c 128,-1,2
 567 77 567 77 496.5 31.5 c 128,-1,3
 426 -14 426 -14 337 -14 c 0,4,5
 270 -14 270 -14 212 12.5 c 128,-1,6
 154 39 154 39 117 81.5 c 128,-1,7
 80 124 80 124 59 176 c 128,-1,8
 38 228 38 228 38 281 c 0,9,10
 38 397 38 397 124.5 483 c 128,-1,11
 211 569 211 569 337 569 c 0,12,13
 462 569 462 569 549 483.5 c 128,-1,14
 636 398 636 398 636 279 c 0,0,1
532 279 m 0,15,16
 532 356 532 356 477 415 c 128,-1,17
 422 474 422 474 337 474 c 128,-1,18
 252 474 252 474 197 415 c 128,-1,19
 142 356 142 356 142 278 c 128,-1,20
 142 200 142 200 197.5 140.5 c 128,-1,21
 253 81 253 81 337 81 c 0,22,23
 420 81 420 81 476 140 c 128,-1,24
 532 199 532 199 532 279 c 0,15,16
519 645 m 1,25,-1
 164 645 l 1,26,-1
 164 720 l 1,27,-1
 519 720 l 1,28,-1
 519 645 l 1,25,-1
EndSplineSet
EndChar

StartChar: Obreve
Encoding: 334 334 257
Width: 846
GlyphClass: 2
Flags: W
LayerCount: 2
Fore
SplineSet
808 368 m 0,0,1
 808 214 808 214 696.5 100 c 128,-1,2
 585 -14 585 -14 423 -14 c 0,3,4
 260 -14 260 -14 149 100.5 c 128,-1,5
 38 215 38 215 38 370 c 128,-1,6
 38 525 38 525 148 639.5 c 128,-1,7
 258 754 258 754 423 754 c 0,8,9
 587 754 587 754 697.5 641 c 128,-1,10
 808 528 808 528 808 368 c 0,0,1
700 367 m 0,11,12
 700 418 700 418 682 467.5 c 128,-1,13
 664 517 664 517 631 559.5 c 128,-1,14
 598 602 598 602 543.5 628.5 c 128,-1,15
 489 655 489 655 423 655 c 0,16,17
 355 655 355 655 300 627.5 c 128,-1,18
 245 600 245 600 212.5 556 c 128,-1,19
 180 512 180 512 163 464 c 128,-1,20
 146 416 146 416 146 370 c 0,21,22
 146 323 146 323 163 274.5 c 128,-1,23
 180 226 180 226 212.5 182.5 c 128,-1,24
 245 139 245 139 300 112 c 128,-1,25
 355 85 355 85 423 85 c 128,-1,26
 491 85 491 85 546 112.5 c 128,-1,27
 601 140 601 140 633.5 182.5 c 128,-1,28
 666 225 666 225 683 273 c 128,-1,29
 700 321 700 321 700 367 c 0,11,12
505 934 m 1,30,-1
 597 934 l 1,31,32
 588 876 588 876 552 840 c 0,33,34
 504 790 504 790 418 790 c 128,-1,35
 332 790 332 790 284 840 c 0,36,37
 248 876 248 876 239 934 c 1,38,-1
 331 934 l 1,39,40
 337 904 337 904 355 887 c 0,41,42
 378 866 378 866 418 866 c 128,-1,43
 458 866 458 866 481 887 c 0,44,45
 499 904 499 904 505 934 c 1,30,-1
EndSplineSet
Position2: "'cpsp' Capital Spacing lookup 0 subtable" dx=5 dy=0 dh=10 dv=0
EndChar

StartChar: obreve
Encoding: 335 335 258
Width: 674
GlyphClass: 2
Flags: W
LayerCount: 2
Fore
SplineSet
636 279 m 0,0,1
 636 209 636 209 601.5 143 c 128,-1,2
 567 77 567 77 496.5 31.5 c 128,-1,3
 426 -14 426 -14 337 -14 c 0,4,5
 270 -14 270 -14 212 12.5 c 128,-1,6
 154 39 154 39 117 81.5 c 128,-1,7
 80 124 80 124 59 176 c 128,-1,8
 38 228 38 228 38 281 c 0,9,10
 38 397 38 397 124.5 483 c 128,-1,11
 211 569 211 569 337 569 c 0,12,13
 462 569 462 569 549 483.5 c 128,-1,14
 636 398 636 398 636 279 c 0,0,1
532 279 m 0,15,16
 532 356 532 356 477 415 c 128,-1,17
 422 474 422 474 337 474 c 128,-1,18
 252 474 252 474 197 415 c 128,-1,19
 142 356 142 356 142 278 c 128,-1,20
 142 200 142 200 197.5 140.5 c 128,-1,21
 253 81 253 81 337 81 c 0,22,23
 420 81 420 81 476 140 c 128,-1,24
 532 199 532 199 532 279 c 0,15,16
413 747 m 1,25,-1
 501 747 l 1,26,27
 500 740 500 740 496.5 728 c 128,-1,28
 493 716 493 716 482 694.5 c 128,-1,29
 471 673 471 673 456 657 c 0,30,31
 412 612 412 612 337 612 c 0,32,33
 261 612 261 612 218 657 c 0,34,35
 184 693 184 693 173 747 c 1,36,-1
 261 747 l 1,37,38
 265 721 265 721 283 703 c 0,39,40
 302 684 302 684 337 684 c 128,-1,41
 372 684 372 684 391 703 c 0,42,43
 409 721 409 721 413 747 c 1,25,-1
EndSplineSet
EndChar

StartChar: Ohungarumlaut
Encoding: 336 336 259
Width: 846
GlyphClass: 2
Flags: W
LayerCount: 2
Fore
SplineSet
808 368 m 0,0,1
 808 214 808 214 696.5 100 c 128,-1,2
 585 -14 585 -14 423 -14 c 0,3,4
 260 -14 260 -14 149 100.5 c 128,-1,5
 38 215 38 215 38 370 c 128,-1,6
 38 525 38 525 148 639.5 c 128,-1,7
 258 754 258 754 423 754 c 0,8,9
 587 754 587 754 697.5 641 c 128,-1,10
 808 528 808 528 808 368 c 0,0,1
700 367 m 0,11,12
 700 418 700 418 682 467.5 c 128,-1,13
 664 517 664 517 631 559.5 c 128,-1,14
 598 602 598 602 543.5 628.5 c 128,-1,15
 489 655 489 655 423 655 c 0,16,17
 355 655 355 655 300 627.5 c 128,-1,18
 245 600 245 600 212.5 556 c 128,-1,19
 180 512 180 512 163 464 c 128,-1,20
 146 416 146 416 146 370 c 0,21,22
 146 323 146 323 163 274.5 c 128,-1,23
 180 226 180 226 212.5 182.5 c 128,-1,24
 245 139 245 139 300 112 c 128,-1,25
 355 85 355 85 423 85 c 128,-1,26
 491 85 491 85 546 112.5 c 128,-1,27
 601 140 601 140 633.5 182.5 c 128,-1,28
 666 225 666 225 683 273 c 128,-1,29
 700 321 700 321 700 367 c 0,11,12
308 777 m 1,30,-1
 264 840 l 1,31,-1
 452 975 l 1,32,-1
 499 906 l 1,33,-1
 308 777 l 1,30,-1
516 776 m 1,34,-1
 472 839 l 1,35,-1
 660 974 l 1,36,-1
 707 905 l 1,37,-1
 516 776 l 1,34,-1
EndSplineSet
Position2: "'cpsp' Capital Spacing lookup 0 subtable" dx=5 dy=0 dh=10 dv=0
EndChar

StartChar: ohungarumlaut
Encoding: 337 337 260
Width: 674
GlyphClass: 2
Flags: W
LayerCount: 2
Fore
SplineSet
636 279 m 0,0,1
 636 209 636 209 601.5 143 c 128,-1,2
 567 77 567 77 496.5 31.5 c 128,-1,3
 426 -14 426 -14 337 -14 c 0,4,5
 270 -14 270 -14 212 12.5 c 128,-1,6
 154 39 154 39 117 81.5 c 128,-1,7
 80 124 80 124 59 176 c 128,-1,8
 38 228 38 228 38 281 c 0,9,10
 38 397 38 397 124.5 483 c 128,-1,11
 211 569 211 569 337 569 c 0,12,13
 462 569 462 569 549 483.5 c 128,-1,14
 636 398 636 398 636 279 c 0,0,1
532 279 m 0,15,16
 532 356 532 356 477 415 c 128,-1,17
 422 474 422 474 337 474 c 128,-1,18
 252 474 252 474 197 415 c 128,-1,19
 142 356 142 356 142 278 c 128,-1,20
 142 200 142 200 197.5 140.5 c 128,-1,21
 253 81 253 81 337 81 c 0,22,23
 420 81 420 81 476 140 c 128,-1,24
 532 199 532 199 532 279 c 0,15,16
212 612 m 1,25,-1
 168 675 l 1,26,-1
 356 810 l 1,27,-1
 403 741 l 1,28,-1
 212 612 l 1,25,-1
420 611 m 1,29,-1
 376 674 l 1,30,-1
 564 809 l 1,31,-1
 611 740 l 1,32,-1
 420 611 l 1,29,-1
EndSplineSet
EndChar

